<?xml version="1.0" standalone="no"?>
<!DOCTYPE svg PUBLIC "-//W3C//DTD SVG 20010904//EN"
 "http://www.w3.org/TR/2001/REC-SVG-20010904/DTD/svg10.dtd">
<svg version="1.0" xmlns="http://www.w3.org/2000/svg"
 width="615.000000pt" height="232.000000pt" viewBox="0 0 615.000000 232.000000"
 preserveAspectRatio="xMidYMid meet">

<g transform="translate(0.000000,232.000000) scale(0.100000,-0.100000)"
fill="#000000" stroke="none">
<path d="M2350 1886 c-225 -52 -374 -163 -464 -347 -70 -142 -81 -195 -80
-389 0 -193 13 -260 76 -389 55 -114 161 -223 270 -275 243 -117 537 -114 826
6 l72 31 0 173 c0 202 2 199 -88 130 -140 -107 -236 -146 -361 -146 -198 0
-336 99 -394 285 -17 55 -22 94 -21 185 0 168 33 267 121 361 151 162 407 154
633 -20 36 -28 75 -50 88 -51 22 0 22 0 22 174 l0 173 -77 33 c-140 58 -211
72 -398 76 -115 2 -188 -1 -225 -10z"/>
<path d="M440 1740 l0 -140 340 0 c187 0 340 -3 340 -7 0 -5 -162 -208 -360
-453 l-359 -445 0 -132 -1 -133 610 0 610 0 0 135 0 135 -374 0 c-206 0 -377
3 -379 7 -3 5 46 69 107 144 61 75 222 274 359 442 l247 306 0 141 0 140 -570
0 -570 0 0 -140z"/>
<path d="M3330 1155 l0 -725 525 0 525 0 0 135 0 135 -340 0 -340 0 0 185 0
185 315 0 315 0 0 135 0 135 -315 0 -315 0 0 130 0 130 340 0 340 0 0 140 0
140 -525 0 -525 0 0 -725z"/>
<path d="M4560 1515 c0 -2 92 -123 205 -267 113 -145 204 -268 202 -275 -2
-12 -72 -104 -300 -393 l-114 -145 185 -3 c103 -1 191 -1 198 2 6 2 64 77 128
165 l118 162 110 -153 c60 -84 112 -159 115 -166 4 -9 55 -12 209 -12 l203 0
-215 276 -214 276 203 256 c111 141 206 263 211 270 6 9 -34 12 -187 12 l-195
0 -113 -160 c-63 -87 -117 -159 -121 -160 -3 0 -57 72 -120 160 l-113 159
-197 1 c-109 0 -198 -2 -198 -5z"/>
</g>
</svg>
