<?xml version="1.0" encoding="utf-8"?>
<!-- Generator: Adobe Illustrator 24.0.2, SVG Export Plug-In . SVG Version: 6.00 Build 0)  -->
<svg version="1.1" id="Camada_1" xmlns="http://www.w3.org/2000/svg" xmlns:xlink="http://www.w3.org/1999/xlink" x="0px" y="0px"
	 viewBox="0 0 320.92 160.83" style="enable-background:new 0 0 320.92 160.83;" xml:space="preserve">
<style type="text/css">
	.st0{fill:#5A5A5A;}
	.st1{fill:#3F8853;}
</style>
<g>
	<g>
		<path class="st0" d="M10.38,95.92L51.8,36.84v-0.56H14.27V15.57h70.06v14.32L44.16,88v0.56h40.87v20.71H10.38V95.92z"/>
		<path class="st0" d="M161.34,106.9c-3.48,1.81-12.37,3.89-23.49,3.89c-35.03,0-50.46-21.82-50.46-46.85
			c0-33.08,24.19-49.9,52.13-49.9c10.7,0,19.46,2.08,23.35,4.17L158,37.95c-4.03-1.67-9.87-3.34-17.38-3.34
			c-14.32,0-26.83,8.48-26.83,27.66c0,17.1,10.15,27.66,27.38,27.66c5.98,0,12.79-1.11,16.68-2.64L161.34,106.9z"/>
		<path class="st1" d="M230.28,71.45h-33.64v17.24h37.67v20.57h-62.83V15.57h60.89v20.57h-35.73v15.01h33.64V71.45z"/>
		<path class="st1" d="M264.47,40.87l5.42,10.15c1.67,3.34,3.47,6.67,5,9.73h0.28c1.53-3.61,3.06-6.95,4.59-10.15l4.59-9.73h27.11
			l-22.1,32.39l22.24,36h-28.36l-5.56-10.98c-1.53-3.2-3.06-6.39-4.45-9.73h-0.28c-1.53,3.47-3.06,6.67-4.45,9.73l-5,10.98h-27.25
			l22.66-34.75l-22.38-33.64H264.47z"/>
	</g>
	<g>
		<g>
			<path d="M9.18,140.71l6.59-8.42c0.9-1.08,1.66-1.94,2.59-2.95v-0.07H9.83v-3.53h13.93v2.7l-6.44,8.24
				c-0.86,1.04-1.69,2.05-2.59,2.99v0.07h9.25v3.53H9.18V140.71z"/>
			<path d="M28.11,135.74c0.11,3.17,2.59,4.54,5.4,4.54c2.05,0,3.53-0.29,4.86-0.79l0.65,3.06c-1.51,0.61-3.6,1.12-6.12,1.12
				c-5.69,0-9.04-3.53-9.04-8.89c0-4.86,2.95-9.43,8.57-9.43c5.72,0,7.56,4.68,7.56,8.53c0,0.83-0.07,1.48-0.14,1.87H28.11z
				 M35.82,132.65c0.04-1.62-0.68-4.28-3.64-4.28c-2.74,0-3.89,2.48-4.07,4.28H35.82z"/>
			<path d="M41.76,131.39c0-2.38-0.04-4.07-0.14-5.65h3.85l0.14,3.35h0.14c0.86-2.48,2.92-3.74,4.79-3.74
				c0.43,0,0.68,0.04,1.04,0.11v4.17c-0.36-0.07-0.76-0.14-1.3-0.14c-2.12,0-3.56,1.37-3.96,3.35c-0.07,0.4-0.14,0.86-0.14,1.37
				v9.07h-4.43V131.39z"/>
			<path d="M69.12,134.34c0,6.44-4.54,9.32-9,9.32c-4.97,0-8.78-3.42-8.78-9.03c0-5.76,3.78-9.29,9.07-9.29
				C65.63,125.34,69.12,129.01,69.12,134.34z M55.91,134.52c0,3.38,1.66,5.94,4.36,5.94c2.52,0,4.28-2.48,4.28-6.01
				c0-2.74-1.22-5.87-4.25-5.87C57.17,128.58,55.91,131.6,55.91,134.52z"/>
		</g>
		<g>
			<path d="M88.87,142.73c-0.94,0.43-2.77,0.94-4.97,0.94c-5.47,0-9.04-3.53-9.04-8.96c0-5.25,3.6-9.36,9.75-9.36
				c1.62,0,3.28,0.36,4.28,0.83l-0.79,3.31c-0.72-0.32-1.76-0.68-3.35-0.68c-3.38,0-5.4,2.48-5.36,5.69c0,3.6,2.34,5.65,5.36,5.65
				c1.55,0,2.63-0.32,3.49-0.68L88.87,142.73z"/>
			<path d="M103.96,139.05c0,1.58,0.07,3.13,0.25,4.21h-4l-0.29-1.94h-0.11c-1.08,1.37-2.92,2.34-5.18,2.34
				c-3.53,0-5.51-2.56-5.51-5.22c0-4.43,3.92-6.66,10.4-6.62v-0.29c0-1.15-0.47-3.06-3.56-3.06c-1.73,0-3.53,0.54-4.72,1.3
				l-0.86-2.88c1.3-0.79,3.56-1.55,6.34-1.55c5.62,0,7.23,3.56,7.23,7.38V139.05z M99.64,134.7c-3.13-0.07-6.12,0.61-6.12,3.28
				c0,1.73,1.12,2.52,2.52,2.52c1.76,0,3.06-1.15,3.46-2.41c0.11-0.32,0.14-0.68,0.14-0.97V134.7z"/>
			<path d="M106.84,131.39c0-2.38-0.04-4.07-0.14-5.65h3.85l0.14,3.35h0.14c0.86-2.48,2.92-3.74,4.79-3.74
				c0.43,0,0.68,0.04,1.04,0.11v4.17c-0.36-0.07-0.76-0.14-1.3-0.14c-2.12,0-3.56,1.37-3.96,3.35c-0.07,0.4-0.14,0.86-0.14,1.37
				v9.07h-4.43V131.39z"/>
			<path d="M117.85,117.71h4.43v10.44h0.07c1.08-1.69,2.99-2.81,5.62-2.81c4.28,0,7.34,3.56,7.31,8.89c0,6.3-4,9.43-7.96,9.43
				c-2.27,0-4.28-0.86-5.54-3.02h-0.07l-0.22,2.63h-3.78c0.07-1.19,0.14-3.13,0.14-4.93V117.71z M122.28,136.03
				c0,0.36,0.04,0.72,0.11,1.04c0.47,1.76,2.02,3.1,3.92,3.1c2.77,0,4.46-2.23,4.46-5.76c0-3.1-1.48-5.62-4.43-5.62
				c-1.8,0-3.42,1.29-3.92,3.24c-0.07,0.32-0.14,0.72-0.14,1.15V136.03z"/>
			<path d="M153.78,134.34c0,6.44-4.54,9.32-9,9.32c-4.97,0-8.78-3.42-8.78-9.03c0-5.76,3.78-9.29,9.07-9.29
				C150.29,125.34,153.78,129.01,153.78,134.34z M140.57,134.52c0,3.38,1.66,5.94,4.36,5.94c2.52,0,4.28-2.48,4.28-6.01
				c0-2.74-1.22-5.87-4.25-5.87C141.83,128.58,140.57,131.6,140.57,134.52z"/>
			<path d="M155.62,130.95c0-2.02-0.04-3.71-0.14-5.22h3.89l0.22,2.63h0.11c0.76-1.37,2.66-3.02,5.58-3.02
				c3.06,0,6.23,1.98,6.23,7.52v10.4h-4.43v-9.9c0-2.52-0.94-4.43-3.35-4.43c-1.76,0-2.99,1.26-3.46,2.59
				c-0.14,0.4-0.18,0.94-0.18,1.44v10.29h-4.46V130.95z"/>
		</g>
		<g>
			<path d="M180.82,135.74c0.11,3.17,2.59,4.54,5.4,4.54c2.05,0,3.53-0.29,4.86-0.79l0.65,3.06c-1.51,0.61-3.6,1.12-6.12,1.12
				c-5.69,0-9.04-3.53-9.04-8.89c0-4.86,2.95-9.43,8.57-9.43c5.72,0,7.56,4.68,7.56,8.53c0,0.83-0.07,1.48-0.14,1.87H180.82z
				 M188.52,132.65c0.04-1.62-0.68-4.28-3.64-4.28c-2.74,0-3.89,2.48-4.07,4.28H188.52z"/>
			<path d="M197.12,125.74l2.09,3.31c0.58,0.94,1.08,1.8,1.58,2.7h0.11c0.5-0.97,1.01-1.87,1.51-2.77l1.94-3.24h4.82l-5.87,8.42
				l5.97,9.11h-5l-2.16-3.49c-0.58-0.94-1.08-1.87-1.58-2.84h-0.07c-0.5,1.01-1.01,1.87-1.58,2.84l-2.02,3.49h-4.9l6.08-8.93
				l-5.87-8.6H197.12z"/>
			<path d="M222.36,142.73c-0.94,0.43-2.77,0.94-4.97,0.94c-5.47,0-9.04-3.53-9.04-8.96c0-5.25,3.6-9.36,9.75-9.36
				c1.62,0,3.28,0.36,4.28,0.83l-0.79,3.31c-0.72-0.32-1.76-0.68-3.35-0.68c-3.38,0-5.4,2.48-5.36,5.69c0,3.6,2.34,5.65,5.36,5.65
				c1.55,0,2.63-0.32,3.49-0.68L222.36,142.73z"/>
			<path d="M223.83,117.71h4.46v10.44h0.07c0.54-0.83,1.3-1.55,2.2-2.02c0.86-0.5,1.91-0.79,3.02-0.79c2.99,0,6.12,1.98,6.12,7.59
				v10.33h-4.43v-9.83c0-2.56-0.94-4.46-3.38-4.46c-1.73,0-2.95,1.15-3.42,2.48c-0.14,0.36-0.18,0.83-0.18,1.33v10.47h-4.46V117.71z
				"/>
			<path d="M256.23,139.05c0,1.58,0.07,3.13,0.25,4.21h-4l-0.29-1.94h-0.11c-1.08,1.37-2.92,2.34-5.18,2.34
				c-3.53,0-5.51-2.56-5.51-5.22c0-4.43,3.92-6.66,10.4-6.62v-0.29c0-1.15-0.47-3.06-3.56-3.06c-1.73,0-3.53,0.54-4.72,1.3
				l-0.86-2.88c1.3-0.79,3.56-1.55,6.34-1.55c5.62,0,7.23,3.56,7.23,7.38V139.05z M251.91,134.7c-3.13-0.07-6.12,0.61-6.12,3.28
				c0,1.73,1.12,2.52,2.52,2.52c1.76,0,3.06-1.15,3.46-2.41c0.11-0.32,0.14-0.68,0.14-0.97V134.7z"/>
			<path d="M259.11,130.95c0-2.02-0.04-3.71-0.14-5.22h3.89l0.22,2.63h0.11c0.76-1.37,2.66-3.02,5.58-3.02
				c3.06,0,6.23,1.98,6.23,7.52v10.4h-4.43v-9.9c0-2.52-0.94-4.43-3.35-4.43c-1.76,0-2.99,1.26-3.46,2.59
				c-0.14,0.4-0.18,0.94-0.18,1.44v10.29h-4.46V130.95z"/>
			<path d="M293.78,140.71c0,3.67-0.76,6.3-2.59,7.96c-1.84,1.62-4.36,2.12-6.77,2.12c-2.23,0-4.61-0.47-6.12-1.4l0.97-3.35
				c1.12,0.65,2.99,1.33,5.11,1.33c2.88,0,5.04-1.51,5.04-5.29v-1.51h-0.07c-1.01,1.55-2.81,2.59-5.11,2.59
				c-4.36,0-7.45-3.6-7.45-8.57c0-5.76,3.74-9.25,7.96-9.25c2.66,0,4.25,1.3,5.08,2.74h0.07l0.18-2.34h3.85
				c-0.07,1.19-0.14,2.63-0.14,5.04V140.71z M289.35,132.75c0-0.4-0.04-0.83-0.14-1.19c-0.47-1.62-1.73-2.84-3.6-2.84
				c-2.48,0-4.32,2.16-4.32,5.72c0,2.99,1.51,5.4,4.28,5.4c1.66,0,3.09-1.08,3.6-2.66c0.11-0.47,0.18-1.08,0.18-1.58V132.75z"/>
			<path d="M299.86,135.74c0.11,3.17,2.59,4.54,5.4,4.54c2.05,0,3.53-0.29,4.86-0.79l0.65,3.06c-1.51,0.61-3.6,1.12-6.12,1.12
				c-5.69,0-9.04-3.53-9.04-8.89c0-4.86,2.95-9.43,8.57-9.43c5.72,0,7.56,4.68,7.56,8.53c0,0.83-0.07,1.48-0.14,1.87H299.86z
				 M307.57,132.65c0.04-1.62-0.68-4.28-3.64-4.28c-2.74,0-3.89,2.48-4.07,4.28H307.57z"/>
		</g>
	</g>
</g>
</svg>
