<?xml version="1.0" encoding="utf-8"?>
<!-- Generator: Adobe Illustrator 24.0.2, SVG Export Plug-In . SVG Version: 6.00 Build 0)  -->
<svg version="1.1" id="Camada_1" xmlns="http://www.w3.org/2000/svg" xmlns:xlink="http://www.w3.org/1999/xlink" x="0px" y="0px"
	 viewBox="0 0 338.19 151.23" style="enable-background:new 0 0 338.19 151.23;" xml:space="preserve">
<style type="text/css">
	.st0{fill:#5A5A5A;}
	.st1{fill:#3F8853;}
</style>
<g>
	<path class="st0" d="M18.49,109.12l41.42-59.08v-0.56H22.38V28.77h70.06v14.32l-40.17,58.11v0.56h40.87v20.71H18.49V109.12z"/>
	<path class="st0" d="M169.45,120.1c-3.48,1.81-12.37,3.89-23.49,3.89c-35.03,0-50.46-21.82-50.46-46.85
		c0-33.08,24.19-49.9,52.13-49.9c10.7,0,19.46,2.08,23.35,4.17l-4.87,19.74c-4.03-1.67-9.87-3.34-17.38-3.34
		c-14.32,0-26.83,8.48-26.83,27.66c0,17.1,10.15,27.66,27.38,27.66c5.98,0,12.79-1.11,16.68-2.64L169.45,120.1z"/>
	<path class="st1" d="M238.39,84.65h-33.64v17.24h37.67v20.57h-62.83V28.77h60.89v20.57h-35.72v15.01h33.64V84.65z"/>
	<path class="st1" d="M272.58,54.07L278,64.22c1.67,3.34,3.47,6.67,5,9.73h0.28c1.53-3.61,3.06-6.95,4.59-10.15l4.59-9.73h27.11
		l-22.1,32.39l22.24,36h-28.36l-5.56-10.98c-1.53-3.2-3.06-6.39-4.45-9.73h-0.28c-1.53,3.48-3.06,6.67-4.45,9.73l-5,10.98h-27.25
		l22.66-34.75l-22.38-33.64H272.58z"/>
</g>
</svg>
