<?xml version="1.0" standalone="no"?>
<!DOCTYPE svg PUBLIC "-//W3C//DTD SVG 20010904//EN"
 "http://www.w3.org/TR/2001/REC-SVG-20010904/DTD/svg10.dtd">
<svg version="1.0" xmlns="http://www.w3.org/2000/svg"
 width="1920.000000pt" height="1342.000000pt" viewBox="0 0 1920.000000 1342.000000"
 preserveAspectRatio="xMidYMid meet">

<g transform="translate(0.000000,1342.000000) scale(0.100000,-0.100000)"
fill="#000000" stroke="none">
<path d="M17227 12733 c-4 -3 -7 -26 -7 -50 l0 -43 75 0 c91 0 99 -10 63 -78
-39 -74 -69 -126 -82 -142 -36 -44 -56 -94 -56 -141 l0 -49 150 0 150 0 0 55
0 55 -74 0 c-87 0 -100 13 -62 63 13 18 33 48 44 67 11 19 36 64 56 98 29 52
36 74 36 118 l0 54 -143 0 c-79 0 -147 -3 -150 -7z"/>
<path d="M17652 12713 c-26 -17 -51 -45 -67 -77 -23 -43 -26 -63 -27 -143 0
-79 3 -100 27 -150 39 -85 82 -113 175 -113 57 0 78 4 101 21 34 24 89 114 89
145 0 19 -4 20 -56 16 -41 -3 -62 -11 -79 -28 -38 -38 -72 -41 -105 -9 -66 64
-54 205 22 246 21 11 65 -4 88 -31 20 -23 121 -32 128 -11 8 23 -42 104 -82
133 -33 24 -48 28 -105 28 -56 0 -74 -5 -109 -27z"/>
<path d="M18108 12732 l-117 -3 2 -247 2 -247 129 -3 128 -3 -6 23 c-3 13 -6
37 -6 53 l0 30 -60 -3 c-71 -4 -90 7 -90 52 0 45 16 56 77 56 l53 0 0 45 0 45
-55 0 c-60 0 -75 13 -75 68 0 36 13 42 94 42 l62 0 -2 47 c-1 26 -6 48 -10 48
-5 0 -62 -1 -126 -3z"/>
<path d="M18265 12632 c12 -8 28 -34 52 -82 9 -19 19 -37 22 -40 13 -12 31
-51 31 -68 0 -22 -22 -72 -32 -72 -5 0 -8 -6 -8 -13 0 -7 -11 -37 -25 -65 -14
-29 -25 -54 -25 -57 0 -4 23 -5 51 -3 54 3 63 10 74 61 8 39 44 37 68 -4 9
-17 17 -36 17 -43 0 -8 19 -13 54 -15 51 -2 79 10 56 24 -5 3 -17 23 -27 43
-9 20 -27 54 -40 74 -13 21 -23 46 -23 56 0 22 27 79 41 87 5 4 9 15 9 27 0
11 8 32 18 46 37 53 37 52 -27 52 -47 0 -61 -3 -61 -15 0 -24 -33 -85 -46 -85
-7 0 -23 23 -36 50 l-23 50 -65 0 c-36 0 -60 -4 -55 -8z"/>
<path d="M1590 12105 c-19 -8 -42 -18 -50 -21 -18 -7 -80 -88 -99 -129 -7 -16
-18 -40 -23 -52 -6 -12 -11 -68 -11 -125 0 -133 26 -216 90 -283 37 -39 58
-50 125 -65 92 -21 194 12 247 78 30 39 70 130 64 147 -2 6 -33 9 -70 9 -63
-2 -68 -4 -109 -43 -63 -60 -122 -52 -180 25 -25 32 -28 44 -28 117 0 94 14
131 67 171 53 41 111 29 160 -31 16 -20 28 -23 86 -23 37 0 70 3 73 6 9 8 -29
89 -65 141 -21 29 -48 52 -77 65 -58 27 -154 33 -200 13z"/>
<path d="M3841 11964 c-31 -39 -28 -94 7 -127 35 -33 63 -34 98 -4 22 20 27
32 27 70 0 60 -22 87 -74 87 -29 0 -42 -6 -58 -26z"/>
<path d="M2118 11954 c-114 -61 -156 -219 -103 -392 42 -138 218 -187 341 -96
39 29 64 80 80 163 27 143 -27 286 -123 326 -44 19 -159 18 -195 -1z m143
-151 c56 -64 63 -113 26 -178 -21 -37 -26 -40 -66 -40 -61 0 -83 30 -82 114 0
52 4 69 26 97 32 42 62 44 96 7z"/>
<path d="M2516 11954 c-3 -9 -6 -128 -6 -264 0 -236 1 -250 19 -260 23 -12 91
-13 107 -2 8 4 13 65 16 174 l4 167 29 31 c37 38 60 38 96 -1 l29 -31 0 -162
c0 -113 4 -166 12 -174 13 -13 85 -16 112 -6 14 5 16 30 16 170 l0 164 33 37
c27 29 38 35 59 30 53 -14 63 -47 66 -222 2 -90 8 -165 14 -172 15 -18 103
-17 118 2 17 20 8 375 -10 425 -27 73 -81 110 -161 110 -41 0 -60 -6 -88 -27
-20 -15 -37 -31 -39 -35 -7 -15 -31 -8 -46 13 -36 52 -143 67 -199 27 l-30
-22 -15 22 c-12 18 -24 22 -72 22 -44 0 -59 -4 -64 -16z"/>
<path d="M3442 11955 c-37 -20 -83 -68 -96 -100 -56 -135 -30 -317 56 -390 82
-71 236 -55 307 32 53 65 71 212 38 324 -19 64 -36 86 -94 122 -37 23 -53 27
-115 26 -40 -1 -83 -7 -96 -14z m128 -135 c50 -27 68 -156 29 -211 -18 -26
-26 -30 -62 -27 -34 2 -45 9 -64 37 -29 42 -30 99 -3 151 28 55 60 71 100 50z"/>
<path d="M3849 11581 c-23 -24 -29 -38 -29 -75 0 -36 5 -48 26 -65 33 -26 71
-26 103 -2 21 16 25 27 24 72 -1 45 -5 57 -27 76 -36 31 -62 29 -97 -6z"/>
<path d="M14467 10773 c-3 -5 19 -82 49 -173 29 -91 65 -205 80 -255 37 -127
94 -306 105 -333 16 -40 10 -73 -36 -214 -25 -75 -58 -183 -74 -240 -32 -111
-81 -270 -112 -359 -10 -30 -19 -58 -19 -62 0 -4 697 -8 1550 -9 l1550 -3 16
55 c10 30 21 59 26 65 4 5 8 24 8 41 0 18 5 36 10 39 6 3 10 17 10 31 0 13 4
32 10 42 16 29 60 169 60 191 0 12 4 29 9 39 19 35 61 158 61 179 0 12 5 25
10 28 6 3 10 19 10 36 0 16 5 29 10 29 6 0 10 24 10 54 0 30 -4 58 -10 61 -5
3 -10 22 -10 41 0 19 -4 34 -10 34 -5 0 -10 13 -10 28 0 16 -3 32 -7 36 -8 8
-28 61 -49 131 -8 28 -26 88 -40 135 -14 47 -30 93 -35 102 -5 10 -9 29 -9 42
0 14 -4 28 -10 31 -5 3 -10 17 -10 31 0 13 -4 32 -9 42 -5 9 -15 37 -23 62
l-15 45 -1546 3 c-850 1 -1548 -1 -1550 -5z m2801 -653 c2 -19 10 -38 17 -43
7 -4 16 -21 20 -37 l7 -30 32 35 c27 29 41 35 73 35 28 0 48 -7 64 -22 48 -45
59 -70 59 -134 0 -50 -5 -69 -26 -100 -35 -51 -40 -54 -101 -54 -49 0 -54 2
-78 37 -24 36 -25 36 -25 12 0 -41 -17 -49 -111 -49 -85 0 -88 1 -108 29 -12
16 -21 34 -21 40 0 6 -4 11 -10 11 -5 0 -10 -6 -10 -14 0 -8 -7 -22 -16 -30
-13 -14 -14 -21 -3 -51 11 -31 11 -39 -3 -63 -15 -24 -24 -27 -77 -30 l-61 -3
0 30 c0 16 5 33 10 36 15 10 12 52 -5 59 -8 3 -24 20 -35 38 l-20 33 0 -36 c0
-45 -9 -49 -106 -49 -78 0 -96 9 -131 66 -11 18 -12 18 -12 -3 -2 -42 -30 -63
-88 -63 -46 0 -57 4 -82 31 l-30 30 -3 -28 c-3 -24 -8 -28 -37 -31 -18 -2 -37
0 -42 5 -5 5 -10 43 -12 84 -4 84 -12 108 -30 90 -7 -7 -12 -45 -12 -86 -1
-41 -6 -80 -12 -86 -6 -6 -25 -9 -44 -7 -28 3 -34 8 -41 36 l-9 34 -22 -34
c-19 -28 -30 -34 -67 -36 -67 -5 -85 3 -105 49 l-19 40 -14 -28 c-27 -53 -43
-64 -86 -61 l-40 3 2 -45 c3 -61 -6 -72 -59 -68 l-44 3 -5 65 c-3 38 -8 60
-13 53 -9 -15 -73 -18 -81 -4 -3 5 -8 44 -10 86 -2 43 -9 82 -15 88 -15 15
-20 -5 -23 -98 l-3 -80 -41 -3 c-25 -2 -45 2 -52 10 -6 8 -12 50 -14 93 -4
107 -22 99 -28 -12 l-5 -88 -45 0 -45 0 -6 45 -5 45 -17 -37 c-20 -45 -42 -58
-97 -58 -56 0 -78 14 -99 61 l-18 40 -17 -34 c-22 -48 -56 -67 -117 -67 -48 0
-55 3 -89 39 -49 51 -65 129 -45 217 9 40 61 104 84 104 9 0 22 5 29 12 9 9
18 9 37 0 14 -7 33 -12 42 -12 22 0 71 -56 78 -92 l7 -29 36 36 c59 57 130 45
169 -28 l18 -32 5 45 5 45 80 2 c58 1 87 -2 103 -13 21 -14 25 -14 41 0 28 25
76 20 106 -11 14 -16 29 -39 33 -53 6 -21 8 -16 12 25 l5 50 89 0 90 0 33 -43
c18 -24 33 -39 33 -33 0 5 15 26 34 45 46 50 95 50 141 2 l32 -34 9 32 9 31
83 2 c82 3 84 2 113 -29 16 -18 29 -39 30 -48 0 -8 6 -3 12 12 23 50 47 68 92
68 32 0 47 -6 67 -27 14 -16 28 -37 30 -48 4 -18 6 -18 15 5 6 14 22 35 35 47
21 20 33 22 108 20 l85 -2 3 -39 3 -38 35 41 c31 36 41 41 78 41 36 0 47 -5
70 -32 14 -17 26 -35 26 -40 0 -4 4 -8 8 -8 13 0 32 48 32 80 0 17 5 30 10 30
6 0 10 7 10 15 0 21 28 30 97 30 l58 0 3 -35z"/>
<path d="M14910 9989 c-24 -58 24 -118 60 -74 8 9 29 15 55 15 40 0 44 2 50
31 4 17 4 33 1 36 -3 4 -6 1 -6 -5 0 -21 -85 -15 -105 8 -25 28 -41 25 -55
-11z"/>
<path d="M15806 9953 c-12 -13 -6 -53 9 -53 9 0 15 9 15 24 0 26 -12 40 -24
29z"/>
<path d="M16581 9944 c0 -11 3 -14 6 -6 3 7 2 16 -1 19 -3 4 -6 -2 -5 -13z"/>
<path d="M16706 9953 c-12 -13 -6 -53 9 -53 9 0 15 9 15 24 0 26 -12 40 -24
29z"/>
<path d="M17166 9953 c-12 -13 -6 -53 9 -53 9 0 15 9 15 24 0 26 -12 40 -24
29z"/>
<path d="M17404 9946 c-7 -20 2 -46 16 -46 13 0 13 47 0 55 -6 3 -13 -1 -16
-9z"/>
<path d="M15172 9928 c5 -34 38 -37 38 -4 0 20 -5 26 -21 26 -15 0 -20 -5 -17
-22z"/>
<path d="M16942 9928 c2 -13 9 -23 16 -22 6 1 30 2 53 3 28 1 39 5 36 14 -2 7
-16 11 -34 9 -17 -2 -34 1 -38 7 -12 21 -37 12 -33 -11z"/>
<path d="M16390 9920 c0 -11 7 -20 15 -20 17 0 18 2 9 24 -9 23 -24 20 -24 -4z"/>
<path d="M2200 9287 c-51 -17 -64 -27 -94 -74 -24 -36 -28 -51 -28 -122 0 -97
19 -141 75 -182 71 -51 175 -34 222 37 42 64 -21 101 -83 49 -42 -35 -79 -31
-109 14 -30 44 -30 107 -2 155 18 31 26 36 58 36 27 0 44 -7 61 -25 36 -38
102 -32 93 8 -11 43 -52 85 -100 101 -53 18 -47 18 -93 3z"/>
<path d="M2764 9279 c-45 -21 -54 -39 -54 -104 0 -55 29 -94 97 -131 67 -37
82 -69 37 -80 -21 -6 -31 -2 -45 15 -27 33 -83 26 -87 -10 -2 -19 6 -34 33
-58 57 -49 145 -41 192 19 16 20 16 109 -1 139 -8 14 -40 39 -72 57 -45 25
-60 38 -62 58 -3 22 1 26 21 26 14 0 27 -7 31 -15 4 -10 20 -15 51 -15 36 0
45 3 45 18 0 35 -36 78 -77 90 -54 16 -61 15 -109 -9z"/>
<path d="M3073 9287 c-48 -18 -67 -51 -66 -115 1 -51 4 -57 44 -93 24 -22 50
-39 59 -39 17 0 60 -35 60 -48 0 -14 -23 -32 -40 -32 -9 0 -25 9 -35 20 -20
23 -84 28 -86 8 -3 -27 3 -52 14 -63 33 -31 65 -45 107 -45 52 0 83 18 105 60
19 37 19 70 -1 119 -13 33 -25 44 -75 67 -56 26 -78 51 -64 74 9 15 41 12 55
-5 8 -9 30 -15 57 -15 41 0 44 2 38 23 -13 41 -36 68 -70 83 -40 16 -59 17
-102 1z"/>
<path d="M1477 9284 c-4 -4 -7 -97 -7 -206 l0 -198 40 0 39 0 3 102 c2 56 7
103 13 104 6 2 19 -16 29 -39 11 -23 36 -70 55 -105 36 -62 37 -63 76 -60 l40
3 0 200 0 200 -40 0 -40 0 -3 -92 c-2 -65 -6 -93 -15 -93 -7 0 -34 42 -62 93
-47 87 -52 92 -85 95 -20 2 -39 0 -43 -4z"/>
<path d="M1835 9278 c-3 -8 -4 -99 -3 -203 l3 -190 98 -3 97 -3 0 40 0 40 -57
3 -58 3 0 35 c0 34 2 35 40 38 49 4 65 17 65 52 0 35 -16 48 -65 52 -37 3 -40
5 -40 33 0 29 2 30 55 35 l55 5 0 35 0 35 -93 3 c-69 2 -94 -1 -97 -10z"/>
<path d="M2454 9277 c-2 -7 -3 -98 -2 -202 l3 -190 103 -3 102 -3 0 41 0 40
-54 0 c-59 0 -80 14 -74 52 3 20 10 24 53 28 l50 5 0 45 0 45 -40 0 c-48 1
-65 10 -65 34 0 28 20 39 75 43 50 3 50 3 53 41 l3 37 -101 0 c-73 0 -102 -4
-106 -13z"/>
<path d="M3304 9277 c-2 -7 -3 -98 -2 -202 l3 -190 40 0 40 0 3 180 c3 221 3
225 -44 225 -19 0 -37 -6 -40 -13z"/>
<path d="M3447 9283 c-4 -3 -7 -96 -7 -205 l0 -198 90 0 c91 0 113 6 158 45
41 35 54 72 54 159 1 113 -34 174 -113 196 -38 11 -172 14 -182 3z m174 -96
c39 -30 52 -115 27 -170 -15 -32 -70 -61 -98 -52 -18 6 -20 16 -20 121 l0 114
38 0 c20 0 44 -6 53 -13z"/>
<path d="M3887 9258 c-8 -18 -19 -49 -25 -68 -6 -19 -23 -75 -38 -125 -14 -49
-32 -108 -39 -130 -7 -22 -11 -43 -8 -47 2 -5 21 -8 42 -8 33 0 39 4 51 35 13
34 15 35 70 35 55 0 57 -1 73 -36 16 -32 20 -35 55 -32 34 3 37 5 34 30 -2 15
-12 51 -23 80 -10 29 -19 61 -19 70 0 10 -4 26 -9 36 -5 9 -21 56 -36 105
l-26 87 -44 0 c-40 0 -45 -3 -58 -32z m75 -168 c8 -48 0 -64 -28 -58 -14 3
-18 12 -17 33 6 85 32 99 45 25z"/>
<path d="M4145 9278 c-3 -7 -4 -99 -3 -203 l3 -190 90 -3 c103 -3 132 9 181
74 27 34 29 43 29 129 0 85 -2 95 -28 129 -46 60 -69 70 -173 74 -74 4 -95 1
-99 -10z m191 -105 c51 -60 35 -163 -32 -199 -57 -31 -68 -16 -72 101 -1 54 0
105 2 112 3 7 21 13 42 13 27 0 43 -7 60 -27z"/>
<path d="M4500 9085 l0 -206 98 3 97 3 0 35 0 35 -55 5 -55 5 -3 38 -3 37 40
0 c59 0 71 8 71 45 0 42 -19 57 -67 53 -37 -3 -38 -2 -38 32 l0 35 55 5 55 5
0 35 0 35 -97 3 -98 3 0 -206z"/>
<path d="M5868 8863 c-3 -38 -3 -38 -47 -38 -58 0 -83 -31 -83 -105 0 -72 24
-96 93 -93 27 1 53 4 57 7 13 8 8 259 -5 263 -7 3 -13 -10 -15 -34z m-20 -85
c30 -30 4 -128 -34 -128 -18 0 -54 49 -54 74 0 51 57 85 88 54z"/>
<path d="M6510 8886 c0 -21 21 -31 30 -15 5 7 6 17 4 21 -9 14 -34 9 -34 -6z"/>
<path d="M6790 8766 c0 -115 2 -136 15 -136 13 0 15 19 13 132 -2 94 -7 133
-15 136 -10 3 -13 -28 -13 -132z"/>
<path d="M6867 8894 c-9 -9 4 -35 14 -28 5 3 9 12 9 20 0 14 -12 19 -23 8z"/>
<path d="M7505 8881 c-10 -17 4 -31 28 -31 23 0 55 16 47 23 -13 12 -69 17
-75 8z"/>
<path d="M5475 8858 c-3 -13 -5 -68 -3 -123 2 -81 6 -100 18 -100 12 0 15 20
15 119 0 85 -4 121 -12 123 -7 3 -15 -6 -18 -19z"/>
<path d="M6295 8844 c-8 -20 -12 -41 -8 -48 4 -6 10 -44 14 -84 6 -80 5 -77
37 -86 26 -9 31 14 7 34 -10 8 -15 31 -15 71 0 46 3 59 15 59 8 0 15 9 15 19
0 10 -7 21 -15 25 -8 3 -15 12 -15 20 0 31 -20 25 -35 -10z"/>
<path d="M7488 8811 c-29 -25 -32 -34 -32 -86 -1 -51 2 -59 28 -82 22 -19 35
-23 55 -17 14 4 36 6 49 6 21 -2 22 1 22 93 0 87 -9 121 -25 95 -4 -7 -11 -7
-18 -2 -30 22 -48 21 -79 -7z m90 -54 c18 -36 8 -72 -24 -93 -24 -16 -26 -16
-49 6 -29 27 -32 65 -9 98 22 32 64 26 82 -11z"/>
<path d="M5555 8820 c-2 -3 -5 -46 -6 -95 -3 -74 -1 -90 11 -90 11 0 16 15 18
55 3 66 18 100 45 100 32 0 46 -30 47 -98 0 -46 3 -63 13 -59 17 5 10 145 -9
174 -12 19 -22 22 -65 20 -28 -1 -52 -4 -54 -7z"/>
<path d="M5945 8799 c-4 -17 -4 -56 0 -86 8 -69 34 -98 77 -89 17 3 39 6 50 6
17 0 19 7 16 95 -3 109 -20 128 -28 30 -6 -77 -28 -112 -59 -93 -21 13 -31 49
-31 114 0 52 -16 66 -25 23z"/>
<path d="M6145 8804 c-24 -38 -12 -70 35 -94 42 -21 45 -26 31 -49 -7 -11 -14
-10 -40 5 -35 20 -48 15 -32 -14 27 -50 111 -29 111 28 0 24 -7 33 -40 50 -26
13 -40 27 -40 40 0 21 34 29 45 10 3 -5 13 -10 21 -10 12 0 13 4 3 23 -24 45
-68 51 -94 11z"/>
<path d="M6433 8822 l-33 -3 0 -95 c0 -77 3 -94 15 -94 12 0 15 14 15 64 0 57
3 67 25 84 42 33 33 50 -22 44z"/>
<path d="M6606 8803 c-21 -22 -26 -37 -26 -78 1 -80 35 -108 116 -97 l49 7 1
81 c1 45 -1 86 -5 92 -3 5 -29 13 -57 17 -48 6 -54 5 -78 -22z m90 -30 c22
-30 17 -89 -8 -107 -28 -20 -30 -20 -56 4 -41 38 -19 120 31 120 11 0 26 -8
33 -17z"/>
<path d="M6870 8818 c-4 -130 -2 -182 8 -186 15 -5 17 184 2 193 -5 3 -10 0
-10 -7z"/>
<path d="M6935 8821 c-10 -17 4 -31 31 -31 32 0 31 -9 -11 -84 -41 -74 -34
-89 36 -84 50 4 67 28 20 28 -16 0 -33 4 -36 10 -3 5 10 37 30 71 46 79 44 93
-17 97 -25 2 -49 -2 -53 -7z"/>
<path d="M7095 8805 c-20 -20 -25 -34 -25 -78 0 -38 6 -62 18 -77 18 -23 30
-24 112 -18 l34 3 -1 87 c-1 93 -7 115 -27 99 -7 -6 -17 -6 -26 -1 -26 17 -60
11 -85 -15z m89 -37 c23 -33 20 -71 -9 -98 -23 -21 -26 -22 -48 -7 -33 21 -41
60 -22 97 19 37 57 40 79 8z"/>
<path d="M7305 8813 c-23 -22 -35 -57 -35 -99 0 -24 9 -44 34 -71 53 -61 70
-103 41 -103 -8 0 -15 -4 -15 -10 0 -17 36 -11 54 9 16 18 16 21 1 51 -16 30
-16 32 9 51 27 21 35 49 14 49 -6 0 -22 -10 -34 -21 -43 -40 -85 9 -68 79 7
29 14 38 35 40 14 2 31 -4 39 -12 14 -18 40 -21 40 -6 0 20 -49 60 -74 60 -13
0 -32 -7 -41 -17z"/>
<path d="M7685 8804 c-21 -22 -25 -37 -25 -84 0 -68 21 -94 76 -94 49 0 73 33
74 100 0 60 -32 104 -75 104 -15 0 -36 -11 -50 -26z m85 -33 c24 -45 1 -121
-36 -121 -18 0 -54 49 -54 74 0 55 67 89 90 47z"/>
<path d="M6517 8813 c-4 -3 -7 -46 -7 -95 0 -79 2 -89 17 -86 14 3 17 13 16
53 -1 28 -2 69 -2 93 -1 39 -9 51 -24 35z"/>
<path d="M5204 8776 c-11 -29 0 -51 26 -51 21 0 25 5 25 30 0 24 -5 31 -23 33
-13 2 -24 -3 -28 -12z"/>
<path d="M12271 8756 c-14 -17 -7 -36 14 -36 21 0 26 15 12 34 -12 16 -14 16
-26 2z"/>
<path d="M15364 8756 c-7 -19 3 -36 22 -36 10 0 14 8 12 22 -4 26 -26 36 -34
14z"/>
<path d="M15601 8761 c-15 -10 -8 -41 9 -41 15 0 25 29 14 40 -5 5 -15 5 -23
1z"/>
<path d="M12926 8744 c-3 -9 -6 -64 -6 -124 0 -117 4 -140 26 -140 11 0 14 27
14 140 0 113 -3 140 -14 140 -8 0 -17 -7 -20 -16z"/>
<path d="M13002 8743 c5 -25 28 -28 28 -4 0 12 -6 21 -16 21 -9 0 -14 -7 -12
-17z"/>
<path d="M16457 8753 c-4 -3 -7 -20 -7 -36 0 -27 -2 -29 -30 -23 -63 12 -110
-36 -110 -113 0 -54 42 -103 85 -102 17 1 45 1 63 2 l32 0 0 140 c0 109 -3
139 -13 139 -8 0 -17 -3 -20 -7z m-13 -145 c7 -29 6 -42 -8 -62 -40 -61 -105
4 -75 75 10 26 17 30 43 27 27 -3 32 -8 40 -40z"/>
<path d="M13652 8742 c-19 -6 -14 -22 7 -22 11 0 23 -5 26 -10 7 -11 35 5 35
20 0 9 -51 18 -68 12z"/>
<path d="M15903 8743 c-7 -3 -13 -14 -13 -25 0 -10 -11 -34 -25 -52 -29 -39
-33 -101 -10 -147 16 -31 59 -54 77 -43 6 4 26 7 45 6 l33 -1 0 106 0 106 -30
-7 -30 -6 16 26 c9 13 15 26 13 28 -8 7 -65 13 -76 9z m22 -33 c3 -5 -1 -10
-9 -10 -9 0 -16 5 -16 10 0 6 4 10 9 10 6 0 13 -4 16 -10z m34 -74 c7 -8 11
-34 9 -57 -4 -51 -25 -68 -62 -51 -22 10 -26 18 -26 55 0 24 5 48 12 55 16 16
53 15 67 -2z"/>
<path d="M8493 8722 c-63 -49 -54 -200 14 -231 54 -25 133 4 133 50 0 24 -6
24 -37 -1 -62 -48 -118 -12 -118 77 0 46 4 58 25 75 27 22 70 19 96 -7 35 -35
52 -9 17 27 -32 33 -94 38 -130 10z"/>
<path d="M9080 8722 c0 -10 -6 -24 -12 -30 -10 -10 -10 -17 0 -32 6 -11 12
-49 12 -84 0 -69 14 -96 51 -96 24 0 24 6 -1 37 -14 18 -20 41 -20 79 0 43 4
55 20 64 25 13 26 27 1 35 -10 3 -21 15 -24 25 -6 25 -27 26 -27 2z"/>
<path d="M11700 8610 c0 -109 2 -130 15 -130 10 0 15 10 15 34 0 40 8 66 21
66 5 0 18 -22 30 -50 15 -35 27 -50 40 -50 23 0 23 1 4 47 -17 41 -20 80 -5
85 20 6 24 76 6 103 -14 22 -24 25 -71 25 l-55 0 0 -130z m90 86 c20 -26 8
-61 -23 -64 -31 -4 -43 14 -33 53 7 28 36 34 56 11z"/>
<path d="M14824 8723 c-3 -10 -9 -27 -14 -38 -7 -17 -36 -116 -56 -187 -8 -29
31 -22 44 7 9 20 19 25 47 25 26 0 39 -6 51 -25 9 -14 23 -25 30 -25 8 0 14 1
14 3 0 4 -48 190 -58 222 -10 35 -49 47 -58 18z m36 -72 c0 -5 3 -23 6 -40 6
-28 4 -31 -20 -31 -30 0 -30 2 -14 47 11 30 28 45 28 24z"/>
<path d="M13623 8678 c-36 -41 -48 -85 -33 -127 21 -61 35 -70 101 -68 33 1
59 6 60 12 1 18 1 169 0 183 -1 10 -10 12 -31 7 -19 -4 -30 -3 -30 4 0 20 -46
12 -67 -11z m67 -28 c27 -15 36 -74 16 -105 -19 -29 -42 -32 -68 -8 -24 22
-23 74 2 101 24 25 25 25 50 12z"/>
<path d="M15014 8690 c-36 -14 -54 -50 -54 -105 0 -81 52 -127 113 -101 15 7
17 2 17 -35 0 -49 12 -75 29 -65 7 5 11 58 11 158 l0 150 -30 -4 c-17 -3 -33
-1 -36 4 -6 10 -22 9 -50 -2z m64 -52 c7 -7 12 -30 12 -53 0 -46 -13 -65 -45
-65 -32 0 -45 19 -45 65 0 46 13 65 45 65 12 0 26 -5 33 -12z"/>
<path d="M15455 8675 c-14 -13 -25 -29 -25 -36 0 -18 33 -69 46 -69 11 0 44
-32 44 -43 0 -11 -29 -8 -50 5 -15 9 -22 10 -31 1 -9 -9 -5 -18 15 -38 21 -21
33 -25 54 -20 15 4 33 11 39 17 30 25 1 118 -36 118 -18 0 -41 18 -41 32 0 4
11 8 25 8 14 0 25 -4 25 -10 0 -5 9 -10 20 -10 28 0 25 25 -6 49 -34 27 -50
26 -79 -4z"/>
<path d="M15689 8671 c-25 -25 -29 -37 -29 -84 0 -49 4 -58 41 -100 35 -40 39
-49 29 -68 -17 -30 1 -46 35 -31 27 12 36 57 13 65 -9 3 -7 13 10 35 21 29 29
62 16 62 -3 0 -19 -8 -35 -17 -22 -13 -34 -15 -47 -7 -21 13 -29 89 -11 110
15 18 53 18 69 -1 17 -21 30 -19 30 4 0 23 -45 61 -72 61 -11 0 -33 -13 -49
-29z"/>
<path d="M16089 8684 c-48 -31 -62 -107 -29 -162 40 -66 108 -61 144 11 44 90
-39 199 -115 151z m85 -76 c11 -31 -11 -81 -37 -86 -51 -10 -77 78 -36 119 18
18 23 19 42 6 12 -8 26 -25 31 -39z"/>
<path d="M16574 8690 c-35 -14 -54 -50 -54 -103 0 -86 52 -131 116 -101 20 10
34 24 34 35 0 25 -14 31 -36 14 -25 -19 -49 -19 -65 1 -18 22 5 35 61 31 50
-2 57 8 45 69 -4 24 -15 38 -35 49 -33 17 -36 17 -66 5z m59 -54 c8 -19 -1
-26 -33 -26 -33 0 -43 9 -29 27 15 17 55 17 62 -1z"/>
<path d="M8707 8664 c-22 -22 -27 -36 -27 -79 0 -43 5 -57 27 -79 58 -58 135
-14 137 78 2 91 -79 139 -137 80z m85 -21 c12 -11 18 -30 18 -59 0 -35 -5 -47
-24 -59 -46 -31 -87 22 -70 89 10 43 45 57 76 29z"/>
<path d="M8880 8584 c0 -81 3 -104 14 -104 9 0 15 22 19 81 5 78 14 99 42 99
29 0 38 -21 43 -99 3 -60 8 -81 18 -81 11 0 14 19 14 83 0 74 -3 86 -23 105
-18 17 -34 21 -75 21 l-52 -2 0 -103z"/>
<path d="M9199 8664 c-19 -20 -24 -36 -24 -79 0 -43 5 -59 24 -79 28 -30 66
-34 99 -10 23 16 30 44 12 44 -6 0 -21 -7 -34 -15 -21 -14 -25 -14 -47 4 -32
26 -18 39 46 43 l50 3 -1 43 c-1 49 -22 71 -70 72 -20 0 -39 -9 -55 -26z m75
-10 c9 -3 16 -15 16 -25 0 -15 -7 -19 -34 -19 -41 0 -52 12 -30 34 17 18 24
19 48 10z"/>
<path d="M9365 8682 c-10 -11 -5 -191 6 -198 18 -11 29 17 29 79 0 48 4 62 25
83 14 14 25 29 25 33 0 9 -76 12 -85 3z"/>
<path d="M11907 8675 c-42 -31 -44 -135 -4 -173 17 -16 34 -20 80 -19 l57 1 0
101 0 101 -57 1 c-35 1 -65 -4 -76 -12z m77 -31 c19 -18 22 -94 4 -112 -18
-18 -56 -14 -68 7 -15 28 -12 73 6 99 18 26 37 28 58 6z"/>
<path d="M12106 8671 c-38 -42 -39 -130 0 -172 35 -39 128 -9 110 36 -5 15 -9
14 -32 -4 -14 -11 -32 -17 -40 -14 -22 8 -37 73 -25 106 15 38 37 44 66 17 38
-36 63 -8 25 30 -26 26 -81 26 -104 1z"/>
<path d="M12270 8585 c0 -82 3 -105 14 -105 16 0 26 82 19 158 -4 35 -10 52
-19 52 -11 0 -14 -23 -14 -105z"/>
<path d="M12360 8665 c-20 -21 -24 -37 -24 -80 0 -43 4 -59 24 -80 31 -33 78
-34 109 -1 33 35 33 127 1 161 -32 34 -79 33 -110 0z m81 -24 c26 -21 31 -80
9 -106 -15 -18 -54 -20 -67 -2 -26 32 -20 100 10 119 17 11 22 10 48 -11z"/>
<path d="M12530 8583 c0 -85 3 -103 15 -103 11 0 15 13 15 54 0 99 36 151 72
106 13 -17 18 -40 18 -91 0 -52 3 -69 14 -69 18 0 24 25 21 98 -2 37 -9 72
-19 87 -15 22 -22 25 -76 23 l-60 -2 0 -103z"/>
<path d="M12742 8667 c-18 -19 -22 -36 -22 -83 0 -82 22 -104 102 -102 43 1
58 5 61 17 3 14 2 144 -2 177 0 6 -27 11 -59 12 -50 1 -62 -2 -80 -21z m75
-15 c23 -15 34 -63 23 -98 -10 -28 -16 -34 -41 -34 -23 0 -32 6 -40 27 -23 60
17 131 58 105z"/>
<path d="M13004 8677 c-10 -28 1 -190 14 -195 9 -3 12 22 12 102 0 66 -4 106
-10 106 -6 0 -13 -6 -16 -13z"/>
<path d="M13062 8678 c3 -7 17 -14 31 -16 34 -4 34 -17 -3 -94 -41 -85 -41
-88 26 -88 48 0 55 2 52 18 -2 10 -11 16 -21 14 -30 -5 -29 23 3 92 17 36 29
70 25 76 -9 15 -118 13 -113 -2z"/>
<path d="M13242 8683 c-35 -14 -54 -111 -30 -156 19 -37 40 -46 100 -44 l58 2
0 100 0 100 -58 2 c-31 0 -63 -1 -70 -4z m62 -29 c25 -10 40 -69 24 -101 -15
-31 -50 -42 -74 -23 -19 17 -18 89 3 112 17 20 23 21 47 12z"/>
<path d="M13440 8677 c-20 -16 -40 -62 -40 -92 0 -35 20 -73 59 -112 26 -26
31 -37 23 -45 -11 -11 -17 -48 -8 -48 3 0 16 4 30 10 27 10 36 46 16 66 -7 7
-4 19 10 36 21 27 27 58 11 58 -6 0 -13 -4 -16 -10 -3 -5 -15 -15 -25 -20 -46
-25 -80 67 -44 118 19 27 36 28 59 2 23 -25 35 -26 35 -2 0 43 -74 69 -110 39z"/>
<path d="M13821 8671 c-43 -43 -35 -155 12 -180 65 -35 133 25 124 107 -9 80
-87 122 -136 73z m77 -27 c45 -31 20 -129 -31 -122 -46 7 -60 84 -21 122 19
20 24 20 52 0z"/>
<path d="M15170 8626 c0 -128 23 -160 107 -149 l41 5 6 78 c8 86 1 130 -20
130 -10 0 -14 -14 -14 -47 0 -27 -5 -65 -11 -85 -22 -82 -79 -24 -79 82 0 38
-4 50 -15 50 -12 0 -15 -14 -15 -64z"/>
<path d="M15360 8585 c0 -98 1 -105 20 -105 19 0 20 7 20 105 0 98 -1 105 -20
105 -19 0 -20 -7 -20 -105z"/>
<path d="M15594 8677 c-3 -8 -4 -54 -2 -103 3 -75 6 -89 21 -92 15 -3 17 7 17
102 0 89 -3 106 -15 106 -9 0 -18 -6 -21 -13z"/>
<path d="M11430 8641 c-12 -24 3 -71 23 -71 8 0 19 11 25 25 15 32 15 31 -4
49 -20 21 -31 20 -44 -3z"/>
<path d="M5501 8485 c-26 -30 -31 -44 -31 -89 0 -95 67 -156 138 -127 36 15
54 47 56 98 l1 38 -49 0 c-31 0 -51 -5 -53 -12 -3 -9 7 -13 31 -13 31 0 36 -3
36 -23 0 -33 -28 -67 -55 -67 -34 0 -63 35 -71 86 -12 85 47 139 106 96 51
-38 68 -24 25 22 -37 41 -93 37 -134 -9z"/>
<path d="M5706 8512 c-7 -13 -1 -240 7 -249 13 -12 20 7 25 63 l5 55 46 -3
c45 -3 46 -4 49 -38 4 -53 11 -80 22 -80 6 0 10 52 10 131 0 100 -3 130 -12
127 -7 -3 -14 -24 -16 -49 -4 -51 -13 -59 -61 -53 -44 6 -44 5 -45 55 -1 40
-17 62 -30 41z"/>
<path d="M5948 8493 c-34 -37 -53 -96 -39 -122 6 -11 11 -28 11 -39 0 -27 42
-62 82 -68 27 -5 40 -1 62 18 32 27 60 98 46 112 -14 14 -92 13 -97 -1 -3 -9
6 -13 26 -13 16 0 33 -4 36 -10 11 -17 -24 -69 -52 -76 -22 -6 -31 -1 -55 27
-38 45 -39 109 -3 144 30 31 54 31 89 4 39 -31 58 -10 23 25 -37 37 -94 36
-129 -1z"/>
<path d="M5210 8426 c-6 -8 -10 -25 -8 -38 2 -17 10 -23 28 -23 18 0 26 6 28
23 3 22 -13 52 -28 52 -4 0 -13 -7 -20 -14z"/>
<path d="M15430 8361 c-5 -11 -7 -26 -4 -34 3 -9 6 -71 7 -139 2 -108 4 -123
20 -126 26 -5 33 27 26 135 -3 54 -2 108 3 121 16 46 -29 84 -52 43z"/>
<path d="M15635 8370 c-4 -6 -16 -8 -27 -5 -37 12 -65 -3 -81 -44 -9 -22 -21
-42 -27 -46 -15 -9 -12 -42 5 -49 11 -4 15 -23 15 -80 0 -78 7 -92 40 -81 16
5 20 17 22 83 2 60 6 77 18 77 12 0 16 -17 18 -77 2 -68 5 -78 24 -84 13 -4
24 -1 29 7 9 14 11 258 2 292 -5 19 -28 23 -38 7z m-5 -80 c0 -19 -20 -27 -33
-13 -8 7 11 33 24 33 5 0 9 -9 9 -20z"/>
<path d="M9424 8346 c-3 -8 -1 -23 4 -32 9 -16 11 -15 21 5 12 22 7 41 -10 41
-5 0 -12 -6 -15 -14z"/>
<path d="M10931 8334 c-20 -26 -20 -44 1 -44 15 0 37 31 38 53 0 25 -15 21
-39 -9z"/>
<path d="M11930 8336 c0 -17 5 -26 16 -26 10 0 14 7 12 22 -5 32 -28 35 -28 4z"/>
<path d="M12880 8329 c0 -38 24 -35 28 4 2 19 -1 27 -12 27 -11 0 -16 -10 -16
-31z"/>
<path d="M13087 8353 c-4 -3 -7 -23 -7 -43 0 -46 -4 -50 -40 -37 -87 33 -132
-130 -53 -193 16 -13 33 -18 42 -14 9 4 30 7 46 7 17 0 33 5 37 11 4 6 8 66 8
132 0 90 -4 124 -13 133 -8 6 -17 8 -20 4z m-25 -130 c33 -30 12 -113 -29
-113 -46 0 -70 74 -36 112 20 22 41 23 65 1z"/>
<path d="M13490 8328 c0 -46 -9 -54 -58 -54 -57 1 -81 -29 -82 -99 0 -64 31
-107 75 -106 17 1 44 2 61 2 31 1 31 2 36 57 6 89 -5 225 -19 230 -9 2 -13 -8
-13 -30z m-29 -98 c24 -14 26 -76 2 -102 -34 -38 -77 -12 -77 47 0 55 31 78
75 55z"/>
<path d="M16317 8353 c-4 -3 -7 -21 -7 -39 0 -37 -29 -94 -48 -94 -7 0 -17 11
-24 24 -14 33 -56 50 -90 37 -32 -12 -68 -69 -68 -109 0 -19 13 -47 35 -76 37
-48 43 -74 23 -94 -21 -21 14 -46 48 -35 38 13 52 37 36 64 -11 17 -10 27 8
65 12 24 26 44 31 44 5 0 15 -13 24 -30 8 -16 23 -33 33 -38 13 -7 80 -8 125
-3 4 1 7 21 7 46 0 55 15 58 36 6 40 -101 164 -60 164 54 0 108 -119 151 -163
60 -22 -46 -37 -44 -37 4 0 25 -5 41 -15 45 -9 3 -15 19 -15 41 l0 35 -48 0
c-27 0 -52 -3 -55 -7z m-84 -151 c32 -3 38 -8 35 -26 -2 -17 -12 -22 -52 -28
-59 -8 -66 -5 -66 31 0 34 9 44 29 35 9 -4 33 -9 54 -12z m147 -2 c11 -20 -1
-60 -18 -60 -14 0 -32 23 -32 40 0 17 18 40 32 40 4 0 12 -9 18 -20z m204 -34
c-9 -29 -13 -32 -32 -20 -24 15 -26 39 -6 59 17 16 18 16 31 -1 7 -10 10 -27
7 -38z"/>
<path d="M16855 8348 c-2 -7 -5 -24 -7 -38 -2 -21 -8 -25 -34 -25 -39 -1 -61
-18 -80 -64 -13 -30 -13 -44 -3 -79 16 -58 45 -79 107 -77 60 2 72 9 72 43 0
15 4 34 10 42 7 12 10 11 15 -5 22 -66 55 -92 102 -80 33 8 63 62 63 113 0 54
-12 77 -49 97 -51 26 -93 1 -115 -69 -11 -33 -21 -6 -26 72 -5 70 -7 77 -28
80 -12 2 -24 -3 -27 -10z m175 -133 c0 -8 -7 -15 -15 -15 -16 0 -20 12 -8 23
11 12 23 8 23 -8z m-195 -15 c8 -27 -3 -60 -20 -60 -20 0 -30 47 -15 65 17 20
27 19 35 -5z m195 -55 c0 -8 -4 -15 -10 -15 -5 0 -10 7 -10 15 0 8 5 15 10 15
6 0 10 -7 10 -15z"/>
<path d="M12490 8209 c0 -108 3 -140 13 -137 9 3 13 43 15 141 2 117 0 137
-13 137 -13 0 -15 -21 -15 -141z"/>
<path d="M14829 8338 c-14 -6 -36 -27 -50 -46 -50 -74 -19 -197 57 -222 60
-20 121 26 115 88 -1 17 -28 15 -62 -5 -38 -23 -63 -9 -67 37 -6 63 37 103 68
64 17 -19 64 -14 68 8 4 20 -63 88 -86 87 -9 -1 -29 -6 -43 -11z"/>
<path d="M8517 8313 c-7 -15 -21 -55 -31 -88 -9 -33 -21 -74 -26 -91 -21 -65
-3 -89 25 -34 13 26 21 30 54 30 34 0 40 -4 50 -30 5 -16 15 -30 20 -30 13 0
14 54 2 78 -5 9 -15 37 -21 62 -35 126 -50 148 -73 103z m33 -87 c16 -20 9
-60 -13 -64 -21 -4 -31 19 -23 53 7 28 18 32 36 11z"/>
<path d="M11741 8314 c-76 -64 -57 -213 31 -243 39 -14 73 1 98 41 18 29 18
33 4 36 -9 2 -26 -6 -39 -18 -31 -29 -64 -23 -92 19 -28 42 -29 66 -3 109 16
25 26 32 52 32 18 0 41 -9 54 -21 31 -29 50 -16 28 19 -37 59 -83 68 -133 26z"/>
<path d="M15309 8308 c-15 -35 -11 -34 -104 -25 -19 2 -20 -5 -23 -106 -2 -89
0 -108 13 -113 28 -11 45 15 45 72 0 43 4 56 22 68 38 27 45 20 50 -44 4 -63
16 -83 55 -95 18 -5 25 -1 35 20 10 22 8 28 -10 46 -29 26 -29 73 0 93 23 16
24 12 -18 89 -20 37 -47 35 -65 -5z"/>
<path d="M10183 8293 c-7 -24 -8 -44 -2 -55 5 -9 9 -43 9 -76 0 -63 23 -101
55 -89 21 9 19 24 -5 37 -17 9 -20 21 -20 70 0 50 3 60 20 65 25 8 26 21 1 35
-11 5 -23 19 -26 30 -9 30 -19 25 -32 -17z"/>
<path d="M10765 8294 c-11 -26 -12 -41 -5 -48 5 -5 10 -35 10 -65 0 -66 17
-105 48 -109 28 -4 29 18 2 43 -15 14 -20 31 -20 71 0 44 3 54 20 59 11 3 20
10 20 15 0 5 -9 14 -20 20 -11 6 -20 17 -20 25 0 30 -20 24 -35 -11z"/>
<path d="M15014 8254 c-42 -44 -46 -94 -11 -145 49 -73 112 -59 142 31 21 62
9 102 -39 131 -43 26 -54 24 -92 -17z m76 -44 c0 -5 -9 -10 -20 -10 -11 0 -20
5 -20 10 0 6 9 10 20 10 11 0 20 -4 20 -10z m-5 -59 c7 -12 -12 -24 -25 -16
-11 7 -4 25 10 25 5 0 11 -4 15 -9z"/>
<path d="M15760 8279 c-35 -13 -60 -58 -60 -107 0 -32 7 -48 34 -76 18 -20 43
-36 55 -36 25 0 71 42 71 65 0 26 20 17 41 -20 12 -19 26 -35 32 -36 7 -1 37
-2 67 -2 l55 -2 0 110 0 109 -50 1 c-59 0 -101 -17 -110 -45 -7 -21 -35 -28
-35 -10 0 16 -47 60 -62 59 -7 0 -24 -5 -38 -10z m234 -75 c14 -36 -1 -68 -27
-58 -20 7 -22 45 -5 62 16 16 25 15 32 -4z m-114 -26 c0 -25 -4 -28 -32 -28
-18 0 -43 -3 -54 -6 -24 -6 -38 17 -29 46 4 14 16 17 60 16 53 -1 55 -2 55
-28z"/>
<path d="M8679 8251 c-34 -34 -39 -83 -13 -137 17 -36 41 -47 90 -42 28 3 29
1 32 -44 2 -34 7 -48 18 -48 11 0 14 25 14 140 0 104 -3 142 -12 144 -7 3 -32
7 -56 10 -38 6 -46 3 -73 -23z m92 -27 c7 -9 13 -31 13 -49 0 -40 -19 -65 -49
-65 -27 0 -41 15 -50 53 -14 56 51 103 86 61z"/>
<path d="M9097 8272 c-23 -9 -57 -66 -57 -95 0 -12 10 -40 23 -62 18 -32 29
-41 56 -43 42 -4 71 21 71 63 0 17 5 36 11 42 14 14 -13 78 -39 92 -23 12 -39
13 -65 3z m73 -62 c0 -12 -43 -20 -68 -13 -28 7 -24 24 9 40 19 10 27 9 41 -4
10 -9 18 -19 18 -23z m3 -57 c11 -11 -24 -43 -47 -43 -21 0 -50 33 -39 44 8 8
78 8 86 -1z"/>
<path d="M9285 8270 c-36 -14 -49 -40 -49 -94 0 -67 26 -105 71 -106 22 0 38
8 52 26 12 15 21 31 21 35 0 14 -27 10 -40 -6 -20 -24 -53 -18 -67 12 -19 39
-16 58 11 90 l24 28 24 -22 c45 -43 67 -21 23 22 -25 26 -37 29 -70 15z"/>
<path d="M9531 8271 l-34 -6 -4 -80 c-2 -44 1 -86 6 -94 17 -27 31 1 31 63 0
64 11 86 42 86 25 0 38 -31 38 -89 0 -27 3 -56 6 -65 13 -33 24 -14 24 39 0
66 22 115 51 115 24 0 39 -36 39 -95 0 -50 8 -77 21 -69 5 3 9 39 9 80 0 66
-3 78 -25 99 -29 30 -38 30 -76 8 -22 -13 -32 -15 -37 -6 -10 16 -50 22 -91
14z"/>
<path d="M9849 8273 c-24 -6 -49 -57 -49 -98 0 -21 9 -53 21 -71 17 -27 27
-34 53 -34 35 0 66 25 66 53 0 21 -14 22 -30 2 -16 -20 -56 -19 -64 1 -13 33
-7 37 49 31 51 -5 55 -4 61 18 7 27 -18 80 -45 95 -20 10 -34 11 -62 3z m67
-72 c-13 -21 -76 -10 -76 14 0 6 10 17 23 22 17 9 26 7 41 -7 10 -10 15 -23
12 -29z"/>
<path d="M10022 8273 l-33 -4 3 -96 c2 -66 7 -98 16 -101 9 -3 12 14 12 60 0
64 18 108 43 108 31 -1 41 -21 46 -92 3 -40 11 -73 16 -73 6 0 11 36 13 81 3
78 2 83 -24 103 -15 12 -34 20 -43 19 -9 0 -31 -3 -49 -5z"/>
<path d="M10337 8272 c-26 -11 -57 -63 -57 -98 0 -17 10 -46 23 -65 31 -46 85
-53 116 -14 66 85 8 212 -82 177z m75 -68 c16 -35 -12 -94 -45 -94 -34 0 -47
19 -47 66 0 74 63 93 92 28z"/>
<path d="M10600 8267 c-52 -26 -65 -102 -27 -158 22 -33 26 -34 85 -34 34 0
62 4 62 10 3 65 2 176 -1 179 -13 11 -98 13 -119 3z m72 -44 c22 -20 23 -70 1
-95 -35 -39 -83 -8 -83 53 0 54 43 77 82 42z"/>
<path d="M10898 8253 c-23 -24 -28 -38 -28 -79 0 -118 128 -146 147 -33 14 84
-4 123 -62 134 -24 5 -35 1 -57 -22z m88 -34 c8 -14 -14 -29 -44 -29 -30 0
-40 27 -16 45 19 14 46 7 60 -16z m7 -66 c10 -9 -23 -43 -43 -43 -19 0 -40 19
-40 37 0 14 71 19 83 6z"/>
<path d="M12037 8272 l-38 -3 3 -97 c2 -78 6 -97 18 -97 12 0 16 16 18 70 3
62 6 72 30 92 33 26 22 39 -31 35z"/>
<path d="M12135 8254 c-34 -37 -35 -117 -2 -156 22 -27 33 -31 73 -29 26 1 58
46 49 68 -5 14 -9 13 -28 -6 -40 -37 -71 -23 -83 36 -4 23 0 36 18 57 l23 28
27 -21 c31 -24 48 -27 48 -7 0 21 -49 56 -77 56 -13 0 -35 -12 -48 -26z"/>
<path d="M12427 8274 c-4 -4 -7 -27 -7 -51 0 -55 -23 -113 -46 -113 -29 0 -43
32 -44 98 0 55 -2 63 -17 60 -15 -3 -18 -14 -16 -69 2 -96 29 -140 78 -129 6
1 24 3 40 4 l30 2 3 93 c3 87 -4 121 -21 105z"/>
<path d="M12584 8255 c-19 -19 -24 -34 -24 -77 0 -68 31 -112 76 -109 16 1 42
2 57 2 l28 0 -3 100 -3 101 -53 3 c-46 3 -57 1 -78 -20z m87 -31 c7 -9 13 -31
13 -49 0 -38 -18 -65 -45 -65 -21 0 -49 36 -49 65 0 51 53 83 81 49z"/>
<path d="M13176 8255 c-21 -23 -26 -38 -26 -80 0 -45 5 -58 30 -85 23 -25 34
-30 52 -24 13 4 37 8 53 8 l30 1 3 98 c3 95 2 97 -20 97 -13 0 -40 3 -60 6
-31 6 -40 2 -62 -21z m86 -32 c36 -32 13 -113 -33 -113 -41 0 -64 77 -32 112
20 22 41 23 65 1z"/>
<path d="M13584 8256 c-24 -20 -28 -31 -28 -74 0 -84 43 -133 98 -112 32 12
44 36 52 101 5 49 4 57 -19 82 -32 33 -67 35 -103 3z m70 -22 c30 -12 18 -34
-19 -34 -24 0 -35 5 -35 14 0 21 27 31 54 20z m24 -82 c10 -7 8 -13 -7 -26
-26 -24 -65 -17 -69 12 -3 19 1 22 30 22 18 0 39 -4 46 -8z"/>
<path d="M8860 8199 c0 -56 4 -77 21 -100 19 -28 25 -30 72 -26 l52 4 3 98 c2
75 0 96 -10 93 -8 -3 -15 -29 -18 -66 -6 -68 -25 -98 -58 -88 -24 8 -32 33
-32 104 0 39 -4 52 -15 52 -12 0 -15 -15 -15 -71z"/>
<path d="M9427 8264 c-11 -11 -8 -182 2 -189 19 -11 32 37 29 112 -3 70 -13
95 -31 77z"/>
<path d="M11932 8175 c4 -127 22 -129 26 -2 2 83 0 97 -13 97 -13 0 -15 -14
-13 -95z"/>
<path d="M12768 8186 c-4 -100 -1 -116 18 -116 11 0 14 15 14 64 0 55 4 69 25
92 34 37 32 44 -14 44 l-40 0 -3 -84z"/>
<path d="M12880 8169 c0 -76 3 -100 13 -97 8 3 13 35 15 101 2 82 0 97 -13 97
-12 0 -15 -17 -15 -101z"/>
<path d="M11436 8235 c-20 -20 -20 -35 -2 -60 14 -19 15 -19 35 -1 26 24 26
38 2 60 -17 16 -20 16 -35 1z"/>
<path d="M6081 8166 c-13 -14 -20 -29 -17 -34 3 -5 -2 -16 -11 -23 -21 -18
-43 -71 -43 -106 0 -15 9 -42 20 -60 19 -31 21 -32 85 -31 l65 1 0 98 0 98
-33 -1 c-19 -1 -39 2 -45 6 -17 10 -15 36 3 42 16 6 21 34 7 34 -5 0 -19 -11
-31 -24z m48 -112 c26 -34 27 -68 1 -94 -26 -26 -55 -25 -74 2 -22 31 -20 70
4 96 27 29 44 28 69 -4z"/>
<path d="M6812 8178 c-7 -7 -12 -18 -12 -25 0 -7 -5 -22 -12 -32 -9 -15 -9
-25 0 -46 7 -14 12 -57 12 -95 0 -40 4 -70 10 -70 6 0 10 31 10 72 0 60 4 76
22 95 21 22 21 23 2 44 -18 20 -18 22 -1 34 9 6 17 17 17 24 0 15 -33 14 -48
-1z"/>
<path d="M5504 8134 c-31 -32 -34 -41 -34 -94 0 -52 4 -64 31 -95 26 -30 37
-35 73 -35 31 0 48 6 64 23 42 45 22 63 -28 25 -24 -18 -35 -20 -57 -12 -39
13 -55 49 -49 108 9 79 50 102 109 62 32 -22 47 -24 47 -6 0 4 -12 19 -26 34
-40 39 -87 36 -130 -10z"/>
<path d="M5910 8130 c-10 -24 -10 -37 -1 -56 6 -14 11 -51 11 -82 0 -60 11
-82 42 -82 24 0 23 13 -2 35 -15 13 -20 31 -20 66 0 38 4 52 20 61 11 7 20 18
20 25 0 7 -9 17 -20 23 -11 6 -20 17 -20 25 0 25 -17 16 -30 -15z"/>
<path d="M6378 8138 c-4 -62 4 -186 14 -205 7 -14 20 -23 35 -23 28 0 30 21 3
38 -16 9 -20 23 -20 62 0 39 4 53 20 62 11 7 20 18 20 25 0 7 -9 17 -20 23
-11 6 -20 17 -20 25 0 24 -30 17 -32 -7z"/>
<path d="M5744 8108 c-47 -22 -60 -124 -23 -172 19 -24 26 -26 81 -24 l61 3
-2 90 c-1 50 -5 93 -9 96 -14 12 -87 17 -108 7z m70 -50 c23 -33 21 -95 -3
-108 -11 -5 -26 -10 -35 -10 -45 0 -63 83 -26 120 26 26 45 25 64 -2z"/>
<path d="M6242 8107 c-19 -9 -22 -17 -20 -50 3 -35 8 -43 43 -62 21 -13 41
-28 43 -34 7 -20 -30 -24 -59 -7 -28 16 -29 16 -29 -1 0 -29 20 -43 61 -43 73
0 82 67 14 104 -22 13 -41 30 -43 39 -5 24 25 32 47 13 36 -32 55 -14 24 22
-23 26 -52 33 -81 19z"/>
<path d="M6644 8110 c-51 -20 -69 -136 -28 -181 27 -30 87 -26 113 7 36 46 19
174 -23 174 -8 0 -20 2 -28 4 -7 3 -22 1 -34 -4z m58 -47 c38 -43 29 -107 -17
-119 -56 -14 -88 67 -45 114 25 27 42 28 62 5z"/>
<path d="M6929 8109 c-47 -17 -61 -136 -21 -181 9 -11 29 -18 53 -18 30 0 42
6 55 26 13 19 14 28 5 37 -8 8 -11 8 -11 -1 0 -18 -39 -34 -66 -28 -15 4 -24
14 -24 26 0 16 8 19 58 22 51 3 57 6 60 26 5 36 -20 81 -52 92 -16 5 -29 10
-30 9 -1 0 -13 -5 -27 -10z m59 -41 c7 -7 12 -20 12 -31 0 -15 -6 -18 -37 -15
-41 3 -51 18 -28 42 19 19 37 20 53 4z"/>
<path d="M7103 8110 c-26 -10 -36 -39 -27 -75 4 -18 18 -31 46 -42 26 -10 38
-21 36 -32 -4 -22 -36 -26 -57 -7 -29 26 -43 0 -15 -28 22 -23 77 -20 99 4 25
27 8 64 -40 87 -26 12 -35 23 -33 37 4 26 22 31 41 11 23 -23 40 -19 32 8 -4
12 -10 25 -14 28 -12 13 -46 17 -68 9z"/>
<path d="M6490 8010 c0 -82 3 -100 15 -100 12 0 15 14 15 62 0 50 5 67 25 93
28 38 24 45 -22 45 l-33 0 0 -100z"/>
<path d="M5204 8055 c-9 -36 2 -57 28 -53 26 3 36 41 18 64 -19 22 -39 17 -46
-11z"/>
<path d="M15188 7953 c-22 -11 -28 -21 -28 -46 0 -20 -9 -42 -25 -59 -20 -22
-25 -37 -25 -81 0 -45 4 -57 28 -80 50 -48 144 -25 129 32 -3 11 1 25 9 32 11
9 14 7 14 -13 0 -13 12 -36 28 -51 23 -22 35 -26 90 -26 l62 1 2 106 c3 144 2
162 -11 175 -15 15 -39 -8 -43 -41 -3 -23 -7 -27 -30 -24 -40 5 -67 -14 -88
-61 -19 -42 -26 -39 -32 12 -2 16 -15 31 -42 44 l-39 20 27 19 c27 20 36 59
14 57 -7 -1 -25 -8 -40 -16z m220 -187 c4 -30 -12 -48 -35 -39 -14 5 -18 54
-6 67 15 15 38 -1 41 -28z m-195 -33 c-7 -2 -19 -2 -25 0 -7 3 -2 5 12 5 14 0
19 -2 13 -5z"/>
<path d="M15513 7953 c-16 -6 -17 -40 -2 -45 8 -3 8 -15 -1 -43 -6 -22 -10
-76 -8 -120 3 -78 4 -80 29 -83 l26 -3 6 97 c3 53 2 106 -2 117 -5 13 -4 29 2
39 19 29 -14 56 -50 41z"/>
<path d="M8456 7913 c5 -10 10 -65 12 -123 3 -125 6 -137 27 -120 13 11 15 36
13 134 l-3 121 -29 3 c-25 3 -28 1 -20 -15z"/>
<path d="M8617 7923 c-11 -10 -8 -116 3 -133 8 -12 13 -13 30 -2 48 29 87 -1
75 -59 -5 -24 -12 -29 -35 -29 -15 0 -33 7 -40 15 -15 19 -30 19 -30 2 0 -21
44 -57 69 -57 12 0 33 11 46 25 54 53 16 171 -53 163 -23 -3 -27 1 -30 25 -3
25 -1 27 32 27 40 0 66 8 66 21 0 10 -123 12 -133 2z"/>
<path d="M14807 7912 c-36 -22 -61 -89 -54 -144 4 -32 15 -51 41 -75 48 -44
95 -45 138 -3 16 17 28 36 26 43 -7 19 -44 20 -73 1 -24 -16 -27 -16 -45 1
-34 30 -22 125 16 125 8 0 28 -10 44 -22 24 -17 32 -19 45 -8 22 19 19 38 -14
71 -34 34 -80 38 -124 11z"/>
<path d="M15598 7886 c-20 -43 -21 -47 -6 -83 9 -21 17 -56 17 -78 2 -46 23
-67 61 -63 33 4 40 42 11 60 -27 16 -27 59 -1 83 25 23 26 49 2 72 -11 10 -22
26 -25 36 -11 30 -37 18 -59 -27z"/>
<path d="M16140 7913 c0 -4 4 -20 10 -37 5 -17 21 -70 35 -118 20 -70 30 -88
44 -88 10 0 23 6 28 13 10 13 31 79 44 137 4 19 12 50 17 68 9 28 8 32 -8 32
-11 0 -20 -10 -23 -27 -23 -115 -40 -157 -60 -150 -7 2 -15 19 -19 38 -17 85
-25 116 -32 127 -8 13 -36 17 -36 5z"/>
<path d="M16370 7795 l0 -125 55 0 c41 0 55 4 55 14 0 9 -12 16 -32 18 -28 3
-34 7 -36 32 -4 30 10 51 33 51 8 0 15 5 15 10 0 9 -4 11 -38 14 -9 1 -12 13
-10 39 3 34 6 37 36 40 20 2 32 9 32 18 0 10 -14 14 -55 14 l-55 0 0 -125z"/>
<path d="M16538 7823 c-4 -118 0 -153 18 -153 8 0 14 15 16 42 4 57 23 58 47
4 11 -26 27 -46 35 -46 20 0 20 4 -1 47 -15 33 -15 37 0 63 42 71 8 140 -69
140 l-42 0 -4 -97z m83 57 c12 -7 19 -21 19 -38 0 -38 -13 -54 -41 -50 -19 2
-25 10 -27 36 -6 59 8 73 49 52z"/>
<path d="M16730 7795 l0 -125 35 0 c37 0 80 15 108 38 22 19 24 137 2 166 -21
28 -63 46 -106 46 l-39 0 0 -125z m104 70 c20 -19 26 -33 26 -67 -1 -51 -16
-74 -54 -84 -38 -9 -46 6 -46 87 0 90 23 111 74 64z"/>
<path d="M16950 7795 l0 -125 50 0 c38 0 50 4 50 15 0 9 -9 15 -22 15 -36 0
-50 15 -46 46 2 23 9 30 32 34 33 5 38 24 7 26 -30 2 -41 13 -41 44 0 24 5 31
28 36 46 10 53 14 47 24 -3 5 -28 10 -56 10 l-49 0 0 -125z"/>
<path d="M8924 7868 c-31 -15 -48 -52 -48 -108 0 -39 5 -55 25 -76 20 -22 30
-25 62 -20 34 6 37 4 37 -19 0 -13 -8 -29 -18 -34 -20 -11 -62 -4 -62 10 0 5
-9 9 -20 9 -11 0 -20 -5 -20 -11 0 -17 60 -69 80 -69 25 0 67 45 74 81 8 43 7
212 -2 224 -4 6 -18 11 -32 11 -14 0 -32 3 -40 7 -8 3 -25 1 -36 -5z m66 -57
c11 -22 13 -71 4 -95 -4 -10 -18 -16 -39 -16 -27 0 -35 5 -45 31 -11 26 -10
36 3 65 19 39 59 47 77 15z"/>
<path d="M9239 7867 c-52 -27 -71 -123 -33 -174 19 -25 27 -28 83 -28 l61 0 0
103 0 102 -24 -6 c-13 -3 -33 -1 -43 5 -14 7 -26 6 -44 -2z m65 -59 c33 -47
13 -108 -34 -108 -32 0 -50 22 -50 62 0 32 27 68 50 68 10 0 26 -10 34 -22z"/>
<path d="M9622 7869 c-12 -5 -27 -21 -33 -36 -13 -36 4 -67 51 -91 41 -21 44
-36 8 -40 -16 -2 -28 1 -28 7 0 6 -9 11 -20 11 -25 0 -25 -8 -1 -37 36 -43
111 -19 111 35 0 21 -37 57 -71 67 -10 4 -19 13 -19 21 0 23 29 28 50 9 24
-22 35 -15 26 18 -7 30 -43 47 -74 36z"/>
<path d="M14995 7857 c-3 -12 -5 -60 -3 -107 3 -83 4 -85 28 -85 23 0 25 5 30
52 4 35 13 60 28 76 16 17 22 34 20 53 -3 25 -7 28 -50 30 -42 3 -49 0 -53
-19z"/>
<path d="M15753 7865 c-48 -34 -54 -136 -12 -181 28 -30 88 -33 113 -5 80 88
-8 251 -101 186z m62 -105 c0 -39 -19 -50 -35 -21 -8 15 -8 27 0 42 16 29 35
18 35 -21z"/>
<path d="M15932 7863 c-33 -30 -36 -67 -6 -102 24 -29 25 -31 5 -31 -31 0 -35
-19 -10 -46 30 -32 91 -34 113 -2 20 28 20 45 2 81 -8 15 -11 27 -5 27 5 0 9
13 9 29 0 53 -67 80 -108 44z"/>
<path d="M9084 7846 c-3 -12 -4 -57 -2 -101 2 -63 6 -80 18 -80 11 0 16 17 20
72 4 52 10 76 22 85 32 24 26 41 -15 43 -30 1 -38 -2 -43 -19z"/>
<path d="M9400 7788 c1 -111 13 -129 90 -125 l55 2 3 94 c3 88 -6 126 -25 107
-5 -4 -10 -42 -13 -84 l-5 -77 -31 -3 c-36 -4 -44 12 -44 90 0 51 -7 78 -21
78 -5 0 -9 -37 -9 -82z"/>
<path d="M5786 7821 c-8 -13 4 -42 15 -35 12 7 12 44 0 44 -6 0 -12 -4 -15 -9z"/>
<path d="M6227 7804 c-11 -14 -16 -28 -13 -31 9 -9 56 26 56 42 0 23 -23 17
-43 -11z"/>
<path d="M6474 7819 c-3 -6 1 -18 10 -27 15 -15 16 -14 16 11 0 27 -13 36 -26
16z"/>
<path d="M5704 7807 c-2 -7 -3 -67 -2 -132 2 -84 7 -120 16 -123 9 -3 12 28
12 132 0 87 -4 136 -10 136 -6 0 -13 -6 -16 -13z"/>
<path d="M5533 7795 c-121 -52 -53 -292 70 -246 23 9 57 51 57 71 0 18 -26 11
-50 -15 -28 -29 -47 -31 -76 -7 -47 39 -42 137 7 166 32 19 29 20 95 -29 20
-15 29 2 14 30 -7 13 -26 29 -43 35 -37 12 -35 12 -74 -5z"/>
<path d="M6374 7783 c-3 -10 -10 -26 -15 -35 -5 -11 -5 -19 1 -23 6 -3 10 -34
10 -68 0 -81 7 -104 33 -111 34 -9 44 11 19 37 -32 34 -31 118 0 139 l22 15
-22 12 c-12 6 -22 18 -22 26 0 22 -20 28 -26 8z"/>
<path d="M5784 7737 c-10 -28 1 -180 14 -185 9 -3 12 20 12 92 0 86 -12 129
-26 93z"/>
<path d="M5856 7740 c-2 -3 -3 -45 -2 -94 1 -62 5 -91 14 -93 8 -3 12 9 12 40
0 98 25 141 70 117 16 -8 20 -23 22 -82 4 -96 24 -102 30 -8 4 77 21 107 56
96 24 -8 32 -33 32 -108 0 -45 3 -58 15 -58 22 0 21 141 -1 175 -19 29 -74 35
-94 10 -10 -12 -15 -12 -34 0 -21 14 -114 18 -120 5z"/>
<path d="M6186 7732 c-33 -37 -39 -78 -20 -128 20 -53 41 -64 107 -57 l47 6 0
96 0 96 -59 2 c-45 2 -62 -2 -75 -15z m88 -34 c21 -29 20 -53 -1 -89 -20 -33
-38 -36 -65 -12 -25 22 -25 98 0 112 27 16 50 13 66 -11z"/>
<path d="M6483 7742 c-13 -8 -14 -175 0 -188 15 -15 18 5 15 99 -2 72 -6 94
-15 89z"/>
<path d="M6574 7735 c-48 -33 -34 -170 18 -187 40 -14 82 9 86 47 l4 30 -24
-22 c-31 -29 -53 -29 -72 -1 -43 61 18 158 64 103 14 -17 40 -20 40 -5 0 20
-41 50 -68 50 -15 0 -37 -7 -48 -15z"/>
<path d="M6758 7739 c-40 -23 -41 -147 -2 -180 13 -11 24 -12 97 -9 l38 2 -3
95 -3 95 -55 4 c-30 2 -63 -1 -72 -7z m75 -31 c28 -22 32 -69 7 -101 -26 -33
-37 -34 -67 -5 -29 27 -30 71 -3 98 23 23 39 25 63 8z"/>
<path d="M6946 7734 c-30 -30 -14 -74 33 -94 32 -13 47 -38 32 -53 -11 -11
-51 0 -51 14 0 5 -7 9 -15 9 -22 0 -18 -27 6 -51 16 -16 28 -20 52 -15 36 7
47 20 47 58 0 31 -16 50 -59 68 -17 7 -31 19 -31 27 0 22 28 27 56 8 33 -21
41 -13 20 20 -19 29 -65 34 -90 9z"/>
<path d="M8553 7698 c-6 -7 -13 -28 -16 -45 -5 -25 -3 -33 8 -33 8 0 15 7 15
15 0 8 6 24 12 35 15 24 -2 49 -19 28z"/>
<path d="M1757 6623 c-4 -3 -7 -19 -7 -35 0 -15 -4 -36 -10 -46 -16 -29 -60
-169 -60 -191 0 -12 -4 -29 -9 -39 -17 -31 -61 -157 -61 -174 0 -9 -4 -20 -10
-23 -5 -3 -10 -19 -10 -35 0 -16 -4 -32 -10 -35 -5 -3 -10 -19 -10 -35 0 -16
-4 -32 -10 -35 -5 -3 -10 -17 -10 -30 0 -13 -4 -26 -8 -29 -5 -3 -14 -30 -21
-61 -11 -50 -10 -62 10 -127 12 -40 26 -77 31 -83 4 -5 8 -24 8 -41 0 -18 5
-36 10 -39 6 -3 10 -17 10 -30 0 -13 4 -26 9 -29 5 -3 11 -18 14 -33 5 -30 44
-147 58 -175 5 -10 9 -25 9 -33 0 -15 44 -159 61 -200 5 -11 10 -33 11 -50 l3
-30 1557 -3 1556 -2 -18 52 c-10 29 -25 80 -35 113 -9 33 -25 85 -35 115 -10
30 -27 84 -38 120 -11 36 -43 139 -72 229 -64 199 -64 207 13 441 67 206 136
428 173 563 5 16 -73 17 -1544 17 -852 0 -1552 -3 -1555 -7z m1337 -598 c20
-15 24 -47 12 -82 -6 -18 -4 -22 8 -17 9 3 16 16 16 28 1 11 9 31 19 44 15 17
30 22 70 22 28 0 51 5 51 10 0 15 42 12 63 -5 14 -10 18 -25 17 -57 -2 -24 -2
-59 -1 -78 l1 -34 17 24 c31 45 41 50 96 50 49 0 58 -3 81 -31 l26 -31 26 32
26 31 92 -3 91 -3 5 -28 5 -29 23 31 c19 27 29 31 67 31 43 0 45 2 45 28 0 33
30 62 64 62 31 0 36 -15 36 -118 1 -86 1 -86 14 -49 23 64 41 77 109 77 62 0
76 -9 114 -74 17 -29 16 -111 -1 -144 -24 -46 -75 -82 -116 -82 -41 0 -95 44
-108 89 -6 21 -8 16 -12 -29 l-5 -55 -81 -2 c-87 -2 -100 3 -137 57 l-17 24 0
-31 c0 -17 -6 -35 -12 -41 -7 -5 -47 -10 -89 -10 -66 0 -79 2 -101 23 -14 13
-28 29 -30 36 -2 6 -19 -4 -40 -25 -57 -57 -121 -48 -171 24 l-17 24 0 -37 c0
-30 -4 -38 -24 -43 -13 -3 -35 -4 -47 -2 -23 3 -24 7 -27 93 -4 122 -22 137
-22 18 0 -102 -8 -116 -62 -111 l-33 3 -3 93 c-4 118 -22 121 -22 3 0 -72 -3
-90 -16 -95 -29 -11 -65 -6 -71 10 -5 15 -7 15 -15 0 -14 -25 -69 -20 -101 9
-24 23 -27 33 -27 85 0 56 -2 60 -22 60 -40 0 -47 -13 -50 -90 -3 -70 -5 -75
-27 -78 -48 -7 -71 6 -71 40 l0 32 -35 -37 c-29 -30 -42 -37 -74 -37 -43 0
-93 37 -110 81 l-9 24 -10 -27 c-24 -60 -137 -101 -176 -63 -8 8 -19 15 -25
15 -6 0 -11 4 -11 8 0 5 -11 21 -24 37 -58 67 -28 247 46 271 10 3 18 10 18
15 0 5 21 9 46 9 56 0 109 -37 134 -93 l18 -39 21 31 c21 29 27 31 81 31 52 0
62 -3 76 -25 17 -26 40 -35 31 -11 -10 26 17 36 95 36 76 0 78 1 78 25 0 28
29 48 63 43 17 -2 23 -11 25 -34 2 -24 9 -33 26 -36 22 -4 23 -2 18 34 -8 61
38 96 82 63z"/>
<path d="M3240 5929 c0 -5 5 -7 10 -4 6 3 10 8 10 11 0 2 -4 4 -10 4 -5 0 -10
-5 -10 -11z"/>
<path d="M2328 5869 c-21 -12 -25 -88 -6 -107 14 -14 48 -16 48 -2 0 5 11 17
25 26 21 13 31 15 50 6 25 -12 23 -14 42 51 5 18 4 18 -21 2 -28 -19 -58 -13
-90 16 -23 22 -25 22 -48 8z"/>
<path d="M2970 5786 c0 -25 5 -35 20 -39 17 -4 20 0 20 34 0 32 -3 39 -20 39
-16 0 -20 -7 -20 -34z"/>
<path d="M3457 5803 c-13 -13 -7 -53 8 -53 8 0 15 5 15 10 0 6 18 10 40 10 22
0 40 5 40 10 0 6 -17 10 -38 10 -21 0 -43 5 -48 10 -6 6 -13 7 -17 3z"/>
<path d="M3917 5798 c-5 -17 3 -48 13 -48 10 0 18 31 13 48 -3 6 -8 12 -13 12
-5 0 -10 -6 -13 -12z"/>
<path d="M3670 5775 c0 -16 6 -25 15 -25 9 0 15 9 15 25 0 16 -6 25 -15 25 -9
0 -15 -9 -15 -25z"/>
<path d="M4156 5791 c-9 -14 4 -41 20 -41 8 0 14 10 14 25 0 25 -23 35 -34 16z"/>
<path d="M17397 5222 c-24 -26 -22 -62 2 -62 11 0 23 5 26 10 10 16 43 12 53
-6 13 -24 43 -13 69 25 28 41 18 61 -22 43 -18 -8 -32 -9 -45 -2 -29 15 -65
12 -83 -8z"/>
<path d="M15010 5126 c-82 -29 -134 -155 -110 -263 20 -95 51 -130 132 -154
104 -29 208 78 208 215 0 85 -62 185 -127 204 -48 14 -58 14 -103 -2z m107
-120 c24 -21 28 -31 28 -83 0 -68 -21 -109 -60 -119 -47 -12 -75 3 -95 52 -25
58 -25 77 2 125 30 55 79 64 125 25z"/>
<path d="M15848 5128 c-39 -10 -82 -56 -106 -111 -16 -38 -15 -167 2 -208 44
-105 177 -135 259 -58 32 29 45 65 48 126 l3 58 -88 3 -87 3 3 -33 c3 -30 6
-33 42 -38 47 -6 55 -21 26 -50 -33 -33 -88 -24 -117 19 -65 96 7 222 99 176
28 -14 118 -22 118 -10 0 7 -40 78 -53 94 -24 29 -97 43 -149 29z"/>
<path d="M17063 5127 c-38 -14 -85 -67 -101 -116 -34 -99 -1 -233 69 -278 53
-35 59 -42 59 -69 0 -13 7 -27 15 -30 24 -10 17 -22 -12 -26 -24 -3 -28 -8
-28 -33 0 -30 0 -30 54 -28 31 2 58 8 63 15 27 41 20 103 -12 113 -29 9 -25
20 22 52 42 28 76 74 77 104 1 12 -10 18 -36 21 -29 4 -42 0 -58 -18 -64 -69
-145 -18 -145 89 0 36 6 51 30 77 26 28 35 32 62 26 18 -3 42 -15 53 -26 22
-20 95 -29 95 -11 0 18 -30 77 -52 102 -13 15 -41 32 -63 38 -47 13 -51 13
-92 -2z"/>
<path d="M17460 5133 c-33 -4 -37 -7 -49 -51 -7 -26 -16 -56 -21 -67 -13 -31
-36 -114 -50 -180 -7 -33 -17 -64 -22 -69 -4 -6 -8 -20 -8 -33 0 -20 5 -23 39
-23 33 0 40 4 45 25 8 33 38 47 89 43 37 -3 44 -7 56 -35 13 -30 19 -33 58
-33 48 0 49 3 29 57 -7 21 -19 58 -26 83 -7 25 -16 56 -20 70 -4 14 -18 59
-30 100 -26 93 -37 120 -47 118 -5 -1 -24 -3 -43 -5z m33 -194 c14 -62 14 -64
-20 -67 -37 -4 -38 -1 -22 64 13 51 30 53 42 3z"/>
<path d="M17785 5128 c-43 -15 -59 -31 -88 -93 -56 -112 -24 -265 63 -309 51
-25 86 -28 126 -11 76 32 111 81 120 172 8 72 -6 126 -47 181 -46 63 -106 84
-174 60z m110 -124 c31 -33 34 -105 8 -159 -43 -89 -153 -37 -153 72 0 45 26
100 50 107 42 11 72 5 95 -20z"/>
<path d="M15287 5123 c-4 -3 -7 -98 -7 -210 l0 -203 40 0 40 0 0 64 c0 36 4
67 9 70 12 8 33 -21 61 -81 23 -52 24 -53 67 -53 24 0 43 3 43 8 0 4 -11 28
-24 54 -40 79 -41 95 -6 134 24 28 30 43 30 82 0 63 -35 125 -75 133 -41 9
-170 11 -178 2z m153 -103 c24 -24 25 -38 3 -62 -30 -33 -83 -17 -83 25 0 53
43 74 80 37z"/>
<path d="M15601 5112 c-11 -21 -14 -371 -3 -388 4 -7 21 -14 37 -15 l30 -4 3
213 2 212 -29 0 c-19 0 -34 -7 -40 -18z"/>
<path d="M16112 4918 l3 -213 30 4 c17 1 33 8 37 15 4 6 8 94 8 197 0 200 -2
209 -52 209 l-28 0 2 -212z"/>
<path d="M16250 4920 l0 -210 34 0 c43 0 47 11 45 117 -2 125 6 125 72 -6 53
-107 67 -121 110 -112 l34 7 0 204 0 205 -37 3 -38 3 0 -105 c0 -58 -4 -107
-9 -110 -13 -8 -35 21 -79 107 -52 100 -58 107 -98 107 l-34 0 0 -210z"/>
<path d="M16691 5083 c-7 -26 -24 -86 -37 -133 -14 -47 -29 -103 -35 -125 -6
-22 -15 -50 -20 -63 -17 -43 -12 -52 30 -52 34 0 40 4 49 29 8 23 19 31 45 36
59 11 97 -2 104 -36 5 -27 9 -29 48 -29 l43 0 -8 33 c-15 61 -40 148 -64 225
-13 42 -27 95 -32 117 -9 40 -9 40 -59 43 l-50 3 -14 -48z m84 -149 c19 -51
12 -68 -26 -62 -20 2 -24 8 -22 33 3 44 12 75 22 75 4 0 16 -21 26 -46z"/>
<path d="M11750 4666 l0 -136 24 6 c13 3 34 1 45 -6 17 -9 27 -7 51 7 54 32
66 115 24 171 -26 34 -37 36 -94 21 -10 -3 -16 6 -20 30 -3 19 -11 36 -17 39
-10 3 -13 -28 -13 -132z m130 3 c10 -24 10 -37 -2 -67 -12 -31 -18 -37 -43
-37 -38 0 -60 40 -50 91 11 59 73 67 95 13z"/>
<path d="M11434 4775 c-4 -9 -4 -57 -2 -106 5 -75 9 -94 28 -114 29 -31 52
-36 89 -18 22 11 34 26 41 54 14 53 9 191 -7 197 -10 3 -13 -17 -13 -77 0
-123 -28 -174 -80 -141 -11 7 -16 36 -20 111 -3 69 -9 104 -17 107 -7 2 -16
-4 -19 -13z"/>
<path d="M11640 4632 c0 -79 3 -103 13 -100 7 3 14 32 17 78 4 61 9 75 28 88
34 23 27 38 -18 37 l-40 0 0 -103z"/>
<path d="M11975 4715 c-21 -20 -25 -34 -25 -82 0 -67 5 -76 44 -97 22 -11 35
-12 49 -5 10 6 29 8 42 5 23 -6 24 -5 27 85 3 99 -4 128 -28 108 -11 -9 -18
-9 -26 -1 -19 19 -57 14 -83 -13z m97 -41 c13 -27 3 -88 -17 -104 -40 -34 -97
36 -76 93 19 49 73 56 93 11z"/>
<path d="M12160 4633 c0 -57 4 -103 9 -103 14 0 21 28 21 88 0 70 9 85 46 80
33 -3 41 -25 43 -116 1 -38 5 -52 14 -49 8 3 12 29 11 86 -1 103 -12 116 -89
116 l-55 0 0 -102z"/>
<path d="M12367 4712 c-67 -70 -6 -214 78 -182 45 17 70 112 43 163 -28 54
-80 62 -121 19z m81 -18 c43 -30 21 -134 -29 -134 -45 0 -66 93 -29 130 24 24
29 24 58 4z"/>
<path d="M12558 4726 c-11 -8 -18 -26 -18 -44 0 -27 6 -35 40 -52 30 -16 40
-26 40 -45 0 -29 -30 -35 -50 -10 -17 20 -30 19 -30 -4 0 -21 15 -35 47 -45
34 -11 76 34 67 71 -9 37 -21 51 -46 55 -12 2 -26 11 -32 21 -16 26 12 41 41
22 28 -18 33 -19 33 -2 0 20 -33 47 -56 47 -10 0 -27 -7 -36 -14z"/>
<path d="M11164 4686 c-11 -29 0 -51 26 -51 21 0 25 5 25 30 0 24 -5 31 -23
33 -13 2 -24 -3 -28 -12z"/>
<path d="M5732 4383 c3 -117 5 -137 18 -134 18 4 27 4 61 -4 19 -5 33 0 55 18
26 22 29 31 29 85 0 82 -21 106 -87 100 l-47 -5 -3 35 c-2 20 -9 37 -16 40
-10 3 -12 -26 -10 -135z m112 15 c9 -12 16 -36 16 -53 0 -32 -24 -75 -41 -75
-18 0 -59 52 -59 75 0 26 36 75 55 75 8 0 21 -10 29 -22z"/>
<path d="M5930 4506 c0 -21 21 -31 30 -15 5 7 6 17 4 21 -9 14 -34 9 -34 -6z"/>
<path d="M6010 4386 c0 -115 2 -136 15 -136 13 0 15 19 13 132 -2 94 -7 133
-15 136 -10 3 -13 -28 -13 -132z"/>
<path d="M6080 4500 c0 -23 25 -27 33 -6 7 16 -1 26 -20 26 -7 0 -13 -9 -13
-20z"/>
<path d="M6285 4508 c-2 -7 -5 -24 -7 -38 -3 -22 -7 -24 -44 -22 -61 5 -84
-23 -84 -100 0 -49 4 -63 24 -83 21 -21 31 -23 78 -20 29 2 57 4 61 5 14 0 4
263 -10 268 -7 2 -15 -2 -18 -10z m-21 -110 c24 -33 20 -81 -7 -107 -28 -26
-54 -20 -68 16 -20 53 2 113 41 113 10 0 26 -10 34 -22z"/>
<path d="M6690 4486 l0 -36 -48 0 c-69 0 -87 -22 -87 -106 0 -84 14 -98 96
-99 33 0 64 5 68 10 4 6 7 66 7 135 -1 110 -3 125 -18 128 -15 3 -18 -4 -18
-32z m-18 -97 c26 -34 17 -83 -19 -106 -25 -16 -26 -16 -44 6 -24 29 -25 88
-2 113 21 24 41 20 65 -13z"/>
<path d="M5287 4493 c-9 -8 -9 -238 0 -246 16 -17 30 16 25 63 -6 61 7 64 32
7 28 -65 31 -70 41 -70 11 0 24 24 52 91 13 33 19 39 26 27 5 -9 7 -37 5 -63
-2 -38 0 -47 15 -50 15 -3 17 8 17 123 0 122 -1 126 -21 123 -15 -2 -28 -22
-50 -78 -16 -41 -29 -81 -29 -88 0 -8 -5 -12 -11 -10 -10 3 -38 72 -60 146 -9
30 -27 41 -42 25z"/>
<path d="M5554 4429 c-27 -30 -27 -138 0 -165 28 -28 93 -25 117 5 24 30 26
121 3 156 -22 33 -91 36 -120 4z m90 -31 c22 -31 20 -84 -4 -108 -26 -26 -34
-25 -59 6 -24 30 -26 55 -10 87 23 43 50 48 73 15z"/>
<path d="M5934 4437 c-9 -24 1 -187 11 -190 6 -1 11 39 13 101 2 67 -1 102 -8
102 -6 0 -13 -6 -16 -13z"/>
<path d="M6080 4351 c0 -55 4 -102 9 -105 22 -14 32 25 29 110 -3 75 -6 89
-20 92 -16 3 -18 -7 -18 -97z"/>
<path d="M6365 4420 c-31 -60 -10 -161 36 -173 12 -3 43 -3 70 0 l49 6 0 97 0
98 -70 1 c-67 1 -70 0 -85 -29z m97 -17 c25 -22 24 -83 -2 -111 -27 -28 -34
-28 -60 5 -25 33 -22 90 7 110 22 17 33 16 55 -4z"/>
<path d="M6777 4432 c-12 -13 -17 -37 -17 -84 0 -76 19 -102 76 -102 47 0 63
20 70 90 9 83 -10 114 -71 114 -28 0 -47 -6 -58 -18z m82 -21 c8 -5 11 -16 7
-26 -5 -13 -13 -15 -34 -10 -35 9 -37 12 -22 30 14 17 29 19 49 6z m16 -100
c3 -5 -4 -16 -16 -25 -25 -17 -59 -6 -59 19 0 17 65 22 75 6z"/>
<path d="M5010 4404 c-17 -20 -2 -67 23 -72 20 -4 38 36 30 67 -6 25 -35 28
-53 5z"/>
<path d="M11620 4379 c0 -24 23 -21 28 4 2 10 -3 17 -12 17 -10 0 -16 -9 -16
-21z"/>
<path d="M11445 4373 c-11 -11 -15 -41 -15 -123 0 -100 2 -110 21 -120 25 -14
94 -4 114 17 18 18 20 74 3 91 -10 10 -10 17 0 32 17 28 15 64 -5 88 -23 26
-98 36 -118 15z m89 -45 c21 -30 4 -58 -34 -58 -27 0 -30 3 -30 33 0 19 3 37
7 40 13 14 42 6 57 -15z m-10 -98 c31 -11 34 -40 7 -64 -28 -25 -55 -17 -59
17 -6 54 6 65 52 47z"/>
<path d="M2457 4302 c-10 -10 -17 -25 -17 -34 0 -8 -11 -25 -25 -38 -14 -13
-25 -30 -25 -37 0 -12 -11 -13 -54 -8 -59 8 -99 0 -93 -18 2 -7 19 -14 37 -17
43 -6 47 -21 17 -55 -29 -35 -64 -29 -90 14 -27 46 -23 105 9 130 34 26 54 26
88 0 23 -18 46 -19 46 -1 0 4 -11 20 -25 35 -46 49 -126 32 -160 -33 -47 -91
25 -227 108 -206 34 8 77 45 77 65 0 10 3 21 7 24 9 10 33 -13 33 -33 0 -34
38 -55 100 -55 l58 -1 4 61 c3 33 4 78 3 100 -2 39 -3 40 -43 46 -55 7 -60 15
-28 40 26 20 27 39 2 39 -7 0 -20 -8 -29 -18z m33 -102 c26 -14 33 -54 16 -95
-18 -42 -46 -46 -70 -10 -21 31 -20 73 1 97 18 21 27 22 53 8z"/>
<path d="M4043 4304 c-8 -21 13 -42 28 -27 13 13 5 43 -11 43 -6 0 -13 -7 -17
-16z"/>
<path d="M11620 4226 c0 -80 3 -96 15 -96 13 0 15 15 13 92 -2 62 -7 93 -15
96 -10 3 -13 -20 -13 -92z"/>
<path d="M11711 4293 c-32 -39 -36 -69 -16 -113 22 -48 59 -67 99 -49 51 24
70 93 41 148 -25 50 -91 57 -124 14z m93 -25 c22 -31 20 -68 -6 -95 -26 -27
-35 -28 -60 -6 -25 22 -25 98 0 112 27 16 50 13 66 -11z"/>
<path d="M11890 4223 c0 -71 3 -94 13 -91 7 3 13 29 15 71 2 54 7 69 22 77 14
8 26 8 40 0 15 -8 20 -23 22 -77 2 -42 8 -68 16 -71 8 -2 12 12 12 50 0 86 36
131 74 93 10 -11 16 -34 16 -65 0 -53 7 -80 21 -80 16 0 10 143 -7 168 -17 24
-71 31 -92 10 -9 -9 -17 -9 -34 0 -13 6 -44 11 -70 10 l-48 -1 0 -94z"/>
<path d="M12216 4302 c-32 -37 -40 -80 -21 -122 18 -40 63 -68 87 -54 7 4 25
7 40 6 l28 -2 0 92 0 93 -59 2 c-45 2 -62 -2 -75 -15z m86 -29 c35 -32 11
-123 -34 -123 -26 0 -48 34 -48 73 0 59 43 86 82 50z"/>
<path d="M12413 4308 c-29 -38 -16 -75 37 -101 14 -7 26 -20 28 -30 5 -24 -25
-33 -47 -13 -23 21 -31 20 -31 -4 0 -29 45 -45 82 -29 25 10 29 16 26 47 -2
29 -9 38 -40 55 -21 10 -38 25 -38 33 0 22 29 28 49 10 22 -20 31 -20 31 -2 0
38 -74 63 -97 34z"/>
<path d="M12560 4299 c-18 -32 -4 -63 37 -85 21 -11 39 -28 41 -37 5 -24 -25
-33 -47 -13 -20 18 -41 21 -41 6 0 -16 39 -50 58 -50 28 0 62 29 62 53 0 32
-11 44 -54 62 -25 11 -36 21 -34 33 5 24 36 27 59 6 18 -16 19 -16 19 2 0 29
-20 44 -57 44 -23 0 -36 -6 -43 -21z"/>
<path d="M12742 4313 c-18 -7 -42 -58 -42 -90 0 -59 72 -125 103 -94 5 5 23 7
39 4 l29 -6 -3 93 -3 94 -55 2 c-30 1 -61 0 -68 -3z m79 -39 c29 -35 3 -124
-37 -124 -18 0 -54 49 -54 74 0 53 60 87 91 50z"/>
<path d="M3325 4299 c-49 -13 -80 -64 -80 -129 1 -88 45 -140 118 -140 29 0
77 49 77 77 0 31 -16 29 -47 -8 -32 -38 -60 -35 -90 10 -31 45 -30 95 2 126
29 30 48 31 89 6 46 -29 63 -13 28 26 -31 35 -54 43 -97 32z"/>
<path d="M3697 4300 c-37 -11 -73 -54 -80 -94 -8 -48 8 -114 33 -141 55 -58
159 -30 160 43 0 31 -22 27 -49 -9 -27 -37 -55 -36 -84 3 -29 38 -27 116 3
140 29 24 63 23 85 -2 19 -21 40 -26 49 -12 7 12 -45 70 -69 75 -11 3 -33 1
-48 -3z"/>
<path d="M2917 4283 c-7 -26 -2 -241 5 -249 14 -13 28 9 28 44 0 35 14 72 23
62 3 -3 16 -29 31 -57 14 -29 33 -53 41 -53 19 0 19 14 -2 71 -16 46 -16 48 5
74 29 36 28 70 -3 100 -31 32 -121 37 -128 8z m98 -39 c14 -14 14 -19 2 -38
-18 -26 -55 -33 -63 -12 -19 49 25 85 61 50z"/>
<path d="M3100 4165 l0 -136 58 3 c43 2 57 7 57 18 0 10 -13 17 -35 20 -32 5
-35 8 -38 43 -3 35 -2 37 26 37 32 0 47 21 29 39 -6 6 -22 11 -35 11 -20 0
-23 4 -20 33 3 29 6 32 41 35 24 2 37 8 37 18 0 11 -14 14 -60 14 l-60 0 0
-135z"/>
<path d="M3860 4165 l0 -135 49 0 c63 0 92 22 91 70 0 19 0 64 0 99 0 85 -14
101 -87 101 l-53 0 0 -135z m95 64 c0 -20 -5 -24 -30 -24 -33 0 -46 25 -25 50
17 21 55 3 55 -26z m3 -96 c15 -28 -3 -63 -32 -63 -19 0 -27 7 -32 25 -3 14
-4 32 0 40 8 21 53 19 64 -2z"/>
<path d="M8463 4288 c-13 -16 -61 -170 -70 -220 -7 -45 10 -51 29 -10 11 22
21 28 53 30 36 3 41 0 53 -28 16 -35 32 -39 32 -7 0 33 -59 220 -74 235 -10
11 -15 11 -23 0z m33 -103 c8 -31 -1 -55 -20 -55 -23 0 -29 19 -16 51 15 36
28 37 36 4z"/>
<path d="M8609 4285 c-4 -14 -6 -22 -14 -38 -4 -10 -3 -29 4 -43 6 -14 11 -51
11 -83 0 -43 5 -62 18 -74 37 -33 57 -12 27 27 -21 28 -20 114 2 139 17 18 17
19 0 32 -9 6 -17 20 -17 29 0 14 -28 24 -31 11z"/>
<path d="M11164 4264 c-5 -20 -2 -31 11 -40 25 -18 47 0 43 35 -4 38 -45 42
-54 5z"/>
<path d="M2610 4230 c-11 -11 -20 -24 -20 -29 0 -28 22 -59 49 -71 22 -9 31
-19 31 -36 0 -30 -17 -31 -47 -3 -19 19 -23 20 -29 6 -8 -23 13 -56 40 -63 37
-9 59 -1 75 27 22 39 8 75 -39 99 -22 11 -40 25 -40 31 0 18 31 22 49 5 23
-21 31 -20 31 3 0 48 -64 67 -100 31z"/>
<path d="M4046 4243 c-11 -12 -7 -202 5 -209 20 -12 29 20 29 112 0 70 -3 93
-14 97 -8 3 -17 3 -20 0z"/>
<path d="M4135 4225 c-21 -20 -25 -34 -25 -85 0 -51 4 -65 25 -85 69 -70 164
17 135 125 -19 70 -88 93 -135 45z m85 -35 c11 -11 20 -29 20 -40 0 -34 -29
-80 -50 -80 -21 0 -50 45 -50 77 0 25 28 63 46 63 8 0 23 -9 34 -20z"/>
<path d="M4318 4233 c-8 -10 -18 -26 -21 -35 -8 -22 26 -64 58 -72 18 -5 25
-13 25 -31 0 -31 -23 -33 -44 -4 -16 24 -36 18 -36 -11 0 -43 82 -66 113 -32
34 38 20 85 -34 113 -22 11 -39 24 -39 30 0 19 31 21 51 3 30 -27 45 -4 19 29
-25 32 -69 36 -92 10z"/>
<path d="M8765 4242 c-11 -2 -30 -13 -42 -25 -19 -17 -23 -31 -23 -78 0 -52 3
-60 31 -83 38 -32 56 -32 93 -3 20 16 27 29 23 40 -9 23 -24 21 -32 -3 -12
-38 -75 -19 -75 22 0 15 9 18 55 18 l55 0 0 38 c0 52 -37 84 -85 74z m48 -44
c8 -24 -5 -38 -33 -38 -32 0 -45 13 -36 35 7 18 63 20 69 3z"/>
<path d="M9164 4239 c-35 -12 -54 -49 -54 -102 0 -42 5 -53 31 -78 36 -34 57
-36 90 -10 37 29 54 85 39 131 -16 48 -65 75 -106 59z m60 -45 c21 -20 20 -83
-1 -106 -24 -26 -50 -22 -68 12 -19 37 -19 60 1 88 18 26 46 28 68 6z"/>
<path d="M9330 4233 c-39 -28 -23 -80 34 -108 28 -14 35 -55 8 -55 -11 0 -25
7 -32 15 -17 20 -30 19 -30 -3 0 -25 31 -52 58 -52 29 0 62 34 62 63 -1 27
-17 48 -54 67 -16 8 -31 21 -34 27 -6 21 27 27 48 8 18 -16 20 -16 26 -1 14
36 -49 65 -86 39z"/>
<path d="M8893 4152 c-1 -48 0 -95 3 -105 10 -34 24 -5 24 49 0 62 11 89 49
121 l26 22 -51 -1 -50 0 -1 -86z"/>
<path d="M9007 4233 c-14 -13 -8 -180 7 -192 11 -9 14 2 18 65 5 69 8 79 32
96 14 11 26 24 26 29 0 10 -73 12 -83 2z"/>
<path d="M1892 4208 c-25 -25 -8 -78 25 -78 22 0 36 40 24 66 -12 26 -30 31
-49 12z"/>
<path d="M8127 4203 c-14 -13 -6 -53 12 -62 25 -14 45 10 37 44 -6 24 -34 34
-49 18z"/>
<path d="M2750 4180 c0 -18 7 -20 60 -20 53 0 60 2 60 20 0 18 -7 20 -60 20
-53 0 -60 -2 -60 -20z"/>
<path d="M5286 4084 c-10 -25 -7 -252 3 -259 14 -8 22 9 29 61 6 42 10 47 46
59 47 16 56 29 56 76 0 49 -33 79 -87 79 -28 0 -43 -5 -47 -16z m75 -34 c27
-15 26 -66 -1 -75 -28 -9 -48 9 -45 40 3 25 12 45 21 45 3 0 14 -5 25 -10z"/>
<path d="M3475 4054 c-17 -41 -20 -74 -6 -74 12 0 23 16 38 59 21 60 -8 73
-32 15z"/>
<path d="M5456 4033 c-3 -4 -6 -51 -6 -105 0 -91 1 -98 20 -98 18 0 20 7 20
69 0 61 3 71 27 95 14 14 23 29 19 33 -9 9 -72 14 -80 6z"/>
<path d="M5585 4014 c-35 -38 -35 -114 1 -161 55 -72 134 -15 134 97 0 79 -84
119 -135 64z m95 -44 c10 -24 10 -36 0 -61 -11 -25 -17 -30 -44 -27 -24 2 -32
9 -39 33 -13 46 6 85 42 85 22 0 31 -6 41 -30z"/>
<path d="M5784 4021 c-11 -10 -26 -32 -33 -49 -23 -54 29 -153 79 -152 38 1
92 80 54 80 -10 0 -25 -7 -35 -16 -39 -36 -83 28 -59 86 14 34 38 38 74 14 25
-16 40 -7 30 19 -6 16 -46 37 -73 37 -9 0 -26 -8 -37 -19z"/>
<path d="M5962 4017 c-58 -61 -23 -197 51 -197 24 0 67 44 67 70 0 26 -14 26
-40 0 -16 -16 -25 -18 -40 -10 -36 19 -23 37 30 43 67 8 70 11 59 50 -18 65
-86 88 -127 44z m82 -33 c11 -29 6 -34 -28 -34 -39 0 -53 14 -36 35 16 20 56
19 64 -1z"/>
<path d="M6136 4021 c-26 -29 -16 -63 27 -90 20 -13 37 -30 37 -38 0 -15 -36
-18 -45 -3 -9 15 -35 12 -35 -4 0 -7 10 -25 21 -40 29 -36 67 -32 91 10 23 40
10 75 -35 95 -37 16 -49 49 -18 49 11 0 23 -4 26 -10 9 -15 35 -12 35 4 0 19
-39 46 -66 46 -11 0 -29 -9 -38 -19z"/>
<path d="M6297 4022 c-32 -35 -21 -70 31 -96 33 -17 42 -40 19 -49 -7 -3 -21
1 -32 9 -25 19 -35 18 -35 -4 0 -54 62 -80 100 -42 38 38 24 86 -33 115 -29
14 -35 45 -8 45 11 0 23 -4 26 -10 3 -5 13 -10 21 -10 20 0 18 16 -6 40 -25
25 -62 26 -83 2z"/>
<path d="M6463 4018 c-28 -31 -36 -61 -28 -108 8 -47 45 -90 79 -90 41 0 80
60 79 123 -1 42 -5 55 -27 74 -35 29 -77 30 -103 1z m87 -37 c36 -69 -31 -141
-77 -82 -16 20 -16 43 -1 76 14 31 62 35 78 6z"/>
<path d="M6640 4015 c-21 -23 -22 -27 -10 -50 8 -14 29 -33 47 -42 22 -10 33
-22 31 -32 -4 -17 -38 -16 -49 1 -4 6 -14 8 -23 5 -15 -6 -15 -9 -2 -36 25
-48 74 -56 100 -16 32 49 17 86 -46 113 -35 15 -37 42 -4 42 14 0 28 -4 31
-10 7 -12 35 -13 35 -2 0 18 -42 52 -64 52 -12 0 -33 -11 -46 -25z"/>
<path d="M5007 3993 c-4 -3 -7 -17 -7 -29 0 -29 36 -42 57 -21 21 21 8 57 -21
57 -12 0 -26 -3 -29 -7z"/>
<path d="M11837 3984 c-13 -13 -7 -24 14 -24 11 0 19 5 17 12 -5 14 -22 21
-31 12z"/>
<path d="M12766 3975 c-3 -9 -6 -30 -6 -46 0 -29 -13 -39 -25 -19 -11 18 -56
10 -80 -15 -21 -20 -25 -34 -25 -83 0 -48 4 -62 23 -80 25 -24 66 -29 85 -10
8 8 15 8 27 -2 8 -7 17 -11 20 -9 9 10 7 261 -3 271 -6 6 -12 4 -16 -7z m-32
-101 c35 -34 32 -105 -4 -124 -28 -15 -55 -5 -68 26 -16 34 -15 44 8 82 22 35
40 40 64 16z"/>
<path d="M13497 3984 c-13 -13 -7 -24 14 -24 11 0 19 5 17 12 -5 14 -22 21
-31 12z"/>
<path d="M14082 3974 c4 -21 22 -23 26 -1 2 10 -3 17 -13 17 -10 0 -15 -6 -13
-16z"/>
<path d="M11434 3957 c-2 -7 -3 -65 -2 -128 l3 -114 35 -3 c56 -6 107 16 125
53 33 70 11 170 -42 194 -34 16 -112 14 -119 -2z m121 -42 c36 -35 36 -115 0
-151 -17 -17 -34 -24 -53 -22 -27 3 -27 4 -30 87 -2 46 -1 90 2 98 9 21 55 15
81 -12z"/>
<path d="M12102 3946 c-14 -31 -4 -184 14 -213 8 -13 23 -23 34 -23 26 0 26
16 0 32 -17 11 -20 24 -20 76 0 55 3 65 20 69 11 3 20 9 20 14 0 4 -9 13 -20
19 -11 6 -20 20 -20 30 0 27 -14 25 -28 -4z"/>
<path d="M13165 3960 c-8 -13 -19 -50 -45 -146 -11 -39 -22 -79 -26 -88 -10
-27 22 -19 34 9 10 21 19 25 52 25 33 0 42 -4 52 -25 12 -28 44 -36 34 -9 -4
9 -15 49 -25 88 -38 140 -57 177 -76 146z m31 -94 c9 -36 1 -71 -16 -71 -8 0
-16 11 -18 24 -5 30 6 71 18 71 5 0 12 -11 16 -24z"/>
<path d="M2563 3903 c-16 -11 -23 -26 -23 -48 0 -19 -6 -35 -14 -38 -20 -8
-39 -73 -32 -111 3 -18 15 -42 27 -54 33 -36 119 -24 119 16 0 9 7 30 15 45
13 26 13 32 -4 66 -11 20 -31 42 -45 49 -29 13 -32 28 -11 56 14 18 12 37 -3
35 -4 0 -17 -7 -29 -16z m39 -120 c27 -25 22 -33 -22 -33 -41 0 -52 14 -28 38
16 16 28 15 50 -5z m18 -82 c0 -18 -30 -33 -55 -27 -42 11 -31 36 15 36 22 0
40 -4 40 -9z"/>
<path d="M2894 3905 c-4 -8 -3 -22 0 -31 5 -13 9 -14 21 -4 8 7 15 18 15 25 0
19 -30 27 -36 10z"/>
<path d="M11679 3907 c-26 -20 -39 -53 -39 -100 0 -81 79 -127 128 -74 12 13
22 26 22 30 0 13 -23 7 -41 -9 -26 -24 -71 -11 -67 19 3 19 9 22 53 23 l50 1
3 37 c6 66 -61 110 -109 73z m74 -38 c17 -28 1 -49 -38 -49 -30 0 -35 3 -35
23 0 45 50 63 73 26z"/>
<path d="M11840 3800 c0 -107 -2 -125 -20 -148 -26 -33 -10 -55 20 -27 18 16
20 30 20 151 0 78 -4 135 -10 139 -6 4 -10 -37 -10 -115z"/>
<path d="M11932 3897 c-32 -34 -32 -134 1 -165 30 -28 68 -28 95 1 12 13 22
26 22 30 0 12 -21 8 -36 -8 -20 -19 -48 -19 -64 0 -24 29 -4 45 55 45 54 0 55
0 55 29 0 17 -11 42 -26 60 -32 38 -71 41 -102 8z m81 -28 c16 -26 1 -49 -33
-49 -35 0 -47 19 -30 50 13 24 47 24 63 -1z"/>
<path d="M12225 3894 c-33 -36 -35 -118 -4 -158 28 -35 77 -36 109 -1 20 21
24 35 23 83 -1 48 -6 60 -28 79 -35 30 -70 29 -100 -3z m86 -26 c17 -31 15
-97 -4 -115 -23 -24 -63 -9 -76 27 -24 70 47 149 80 88z"/>
<path d="M12409 3899 c-15 -15 -19 -28 -14 -47 8 -32 23 -52 40 -52 6 0 20 -9
29 -19 31 -35 -6 -58 -39 -25 -25 26 -44 1 -20 -26 21 -23 70 -27 91 -6 31 31
14 74 -40 101 -25 12 -36 65 -13 65 8 0 22 -9 32 -20 17 -19 35 -19 35 0 0 16
-43 50 -62 50 -10 0 -27 -9 -39 -21z"/>
<path d="M12855 3895 c-20 -20 -25 -34 -25 -78 0 -69 26 -107 74 -107 30 0 76
32 76 53 0 13 -23 7 -41 -9 -26 -24 -71 -11 -67 19 3 19 11 23 58 27 l55 5 -3
35 c-4 41 -41 80 -78 80 -14 0 -36 -11 -49 -25z m80 -21 c26 -27 15 -49 -28
-52 -33 -3 -37 -1 -37 20 0 44 35 61 65 32z"/>
<path d="M13310 3812 c0 -79 3 -103 13 -100 7 3 14 32 17 79 5 77 13 99 34 99
29 0 45 -35 48 -104 2 -42 8 -71 15 -73 16 -6 19 20 12 106 -7 88 -19 101 -90
98 l-49 -2 0 -103z"/>
<path d="M13501 3902 c-18 -34 -11 -187 9 -187 12 0 16 17 18 81 1 44 -1 91
-6 104 l-9 24 -12 -22z"/>
<path d="M13574 3911 c-2 -2 -4 -49 -4 -103 0 -75 3 -99 13 -96 7 3 14 32 18
77 6 75 24 109 53 98 24 -9 36 -50 36 -118 0 -33 4 -59 10 -59 10 0 14 18 10
57 -2 31 18 99 34 112 35 29 66 -25 66 -115 0 -41 4 -54 15 -54 12 0 15 14 15
65 0 120 -44 171 -113 130 -28 -16 -31 -17 -42 -2 -8 12 -25 16 -59 14 -26 -1
-49 -4 -52 -6z"/>
<path d="M13909 3907 c-26 -20 -39 -53 -39 -102 0 -70 29 -95 109 -92 l61 1 0
98 c0 96 -8 120 -33 99 -8 -6 -18 -6 -27 -1 -21 13 -52 12 -71 -3z m84 -55
c21 -35 18 -70 -9 -96 -21 -22 -40 -20 -65 5 -39 39 -8 136 40 127 8 -2 24
-18 34 -36z"/>
<path d="M14080 3816 c0 -89 3 -106 15 -106 13 0 15 16 13 102 -2 70 -7 103
-15 106 -10 3 -13 -22 -13 -102z"/>
<path d="M14170 3900 c-11 -11 -20 -31 -20 -43 0 -24 27 -57 47 -57 19 0 47
-40 36 -51 -12 -12 -53 -3 -53 12 0 5 -7 9 -15 9 -21 0 -19 -23 3 -43 39 -36
102 -13 102 36 0 25 -16 43 -54 62 -28 14 -35 65 -9 65 10 0 24 -9 31 -20 12
-20 32 -19 32 0 0 16 -43 50 -62 50 -10 0 -27 -9 -38 -20z"/>
<path d="M2818 3868 c-2 -32 -7 -42 -18 -39 -49 13 -59 11 -86 -12 -26 -22
-29 -31 -29 -85 0 -86 19 -104 99 -100 l61 4 0 133 c0 95 -3 135 -12 138 -8 3
-13 -11 -15 -39z m-24 -90 c41 -58 -14 -144 -62 -96 -17 17 -15 78 5 100 21
24 39 23 57 -4z"/>
<path d="M4050 3771 l0 -138 65 -1 c60 -1 66 1 85 27 13 19 20 45 20 76 0 38
-5 52 -29 76 -29 29 -64 38 -76 19 -12 -20 -25 -10 -25 19 0 39 -9 61 -26 61
-11 0 -14 -27 -14 -139z m112 12 c21 -19 25 -82 6 -101 -48 -48 -103 38 -62
96 18 26 31 28 56 5z"/>
<path d="M8580 3901 c0 -5 3 -17 6 -26 5 -13 8 -14 15 -3 13 20 11 38 -6 38
-8 0 -15 -4 -15 -9z"/>
<path d="M9060 3889 c0 -24 23 -21 28 4 2 10 -3 17 -12 17 -10 0 -16 -9 -16
-21z"/>
<path d="M2213 3888 c-28 -14 -63 -84 -63 -126 0 -44 23 -96 51 -116 36 -25
95 -21 124 9 42 41 24 71 -21 36 -56 -44 -114 -11 -114 65 0 48 30 94 63 94
11 0 34 -12 49 -27 34 -32 55 -22 39 19 -19 51 -76 71 -128 46z"/>
<path d="M3563 3890 c-44 -18 -77 -100 -66 -167 3 -18 18 -47 33 -63 23 -25
36 -30 73 -30 39 0 49 4 71 32 21 27 23 34 10 41 -9 5 -23 1 -41 -12 -32 -26
-54 -26 -84 -2 -34 27 -34 99 0 135 31 33 59 33 90 1 38 -41 50 -33 31 22 -16
45 -66 63 -117 43z"/>
<path d="M8404 3887 c-2 -7 -3 -67 -2 -133 l3 -119 36 -3 c77 -6 115 36 91
101 -7 19 -8 37 -1 55 16 42 2 82 -37 98 -42 18 -83 18 -90 1z m94 -69 c2 -19
-3 -30 -18 -38 -33 -18 -50 -5 -50 35 0 35 1 36 33 33 26 -2 33 -8 35 -30z
m-7 -87 c19 -16 22 -23 13 -37 -30 -49 -74 -43 -74 10 0 30 8 42 31 45 4 1 17
-8 30 -18z"/>
<path d="M8852 3888 c-8 -8 -12 -51 -12 -129 0 -111 1 -118 21 -124 36 -12
105 4 128 29 32 34 39 111 13 168 -17 40 -25 46 -65 57 -58 14 -70 14 -85 -1z
m117 -64 c21 -26 28 -84 15 -119 -14 -37 -104 -61 -104 -27 -1 37 -2 148 -1
160 1 7 15 12 35 12 25 0 40 -7 55 -26z"/>
<path d="M2972 3873 c-16 -32 -22 -72 -12 -78 5 -3 10 -30 10 -60 0 -73 13
-105 43 -105 36 0 40 11 12 40 -22 23 -26 35 -23 76 3 42 6 49 26 52 27 4 28
16 3 34 -10 7 -21 23 -25 36 -9 26 -22 28 -34 5z"/>
<path d="M9680 3856 c-5 -13 -5 -61 -1 -111 7 -68 13 -92 27 -102 40 -29 62
-3 24 30 -15 13 -20 29 -20 68 0 42 3 52 20 56 20 5 29 33 10 33 -6 0 -16 11
-22 25 -14 31 -26 32 -38 1z"/>
<path d="M11164 3865 c-4 -8 -3 -27 0 -41 5 -19 12 -25 29 -22 18 2 23 11 25
41 3 34 1 37 -23 37 -14 0 -28 -7 -31 -15z"/>
<path d="M2396 3824 c-3 -9 -6 -56 -6 -105 0 -72 3 -89 15 -89 11 0 15 12 15
50 0 54 20 104 45 113 8 4 15 14 15 22 0 12 -8 16 -28 14 -15 -2 -32 0 -38 4
-7 4 -15 0 -18 -9z"/>
<path d="M2895 3819 c-3 -13 -5 -60 -3 -104 2 -63 6 -80 18 -80 22 0 27 157 6
187 l-15 21 -6 -24z"/>
<path d="M3099 3812 c-28 -25 -31 -34 -31 -81 0 -67 27 -101 82 -101 55 0 82
34 82 102 -1 46 -5 56 -32 81 -38 34 -62 34 -101 -1z m75 -28 c25 -25 30 -61
12 -89 -20 -31 -50 -32 -70 -3 -22 30 -20 60 4 86 25 26 33 27 54 6z"/>
<path d="M3283 3823 c-46 -32 -21 -91 50 -116 9 -4 17 -11 17 -17 0 -20 -31
-23 -51 -4 -14 12 -23 14 -30 7 -32 -32 40 -85 84 -61 29 15 37 27 37 59 0 28
-35 59 -65 59 -20 0 -31 28 -17 42 9 9 16 7 30 -5 40 -36 66 -10 28 28 -29 29
-51 31 -83 8z"/>
<path d="M3774 3829 c-52 -26 -66 -132 -23 -177 17 -19 29 -22 82 -20 l62 3 3
98 3 97 -33 -1 c-18 -1 -42 1 -53 4 -11 4 -30 1 -41 -4z m66 -51 c24 -26 26
-65 3 -90 -22 -24 -49 -23 -67 4 -21 30 -20 50 5 82 25 32 32 32 59 4z"/>
<path d="M3973 3832 c-40 -4 -45 -19 -41 -122 2 -60 6 -75 19 -78 14 -2 17 9
21 62 3 50 9 71 26 89 37 39 29 55 -25 49z"/>
<path d="M4281 3814 c-28 -23 -31 -31 -31 -83 0 -48 4 -61 25 -81 16 -15 36
-23 56 -22 84 2 112 126 42 190 -31 29 -54 28 -92 -4z m78 -40 c26 -33 26 -55
3 -84 -14 -18 -25 -22 -45 -16 -25 6 -27 11 -27 56 0 36 5 52 18 59 25 15 28
14 51 -15z"/>
<path d="M4483 3833 c-39 -5 -42 -14 -40 -118 2 -64 5 -80 17 -80 11 0 16 16
20 68 4 52 10 72 24 83 34 24 55 -6 58 -85 2 -51 6 -66 18 -66 11 0 16 15 18
60 2 32 1 70 -3 82 -7 31 -41 63 -62 61 -10 0 -32 -3 -50 -5z"/>
<path d="M4661 3814 c-27 -23 -31 -32 -31 -79 0 -71 26 -105 80 -105 97 0 125
157 35 198 -37 17 -50 15 -84 -14z m79 -34 c36 -36 16 -110 -31 -110 -20 0
-49 36 -49 61 0 19 37 69 51 69 5 0 18 -9 29 -20z"/>
<path d="M8585 3809 c-9 -38 -1 -174 10 -172 13 4 19 173 6 186 -7 7 -12 2
-16 -14z"/>
<path d="M8675 3805 c-36 -35 -36 -115 1 -152 21 -21 32 -24 62 -20 54 9 67
28 67 98 0 52 -4 64 -24 80 -32 26 -77 24 -106 -6z m91 -30 c11 -17 14 -36 10
-58 -14 -74 -96 -66 -96 10 0 66 54 97 86 48z"/>
<path d="M9065 3819 c-9 -25 -1 -179 10 -179 13 0 19 155 6 178 -9 15 -10 15
-16 1z"/>
<path d="M9152 3807 c-17 -18 -22 -36 -22 -79 0 -50 3 -59 27 -78 21 -17 35
-20 65 -15 41 7 44 3 29 -38 -14 -37 -47 -44 -77 -16 -34 32 -52 12 -24 -24
28 -35 87 -38 116 -6 17 18 19 37 19 147 l0 125 -56 4 c-48 3 -59 0 -77 -20z
m92 -32 c21 -33 20 -57 -5 -89 -25 -32 -43 -33 -63 -4 -30 43 -9 118 33 118
10 0 26 -11 35 -25z"/>
<path d="M9357 3810 c-24 -19 -27 -28 -27 -80 0 -52 3 -61 27 -80 33 -25 87
-22 108 7 17 23 18 123 1 146 -22 29 -76 33 -109 7z m83 -29 c15 -29 13 -31
-30 -31 -41 0 -52 14 -28 38 18 18 46 14 58 -7z m10 -85 c0 -21 -38 -38 -60
-26 -22 12 -27 36 -8 42 20 7 68 -4 68 -16z"/>
<path d="M9542 3823 c-21 -8 -34 -51 -22 -73 6 -10 26 -24 45 -31 22 -8 35
-20 35 -30 0 -27 -18 -33 -45 -15 -31 21 -35 20 -35 -4 0 -39 74 -54 103 -22
10 10 17 30 17 44 0 21 -9 31 -45 48 -45 22 -58 46 -30 57 9 3 25 -3 36 -13
28 -26 45 -5 19 24 -20 21 -49 27 -78 15z"/>
<path d="M9803 3804 c-23 -23 -25 -32 -21 -80 6 -68 24 -89 78 -89 54 0 72 21
78 89 4 48 2 57 -21 80 -17 17 -37 26 -57 26 -20 0 -40 -9 -57 -26z m93 -29
c33 -50 -9 -130 -55 -105 -33 17 -37 81 -9 118 17 20 46 14 64 -13z"/>
<path d="M9984 3816 c-9 -23 1 -176 11 -179 6 -1 12 25 15 58 3 34 12 72 21
85 9 14 17 29 18 35 2 14 -60 15 -65 1z"/>
<path d="M10122 3823 c-7 -3 -19 -18 -27 -33 -32 -62 -8 -143 45 -155 65 -14
91 14 93 102 1 47 -2 58 -22 74 -22 18 -61 23 -89 12z m71 -41 c22 -24 13 -32
-35 -32 -39 0 -49 15 -26 38 17 17 42 15 61 -6z m17 -80 c0 -5 -9 -17 -20 -27
-18 -16 -23 -17 -45 -5 -41 22 -31 40 20 40 25 0 45 -4 45 -8z"/>
<path d="M10285 3806 c-22 -33 -6 -69 40 -90 25 -12 35 -22 31 -33 -3 -8 -6
-17 -6 -19 0 -10 -25 -3 -42 13 -29 26 -46 1 -19 -26 41 -41 101 -21 101 34 0
30 -5 37 -40 55 -41 21 -52 46 -25 56 8 3 22 -1 30 -10 22 -22 35 -20 35 4 0
42 -80 55 -105 16z"/>
<path d="M1892 3788 c-20 -20 -14 -56 9 -63 30 -10 53 16 45 49 -7 28 -33 35
-54 14z"/>
<path d="M8133 3793 c-18 -7 -16 -60 1 -66 25 -10 50 17 42 46 -6 26 -17 31
-43 20z"/>
<path d="M5280 3686 c0 -21 21 -31 31 -15 14 22 11 29 -11 29 -11 0 -20 -6
-20 -14z"/>
<path d="M5670 3665 c0 -34 -2 -36 -27 -35 -16 1 -37 2 -48 1 -54 -3 -76 -136
-30 -185 21 -23 30 -26 76 -22 28 2 55 8 60 13 5 5 8 65 7 134 -3 109 -5 124
-20 127 -15 3 -18 -4 -18 -33z m-22 -91 c38 -26 26 -100 -20 -117 -27 -10 -61
40 -54 78 6 26 29 55 46 55 3 0 16 -7 28 -16z"/>
<path d="M6317 3693 c-4 -3 -2 -12 4 -20 9 -10 15 -10 25 -2 8 6 14 15 14 20
0 10 -34 12 -43 2z"/>
<path d="M6592 3683 c2 -10 10 -18 18 -18 8 0 16 8 18 18 2 12 -3 17 -18 17
-15 0 -20 -5 -18 -17z"/>
<path d="M6100 3662 c0 -10 -6 -24 -12 -30 -10 -10 -10 -17 0 -32 6 -11 12
-44 12 -74 0 -65 6 -83 31 -97 13 -7 26 -6 42 3 l22 12 -25 6 c-23 5 -25 11
-28 66 -2 50 1 63 18 79 24 22 26 35 5 35 -9 0 -20 11 -25 25 -11 29 -40 34
-40 7z"/>
<path d="M5285 3628 c-10 -25 -1 -203 10 -201 13 4 19 193 6 206 -7 7 -12 5
-16 -5z"/>
<path d="M5390 3631 l-35 -6 -3 -80 c-4 -100 3 -132 23 -115 10 8 15 32 15 70
0 44 4 61 20 75 19 17 21 17 40 0 16 -14 20 -31 20 -75 0 -54 17 -90 33 -73
11 11 8 128 -4 162 -10 28 -45 54 -67 50 -4 -1 -23 -4 -42 -8z"/>
<path d="M5960 3620 c-12 -12 -20 -33 -20 -54 0 -31 5 -37 40 -52 25 -11 40
-25 40 -35 0 -26 -19 -33 -39 -15 -22 20 -41 21 -41 2 0 -42 73 -62 103 -28
33 36 15 82 -40 103 -13 5 -23 17 -23 29 0 24 22 26 40 5 18 -22 30 -18 30 9
0 25 -32 56 -57 56 -7 0 -22 -9 -33 -20z"/>
<path d="M6325 3628 c-10 -25 -1 -203 10 -201 13 4 19 193 6 206 -7 7 -12 5
-16 -5z"/>
<path d="M6443 3632 c-26 -4 -35 -15 -56 -69 -15 -37 -15 -46 -2 -77 21 -49
50 -65 110 -61 l50 3 3 100 3 100 -35 0 c-19 0 -38 2 -43 4 -4 2 -18 2 -30 0z
m50 -54 c9 -7 20 -27 23 -45 5 -26 1 -37 -20 -58 -25 -25 -29 -26 -49 -12 -29
19 -35 81 -11 108 20 22 34 24 57 7z"/>
<path d="M6699 3626 c-18 -9 -25 -21 -27 -52 -3 -37 0 -41 38 -63 40 -22 52
-45 28 -54 -7 -2 -21 2 -30 11 -20 17 -50 9 -42 -11 16 -44 96 -45 116 -2 14
32 5 51 -37 76 -20 12 -35 29 -35 40 0 23 4 23 36 3 30 -20 41 -12 28 23 -11
32 -43 45 -75 29z"/>
<path d="M5747 3623 c-13 -12 -7 -120 8 -157 9 -22 24 -37 38 -40 34 -8 91 -2
99 9 4 6 8 52 8 103 0 85 -1 92 -20 92 -18 0 -20 -7 -20 -66 0 -72 -12 -104
-38 -104 -33 0 -42 22 -42 97 0 54 -3 73 -13 73 -8 0 -17 -3 -20 -7z"/>
<path d="M6207 3623 c-4 -3 -7 -46 -7 -93 0 -62 4 -91 14 -99 18 -15 26 5 26
71 0 41 5 55 25 74 38 35 33 54 -13 54 -21 0 -42 -3 -45 -7z"/>
<path d="M6598 3541 c-4 -111 -1 -126 18 -110 14 12 21 150 8 183 -14 36 -23
11 -26 -73z"/>
<path d="M12036 3551 c-17 -19 -16 -19 28 -19 25 1 46 2 46 4 0 1 -7 10 -16
18 -21 21 -37 20 -58 -3z"/>
<path d="M12382 3554 c4 -21 22 -23 26 -1 2 10 -3 17 -13 17 -10 0 -15 -6 -13
-16z"/>
<path d="M13064 3559 c-10 -17 13 -36 27 -22 12 12 4 33 -11 33 -5 0 -12 -5
-16 -11z"/>
<path d="M13467 3563 c-4 -3 -7 -24 -7 -47 0 -31 -3 -37 -12 -28 -7 7 -29 12
-49 12 -49 0 -69 -30 -69 -104 0 -63 22 -98 60 -97 14 0 42 1 63 2 l37 1 0
134 c0 123 -4 146 -23 127z m-12 -137 c7 -22 5 -36 -10 -64 -26 -49 -49 -52
-75 -10 -27 44 -25 74 5 104 24 24 28 25 48 11 12 -8 26 -26 32 -41z"/>
<path d="M14100 3556 c0 -21 21 -31 30 -15 5 7 6 17 4 21 -9 14 -34 9 -34 -6z"/>
<path d="M14382 3554 c4 -21 22 -23 26 -1 2 10 -3 17 -13 17 -10 0 -15 -6 -13
-16z"/>
<path d="M11495 3546 c-43 -18 -65 -57 -65 -111 0 -96 55 -155 126 -136 93 25
101 219 10 251 -35 12 -34 12 -71 -4z m78 -40 c34 -32 43 -68 26 -113 -19 -49
-59 -79 -88 -64 -28 16 -51 62 -51 106 0 27 8 44 29 66 36 35 50 36 84 5z"/>
<path d="M13881 3520 c-7 -20 -7 -39 -1 -56 6 -14 10 -50 10 -80 0 -41 5 -59
20 -74 34 -34 63 -20 30 15 -40 43 -39 133 2 153 l23 11 -22 6 c-12 4 -24 18
-27 31 -9 33 -22 30 -35 -6z"/>
<path d="M11673 3484 c-9 -25 2 -177 15 -182 9 -3 12 14 12 63 0 62 2 69 30
93 17 15 30 30 30 34 0 11 -82 5 -87 -8z"/>
<path d="M11801 3478 c-28 -30 -34 -53 -27 -103 9 -58 35 -80 92 -77 37 1 44
-1 44 -17 0 -20 -30 -51 -50 -51 -8 0 -24 10 -37 22 -18 17 -26 19 -35 10 -10
-10 -8 -17 9 -33 28 -28 93 -31 122 -5 19 17 21 30 21 145 l0 126 -60 3 c-50
2 -62 -1 -79 -20z m91 -25 c10 -9 18 -30 18 -48 0 -34 -33 -85 -55 -85 -39 0
-63 119 -27 139 25 15 43 13 64 -6z"/>
<path d="M12001 3474 c-24 -30 -28 -97 -10 -138 13 -27 61 -52 80 -40 6 4 25
7 40 6 28 -1 29 1 30 49 0 27 1 70 1 97 l1 47 -61 3 c-55 2 -62 0 -81 -24z
m90 -14 c27 -15 26 -88 -1 -118 -12 -12 -25 -22 -30 -22 -18 0 -50 54 -50 86
0 53 36 77 81 54z"/>
<path d="M12190 3397 c0 -74 3 -98 13 -95 7 3 13 29 15 69 3 67 20 99 53 99
27 0 39 -31 39 -105 0 -49 3 -66 13 -62 17 6 15 138 -3 171 -12 23 -19 25 -72
24 l-58 -2 0 -99z"/>
<path d="M12384 3487 c-10 -28 1 -180 14 -185 9 -3 12 21 12 97 0 63 -4 101
-10 101 -6 0 -13 -6 -16 -13z"/>
<path d="M12471 3474 c-38 -49 -20 -164 28 -177 34 -8 72 5 83 29 16 34 2 41
-27 14 -28 -27 -51 -21 -65 15 -16 42 -12 83 11 106 19 19 22 19 42 5 50 -37
69 -33 42 8 -25 37 -85 37 -114 0z"/>
<path d="M12650 3473 c-29 -37 -24 -123 8 -155 25 -26 75 -28 100 -5 30 27 45
90 30 124 -21 49 -39 63 -79 63 -29 0 -42 -6 -59 -27z m94 -19 c23 -22 20 -86
-4 -112 -29 -31 -47 -27 -69 15 -26 50 -4 113 39 113 10 0 26 -7 34 -16z"/>
<path d="M12842 3488 c-7 -7 -12 -24 -12 -39 0 -27 15 -45 54 -64 23 -11 30
-55 9 -62 -6 -2 -21 6 -32 18 -24 26 -36 20 -27 -14 11 -46 89 -47 106 -1 14
35 -4 71 -45 91 -37 18 -44 33 -22 52 11 8 18 6 32 -9 22 -25 35 -26 35 -2 0
27 -20 42 -55 42 -17 0 -36 -5 -43 -12z"/>
<path d="M13067 3494 c-12 -12 -8 -182 4 -190 21 -12 29 21 27 105 -3 77 -12
103 -31 85z"/>
<path d="M13144 3487 c-10 -28 1 -180 14 -185 9 -3 12 14 12 63 0 74 12 105
39 105 35 0 51 -32 51 -104 0 -50 3 -67 13 -64 26 9 19 154 -9 183 -20 19
-112 21 -120 2z"/>
<path d="M13533 3484 c-9 -24 6 -157 20 -171 13 -14 34 -17 90 -15 l37 2 0
101 c0 76 -3 100 -12 97 -8 -3 -15 -32 -19 -77 -3 -48 -11 -77 -22 -88 -16
-16 -18 -16 -38 4 -17 16 -23 38 -27 92 -4 68 -16 89 -29 55z"/>
<path d="M13730 3475 c-11 -21 -11 -29 0 -50 8 -14 24 -28 36 -31 32 -8 47
-29 39 -54 -8 -26 -30 -26 -49 2 -12 17 -19 19 -27 11 -32 -32 34 -72 83 -52
26 11 29 16 26 53 -3 36 -8 43 -43 63 -22 12 -40 28 -40 35 0 19 40 21 55 3
16 -20 30 -19 30 1 0 24 -30 43 -66 44 -23 0 -34 -6 -44 -25z"/>
<path d="M13994 3486 c-3 -7 -4 -50 -2 -96 4 -108 24 -121 30 -19 3 61 7 74
26 87 12 8 22 20 22 27 0 17 -70 17 -76 1z"/>
<path d="M14100 3406 c0 -56 4 -97 11 -101 6 -4 12 -5 14 -3 2 2 5 46 6 98 2
81 -1 95 -15 98 -14 3 -16 -9 -16 -92z"/>
<path d="M14190 3473 c-18 -23 -21 -37 -18 -82 4 -44 10 -59 33 -78 19 -17 34
-23 49 -18 12 4 35 8 51 8 l30 2 0 95 0 95 -62 3 c-57 2 -63 0 -83 -25z m91
-13 c37 -21 14 -140 -27 -140 -18 0 -54 58 -54 85 0 27 27 65 46 65 9 0 24 -5
35 -10z"/>
<path d="M14384 3487 c-10 -28 1 -180 14 -185 9 -3 12 21 12 97 0 63 -4 101
-10 101 -6 0 -13 -6 -16 -13z"/>
<path d="M14460 3479 c-18 -34 -4 -69 36 -85 42 -17 53 -40 31 -62 -15 -15
-18 -14 -41 7 -27 25 -44 14 -26 -19 15 -28 55 -36 86 -15 21 13 25 23 22 53
-3 33 -8 39 -46 57 -25 12 -41 26 -39 35 3 21 35 25 56 6 29 -26 43 0 15 28
-23 24 -81 21 -94 -5z"/>
<path d="M11164 3445 c-9 -36 17 -65 41 -45 23 19 15 64 -12 68 -17 3 -24 -3
-29 -23z"/>
<path d="M11640 3155 c0 -8 7 -15 15 -15 8 0 15 7 15 15 0 8 -7 15 -15 15 -8
0 -15 -7 -15 -15z"/>
<path d="M11910 3025 c0 -105 3 -136 13 -133 7 3 14 32 17 77 5 65 16 91 40
91 24 0 35 -26 40 -92 4 -56 8 -73 20 -73 19 0 26 85 10 137 -12 43 -58 76
-79 55 -15 -15 -29 0 -33 37 -2 16 -9 31 -15 34 -10 3 -13 -28 -13 -133z"/>
<path d="M11430 3123 c0 -24 33 -137 61 -210 10 -27 37 -30 45 -5 3 9 10 26
14 37 5 11 13 36 19 55 6 19 18 57 26 83 19 59 19 67 1 67 -12 0 -46 -85 -46
-115 0 -14 -33 -75 -40 -75 -4 0 -11 12 -14 28 -33 135 -66 202 -66 135z"/>
<path d="M11774 3089 c-3 -6 -15 -9 -25 -6 -10 3 -23 -1 -29 -8 -15 -18 -9
-177 8 -183 9 -3 12 12 12 53 0 58 21 115 43 115 31 -1 41 -20 46 -92 7 -86
25 -97 29 -18 5 82 -4 113 -37 133 -34 20 -38 20 -47 6z"/>
<path d="M11640 2990 c0 -77 3 -101 13 -97 8 2 12 31 12 97 0 66 -4 95 -12 98
-10 3 -13 -21 -13 -98z"/>
<path d="M12116 3064 c-36 -37 -37 -109 -2 -147 22 -24 31 -26 83 -23 l58 3 3
82 c3 91 -7 118 -38 101 -13 -7 -21 -7 -25 0 -11 19 -52 10 -79 -16z m86 -21
c27 -24 24 -87 -4 -107 -29 -20 -34 -20 -58 4 -24 24 -26 67 -4 98 18 26 41
28 66 5z"/>
<path d="M12327 3070 c-48 -38 -44 -140 7 -174 27 -17 45 -84 26 -96 -9 -6 -9
-9 -1 -15 15 -9 61 21 61 39 0 7 -7 19 -15 26 -21 17 -19 29 10 52 25 20 34
48 15 48 -6 0 -21 -7 -35 -16 -31 -20 -61 -5 -70 34 -13 61 36 113 74 78 29
-26 52 -19 33 10 -9 14 -47 34 -65 34 -8 0 -26 -9 -40 -20z"/>
<path d="M12499 3060 c-34 -34 -39 -91 -12 -130 25 -37 32 -39 96 -37 l58 2
-3 93 -3 94 -54 3 c-48 4 -56 1 -82 -25z m91 -22 c33 -36 25 -93 -17 -109 -49
-18 -83 32 -61 90 17 46 46 53 78 19z"/>
<path d="M11167 3044 c-13 -13 -7 -52 8 -58 27 -10 46 5 43 33 -3 26 -35 41
-51 25z"/>
<path d="M17975 811 c-3 -5 -1 -12 5 -16 5 -3 10 1 10 9 0 18 -6 21 -15 7z"/>
<path d="M17261 644 c0 -11 3 -14 6 -6 3 7 2 16 -1 19 -3 4 -6 -2 -5 -13z"/>
</g>
</svg>
