<?xml version="1.0" standalone="no"?>
<!DOCTYPE svg PUBLIC "-//W3C//DTD SVG 20010904//EN"
 "http://www.w3.org/TR/2001/REC-SVG-20010904/DTD/svg10.dtd">
<svg version="1.0" xmlns="http://www.w3.org/2000/svg"
 width="1920.000000pt" height="1342.000000pt" viewBox="0 0 1920.000000 1342.000000"
 preserveAspectRatio="xMidYMid meet">

<g transform="translate(0.000000,1342.000000) scale(0.100000,-0.100000)"
fill="#000000" stroke="none">
<path d="M7922 13387 c-17 -47 -15 -70 8 -99 38 -49 115 -37 139 21 11 26 11
37 -2 68 -14 37 -16 38 -74 41 -59 3 -59 3 -71 -31z"/>
<path d="M8245 13392 c-42 -39 -60 -69 -76 -130 -7 -31 -21 -58 -31 -63 -14
-8 -18 -22 -18 -73 0 -55 3 -64 20 -69 19 -5 20 -14 20 -201 0 -218 -1 -216
74 -216 68 0 66 -7 66 199 0 201 4 217 50 223 14 2 24 6 23 11 -2 4 -3 34 -3
67 0 58 -1 60 -25 60 -47 0 -44 61 4 68 19 3 21 9 21 78 l0 74 -47 0 c-38 -1
-54 -6 -78 -28z"/>
<path d="M8436 13404 c-3 -9 -6 -37 -6 -63 0 -59 24 -85 76 -84 51 1 74 27 74
80 0 71 -11 83 -79 83 -44 0 -60 -4 -65 -16z"/>
<path d="M10270 13372 c-41 -20 -61 -55 -58 -97 4 -38 41 -47 69 -16 24 26 35
26 77 1 39 -24 54 -25 91 -5 37 18 77 100 60 121 -17 21 -57 17 -69 -6 -14
-25 -41 -25 -82 0 -40 24 -44 24 -88 2z"/>
<path d="M4257 13363 c-4 -3 -7 -53 -7 -110 0 -56 -4 -103 -8 -103 -5 0 -17 9
-27 20 -29 32 -83 44 -134 30 -46 -12 -77 -39 -120 -105 -24 -38 -26 -47 -26
-165 0 -110 3 -130 23 -170 31 -62 42 -75 85 -99 49 -27 109 -27 158 1 l39 22
16 -22 c12 -17 25 -22 59 -22 81 0 75 -30 75 371 l0 359 -63 0 c-35 0 -67 -3
-70 -7z m-67 -318 c38 -20 60 -67 60 -130 0 -44 -5 -57 -30 -84 -75 -78 -167
3 -144 127 8 44 26 72 56 89 29 15 24 16 58 -2z"/>
<path d="M5450 13266 c0 -61 -4 -107 -10 -111 -6 -4 -24 5 -40 18 -83 71 -198
28 -252 -93 -28 -63 -30 -222 -4 -300 42 -125 158 -178 250 -115 40 27 56 25
56 -6 0 -17 7 -19 59 -19 44 0 60 4 65 16 3 9 6 173 6 365 l0 349 -65 0 -65 0
0 -104z m-69 -222 c30 -15 69 -85 69 -124 0 -26 -20 -71 -44 -97 -36 -42 -100
-25 -133 35 -36 63 10 187 75 201 2 1 17 -6 33 -15z"/>
<path d="M1430 12990 l0 -350 60 0 c56 0 60 2 66 26 4 15 4 80 1 145 -7 117
-2 183 13 174 5 -3 16 -31 25 -63 9 -31 20 -66 25 -77 10 -28 27 -82 40 -135
16 -60 26 -70 69 -70 60 0 69 13 105 145 23 82 34 125 41 159 5 22 9 26 18 17
8 -8 13 -63 15 -159 3 -96 8 -150 15 -154 19 -12 102 -9 115 4 17 17 17 659 0
676 -7 7 -40 12 -80 12 -65 0 -68 -1 -83 -30 -8 -16 -15 -35 -15 -42 0 -19
-102 -329 -116 -352 -14 -23 -34 -13 -34 16 0 12 -8 47 -19 77 -10 31 -31 97
-46 146 -15 50 -31 98 -36 107 -5 10 -9 27 -9 38 0 28 -30 40 -104 40 l-66 0
0 -350z"/>
<path d="M7633 13324 c-8 -4 -13 -26 -13 -59 0 -45 -4 -55 -25 -69 -22 -14
-25 -24 -25 -71 0 -50 3 -56 25 -65 24 -9 25 -12 25 -117 1 -146 23 -240 64
-267 27 -17 142 -40 156 -31 6 3 10 40 10 81 l0 74 -27 0 c-51 0 -54 7 -51
136 l3 119 38 3 37 3 0 70 0 69 -35 0 c-41 0 -48 11 -49 79 l-1 46 -60 2 c-33
1 -66 -1 -72 -3z"/>
<path d="M2275 13199 c-116 -28 -191 -201 -154 -357 22 -92 80 -182 119 -182
11 0 22 -4 25 -10 9 -15 108 -12 146 4 19 8 48 29 66 48 32 33 67 111 56 122
-4 3 -37 6 -75 6 -55 0 -72 -4 -88 -20 -28 -28 -62 -25 -94 9 -51 53 -36 60
126 63 l143 3 3 40 c6 64 -18 153 -52 199 -51 67 -136 96 -221 75z m107 -156
c10 -9 18 -27 18 -40 0 -22 -3 -23 -70 -23 -77 0 -87 11 -54 58 19 27 78 30
106 5z"/>
<path d="M3075 13192 c-89 -31 -155 -149 -155 -276 0 -37 25 -128 49 -174 79
-155 319 -126 370 44 5 16 12 37 16 47 6 15 0 17 -69 17 -70 0 -77 -2 -92 -25
-24 -37 -76 -35 -103 4 -40 56 -23 193 28 221 30 15 37 13 72 -25 30 -31 39
-35 84 -35 59 0 98 21 78 41 -7 7 -13 20 -13 30 0 23 -66 106 -98 123 -47 24
-112 28 -167 8z"/>
<path d="M3535 13195 c-22 -8 -40 -15 -40 -15 -1 0 -18 -22 -38 -49 -32 -41
-39 -61 -49 -129 -18 -119 1 -227 52 -298 51 -71 170 -86 228 -27 20 20 40 16
44 -9 3 -21 8 -23 63 -23 l60 0 0 275 0 275 -60 0 c-55 0 -60 -2 -63 -22 -4
-27 -24 -30 -43 -6 -16 19 -71 43 -96 43 -10 -1 -36 -7 -58 -15z m132 -155
c66 -40 74 -173 14 -222 -38 -30 -75 -23 -110 19 -24 29 -31 47 -31 81 0 52
30 114 62 129 31 15 29 16 65 -7z"/>
<path d="M4618 13197 c-47 -15 -111 -78 -138 -134 -29 -61 -28 -211 1 -280 23
-55 84 -123 110 -123 10 0 21 -4 24 -10 9 -14 103 -12 147 3 70 25 122 96 144
200 14 68 4 167 -22 219 -21 40 -73 97 -104 113 -39 20 -119 26 -162 12z m100
-153 c85 -59 62 -244 -31 -244 -38 0 -47 6 -70 42 -35 56 -13 182 37 206 29
15 38 14 64 -4z"/>
<path d="M5801 13195 c-144 -45 -195 -268 -105 -462 45 -99 212 -125 302 -48
32 26 72 96 72 123 0 20 -5 22 -66 22 -51 0 -72 -5 -91 -20 -14 -11 -36 -20
-48 -20 -31 0 -63 29 -67 60 l-3 25 145 5 145 5 3 35 c4 41 -14 133 -34 172
-26 50 -70 89 -119 104 -58 17 -77 17 -134 -1z m121 -152 c10 -9 18 -27 18
-40 0 -22 -3 -23 -70 -23 -65 0 -70 1 -70 22 0 52 80 79 122 41z"/>
<path d="M6465 13201 c-89 -23 -143 -94 -163 -216 -11 -66 0 -163 24 -221 19
-46 72 -104 94 -104 11 0 22 -4 25 -10 8 -14 89 -13 136 2 51 15 90 52 117
110 37 81 33 88 -46 88 -61 0 -71 -3 -91 -26 -50 -57 -131 -1 -131 91 0 48 24
113 49 132 26 20 45 15 81 -22 31 -32 39 -35 92 -35 45 0 60 4 65 16 14 38
-53 151 -107 179 -34 17 -108 26 -145 16z"/>
<path d="M6922 13195 c-52 -16 -73 -33 -111 -94 -43 -69 -57 -155 -41 -243 27
-142 103 -217 220 -218 55 0 80 11 138 57 25 20 73 113 66 125 -3 5 -35 8 -72
8 -50 0 -75 -5 -97 -20 -16 -11 -37 -20 -46 -20 -27 0 -69 40 -69 65 l0 24
147 3 146 3 -2 75 c-3 118 -66 214 -158 239 -48 14 -67 13 -121 -4z m120 -157
c34 -39 20 -53 -55 -56 -79 -3 -95 12 -57 54 31 32 85 33 112 2z"/>
<path d="M8785 13192 c-114 -39 -168 -190 -133 -368 22 -114 100 -184 205
-184 88 0 179 70 195 150 3 14 7 32 9 40 3 12 -10 16 -67 18 -67 3 -72 1 -88
-23 -14 -22 -24 -26 -53 -23 -28 2 -40 10 -54 33 -42 72 -7 225 52 225 10 0
33 -16 52 -35 31 -32 39 -35 90 -35 31 0 59 4 62 10 20 33 -52 161 -105 187
-47 22 -112 24 -165 5z"/>
<path d="M9246 13195 c-21 -7 -42 -18 -45 -22 -76 -110 -91 -152 -91 -255 0
-68 10 -108 46 -184 43 -90 146 -121 229 -69 50 30 53 30 57 3 3 -21 8 -23 63
-23 l60 0 3 278 2 277 -61 0 c-52 0 -62 -3 -66 -20 -6 -23 -38 -27 -50 -7 -9
15 -66 37 -92 37 -9 -1 -34 -7 -55 -15z m124 -150 c40 -21 60 -63 60 -130 0
-49 -4 -60 -29 -86 -83 -83 -184 33 -136 156 10 28 27 51 43 60 33 18 28 18
62 0z"/>
<path d="M9795 13196 c-50 -16 -90 -54 -123 -119 -21 -43 -24 -63 -24 -151 0
-87 3 -109 26 -160 27 -61 69 -106 98 -106 25 0 51 -45 45 -77 -7 -37 9 -63
38 -63 29 0 41 -16 25 -35 -8 -10 -31 -15 -61 -15 l-49 0 0 -40 0 -40 89 0
c82 0 90 2 115 26 21 22 26 36 26 79 0 59 -23 99 -65 109 -37 9 -34 45 4 52
35 7 65 33 88 77 18 33 43 96 43 110 0 4 -34 7 -75 7 -68 0 -76 -2 -91 -25
-18 -27 -58 -33 -84 -12 -54 43 -52 184 4 229 30 25 40 23 77 -17 31 -32 38
-35 90 -35 75 0 86 13 60 73 -32 74 -84 124 -142 136 -60 13 -63 13 -114 -3z"/>
<path d="M10255 13198 c-44 -16 -82 -55 -112 -116 -23 -47 -27 -67 -27 -151 0
-105 18 -172 61 -229 48 -64 150 -82 209 -37 40 31 42 31 54 -1 9 -23 14 -25
67 -22 l58 3 0 275 0 275 -58 3 c-53 3 -58 1 -67 -22 -12 -32 -17 -32 -49 -2
-30 29 -93 40 -136 24z m132 -165 c79 -71 49 -233 -43 -233 -47 0 -94 58 -94
118 0 70 46 138 95 141 6 1 25 -11 42 -26z"/>
<path d="M10799 13195 c-91 -29 -151 -131 -153 -260 -2 -179 81 -294 214 -294
97 -1 161 38 201 122 26 56 29 71 28 162 -1 125 -4 135 -59 201 -35 41 -56 57
-94 69 -59 18 -77 18 -137 0z m108 -159 c38 -32 58 -107 42 -156 -37 -110
-145 -107 -163 5 -10 60 8 126 41 152 35 29 45 29 80 -1z"/>
<path d="M2627 13193 c-10 -9 -8 -526 2 -541 5 -9 25 -12 62 -10 l54 3 5 150
c3 83 9 157 14 165 24 40 51 60 82 60 40 0 44 11 44 107 l0 76 -35 -6 c-23 -4
-45 -17 -62 -37 -28 -34 -43 -28 -43 18 0 20 -5 22 -58 22 -32 0 -62 -3 -65
-7z"/>
<path d="M7276 13185 c-3 -9 -6 -130 -6 -270 0 -206 3 -255 14 -264 8 -7 37
-11 68 -9 l53 3 6 150 c4 83 10 159 14 170 15 37 38 55 71 55 23 0 37 6 44 19
11 21 14 120 4 145 -10 26 -51 18 -85 -15 -32 -31 -44 -30 -51 6 -3 17 -12 20
-64 23 -49 2 -63 0 -68 -13z"/>
<path d="M7935 13188 c-3 -7 -4 -132 -3 -278 l3 -265 60 0 60 0 0 275 0 275
-58 3 c-40 2 -59 -1 -62 -10z"/>
<path d="M8442 13188 c-9 -9 -12 -82 -12 -268 0 -186 3 -259 12 -268 13 -13
96 -16 116 -4 9 7 13 70 13 270 1 143 -2 266 -6 271 -9 15 -108 14 -123 -1z"/>
<path d="M10330 10921 c-65 -12 -132 -59 -176 -126 -36 -54 -54 -135 -54 -242
0 -137 21 -196 104 -293 36 -42 59 -55 129 -70 56 -13 135 -2 181 24 55 32
116 116 140 194 7 21 6 22 -67 22 -73 0 -75 -1 -102 -34 -15 -19 -44 -39 -66
-46 -37 -13 -43 -12 -87 12 -25 14 -54 39 -63 55 -75 134 -19 334 98 350 53 7
88 -10 120 -56 28 -40 28 -40 95 -41 37 0 69 4 72 9 3 5 -2 33 -11 62 -19 59
-86 134 -143 161 -42 19 -121 28 -170 19z"/>
<path d="M9610 10850 l0 -70 114 0 c63 0 117 -4 120 -8 5 -9 -41 -102 -88
-176 -17 -28 -44 -76 -58 -106 -14 -31 -40 -78 -57 -105 -28 -44 -31 -57 -31
-124 l0 -76 197 2 c109 1 201 2 206 3 4 0 7 31 7 69 0 54 -4 70 -16 75 -9 3
-63 6 -120 6 -112 0 -117 3 -86 48 10 15 31 54 47 87 15 33 36 71 46 85 9 14
32 53 50 85 17 33 43 80 56 104 19 35 23 55 21 105 l-3 61 -202 3 -203 2 0
-70z"/>
<path d="M10930 10910 l-165 -5 -3 -352 -2 -353 165 0 c91 0 168 -1 173 -2 9
-4 15 78 8 106 -5 20 -11 21 -96 18 -60 -2 -96 1 -106 8 -20 17 -20 153 0 170
10 7 43 10 95 8 l81 -3 0 58 c0 38 -4 57 -12 58 -7 0 -45 0 -84 -1 -89 -2 -96
6 -92 97 l3 68 108 3 107 3 0 52 c0 29 -4 57 -8 62 -4 6 -68 8 -172 5z"/>
<path d="M7120 10802 c-19 -8 -52 -35 -72 -60 -85 -105 -103 -284 -41 -413 71
-145 189 -191 323 -127 53 26 74 48 100 106 32 71 28 82 -29 82 -42 0 -52 -4
-77 -32 -35 -39 -66 -58 -96 -58 -104 0 -178 126 -149 256 10 42 23 66 55 100
38 39 47 44 88 44 40 0 51 -5 86 -40 36 -36 44 -40 91 -40 58 0 60 5 35 66
-19 47 -47 79 -96 110 -31 20 -50 24 -110 23 -43 -1 -88 -7 -108 -17z"/>
<path d="M11186 10748 c4 -13 9 -25 13 -28 3 -3 19 -32 36 -65 16 -33 42 -80
57 -104 15 -25 28 -53 28 -63 0 -22 -41 -108 -52 -108 -4 0 -8 -6 -8 -14 0 -8
-16 -42 -35 -76 -49 -87 -48 -90 35 -90 56 0 70 3 70 15 0 16 4 26 33 80 17
33 54 41 67 15 5 -8 18 -36 31 -62 l23 -47 69 -3 c38 -2 70 -1 72 1 6 5 -106
215 -126 236 -19 20 -6 98 21 125 16 16 100 181 100 198 0 8 -19 12 -64 12
l-63 0 -32 -70 c-43 -93 -60 -93 -103 0 l-33 69 -73 1 c-72 0 -73 -1 -66 -22z"/>
<path d="M7655 10679 c-95 -50 -127 -111 -127 -243 1 -128 37 -208 114 -247
159 -81 329 98 288 304 -17 90 -45 130 -119 178 -54 35 -101 37 -156 8z m122
-121 c34 -38 43 -64 43 -125 0 -50 -4 -64 -31 -96 -40 -49 -83 -51 -128 -6
-28 28 -31 36 -31 95 0 95 37 154 95 154 20 0 39 -8 52 -22z"/>
<path d="M8165 10675 c-49 -30 -52 -30 -60 -4 -6 17 -14 20 -53 17 l-47 -3 0
-250 0 -250 47 -3 c58 -4 57 -9 60 195 3 145 4 153 27 177 31 33 79 35 108 4
33 -36 43 -92 43 -239 0 -75 2 -138 5 -141 3 -2 24 -2 47 1 l43 6 5 172 c5
165 6 172 30 198 32 34 84 32 112 -6 29 -39 37 -91 38 -236 l0 -133 44 0 c31
0 46 5 50 16 11 29 5 278 -8 349 -12 62 -18 74 -56 107 -69 62 -135 61 -196
-3 -32 -34 -48 -36 -66 -10 -19 27 -79 61 -108 61 -14 0 -43 -11 -65 -25z"/>
<path d="M9025 10681 c-39 -23 -82 -74 -100 -118 -18 -44 -20 -194 -2 -243 34
-97 79 -140 155 -147 39 -4 54 0 85 21 46 31 57 32 57 6 0 -17 7 -20 50 -20
l50 0 0 255 0 255 -45 0 c-39 0 -47 -3 -55 -25 -12 -32 -15 -31 -57 5 -40 36
-92 40 -138 11z m144 -130 c56 -60 57 -164 2 -223 -45 -50 -110 -29 -150 49
-37 72 24 203 96 203 15 0 36 -12 52 -29z"/>
<path d="M7510 6055 l0 -1777 122 6 c66 3 126 10 133 16 6 5 21 7 33 3 26 -6
27 0 6 33 -16 23 -15 26 2 45 16 18 16 24 5 52 -13 32 -15 77 -5 110 3 11 0
17 -9 17 -10 0 -13 7 -10 21 3 12 0 24 -7 29 -9 6 -8 14 4 37 8 17 12 34 8 37
-3 4 0 11 8 16 21 13 -5 39 -33 33 l-22 -5 21 19 c29 25 36 49 17 64 -10 9
-13 23 -9 48 3 20 0 41 -6 48 -9 11 -8 13 3 11 8 -2 14 5 14 17 0 14 -6 19
-17 17 -23 -4 -23 4 0 28 24 26 18 77 -10 86 -14 4 -17 11 -12 22 4 10 8 46
10 82 1 36 6 91 10 123 5 40 3 57 -5 57 -13 0 -12 62 2 71 5 4 6 13 2 20 -5 7
-9 37 -10 66 -1 29 -7 59 -13 65 -14 14 -16 68 -3 68 6 0 3 16 -5 35 -15 37
-10 109 10 134 8 11 8 15 -1 18 -8 3 -13 22 -13 48 0 35 -4 45 -20 50 -19 6
-29 45 -12 45 12 0 34 59 28 76 -3 8 -12 14 -20 12 -8 -2 -15 2 -15 7 -1 6 7
10 17 10 14 0 17 12 19 78 2 60 0 77 -11 77 -10 0 -13 13 -11 52 2 38 -1 55
-13 64 -22 16 -6 37 19 24 10 -6 18 -16 16 -22 -1 -6 4 -13 11 -15 18 -7 15
11 -8 37 -11 13 -20 29 -20 37 0 7 -7 13 -15 13 -21 0 -19 30 3 46 10 8 12 13
5 14 -7 0 -13 7 -13 16 0 8 4 13 9 9 19 -11 0 90 -19 105 -13 10 -38 70 -29
70 5 0 9 -4 9 -8 0 -5 7 -9 15 -9 8 0 15 4 15 9 0 5 -7 11 -15 14 -17 7 -21
64 -5 64 6 0 10 -4 10 -10 0 -5 4 -10 10 -10 14 0 0 63 -18 78 -14 11 -14 12
2 12 9 0 15 4 11 9 -3 5 -1 12 5 16 13 8 13 45 0 45 -5 0 -10 -9 -10 -20 0
-11 -4 -20 -10 -20 -5 0 -10 14 -10 30 0 24 4 30 20 30 21 0 21 0 1 21 -11 12
-19 34 -19 50 1 15 -5 36 -12 44 -11 13 -11 18 -1 24 10 7 10 13 2 29 -15 29
-14 59 3 65 8 3 14 15 13 25 0 12 -6 18 -14 15 -19 -7 -16 5 7 34 14 18 17 30
10 38 -6 7 -6 15 1 22 8 8 8 13 0 17 -6 4 -11 16 -11 26 0 10 -6 20 -12 23
-10 4 -10 7 0 18 18 19 15 29 -8 29 -11 0 -20 5 -20 10 0 6 4 10 9 10 5 0 11
7 15 15 3 8 2 14 -2 14 -4 -1 -14 -1 -22 0 -13 1 -13 3 0 14 21 16 23 58 3 72
-16 12 -15 17 12 65 13 21 13 26 1 34 -11 8 -12 15 -3 35 9 19 9 25 -1 29 -7
2 -10 8 -6 13 3 5 -2 16 -10 25 -22 21 -20 46 4 72 l21 22 -28 0 c-15 0 -45 3
-65 6 l-38 7 0 -1778z m100 1621 c0 -3 -4 -8 -10 -11 -5 -3 -10 -1 -10 4 0 6
5 11 10 11 6 0 10 -2 10 -4z m40 -381 c10 -12 10 -15 -2 -15 -8 0 -15 7 -15
15 0 8 1 15 2 15 2 0 8 -7 15 -15z"/>
<path d="M3525 7781 c-6 -29 8 -71 23 -71 26 0 40 47 26 84 -11 28 -42 19 -49
-13z"/>
<path d="M4547 7783 c-4 -3 -7 -42 -7 -85 0 -83 -10 -97 -46 -61 -13 13 -33
18 -76 17 -52 -1 -61 -4 -87 -32 -72 -81 -68 -247 8 -327 28 -31 39 -35 81
-35 31 0 52 5 60 16 8 8 22 20 32 25 15 8 20 5 28 -16 11 -28 35 -33 44 -9 3
9 6 121 6 249 0 128 -3 240 -6 249 -6 16 -26 21 -37 9z m-57 -213 c76 -81 35
-240 -62 -240 -33 0 -42 5 -68 42 -23 31 -30 52 -30 87 0 47 26 103 58 129 29
22 72 14 102 -18z"/>
<path d="M1900 7763 c-37 -7 -97 -59 -127 -110 -23 -40 -26 -56 -26 -132 0
-70 4 -95 23 -136 95 -200 312 -153 359 77 12 55 -1 145 -27 194 -17 32 -100
104 -119 104 -10 0 -27 2 -38 4 -11 2 -31 2 -45 -1z m77 -65 c88 -40 129 -174
83 -272 -33 -70 -71 -99 -126 -98 -83 1 -134 74 -134 192 0 65 3 76 32 117 30
40 72 70 105 72 7 1 25 -5 40 -11z"/>
<path d="M2498 7653 c-16 -2 -42 -21 -62 -44 -75 -88 -54 -272 38 -332 39 -26
98 -22 130 8 34 32 46 25 46 -27 0 -46 -30 -95 -68 -109 -33 -13 -88 6 -109
37 -9 15 -25 24 -40 24 -22 0 -24 -3 -18 -27 15 -61 71 -103 137 -103 46 0 75
13 103 48 44 55 44 60 45 295 l0 227 -25 0 c-16 0 -25 -6 -25 -15 0 -19 -19
-19 -39 -1 -18 16 -73 26 -113 19z m103 -75 c48 -50 62 -125 34 -179 -28 -54
-47 -69 -85 -69 -96 0 -139 164 -65 244 31 34 85 35 116 4z"/>
<path d="M2874 7654 c-29 -7 -79 -62 -93 -103 -32 -98 9 -246 77 -279 44 -20
96 -15 126 13 33 31 44 31 48 3 4 -31 34 -35 42 -6 3 13 6 101 6 196 l0 172
-24 0 c-16 0 -26 -7 -29 -22 l-6 -22 -23 21 c-23 22 -85 35 -124 27z m110 -79
c36 -39 52 -107 36 -154 -40 -121 -148 -120 -190 0 -16 46 0 116 36 154 32 34
86 34 118 0z"/>
<path d="M3285 7653 c-11 -3 -26 -10 -33 -16 -9 -7 -16 -7 -24 1 -7 7 -22 12
-35 12 l-23 0 0 -196 0 -195 23 3 c21 3 22 7 28 143 3 77 9 148 13 158 14 30
64 50 95 38 50 -21 61 -59 61 -202 0 -110 2 -131 16 -136 30 -11 35 19 30 167
-4 146 -14 188 -47 208 -21 14 -78 22 -104 15z"/>
<path d="M4010 7654 c-42 -15 -60 -30 -81 -68 -19 -34 -24 -55 -24 -121 0 -69
4 -87 28 -130 30 -55 62 -75 117 -75 26 0 43 7 60 25 30 31 38 31 50 -1 7 -16
16 -24 28 -22 15 3 17 22 20 196 l2 192 -25 0 c-16 0 -25 -6 -25 -15 0 -19
-24 -19 -43 0 -16 16 -83 28 -107 19z m85 -62 c6 -4 19 -20 30 -37 27 -41 28
-153 3 -179 -10 -10 -18 -21 -18 -26 0 -12 -51 -26 -78 -22 -31 5 -82 85 -82
129 0 41 21 94 49 122 21 21 75 28 96 13z"/>
<path d="M4770 7653 c-74 -15 -111 -79 -111 -193 0 -88 16 -126 69 -170 72
-59 178 -26 217 67 19 46 19 170 0 216 -25 60 -100 94 -175 80z m86 -68 c31
-21 54 -76 54 -128 0 -33 -7 -54 -30 -85 -27 -37 -35 -42 -70 -42 -33 0 -43 5
-65 34 -48 62 -46 152 4 205 32 35 73 41 107 16z"/>
<path d="M2200 7454 l0 -195 23 3 c21 3 22 7 27 138 6 150 14 173 67 191 25 8
33 16 33 35 0 20 -5 24 -28 24 -15 0 -33 -5 -40 -12 -9 -9 -15 -9 -24 0 -7 7
-22 12 -35 12 l-23 0 0 -196z"/>
<path d="M3530 7454 l0 -195 23 3 c22 3 22 4 25 196 l2 192 -25 0 -25 0 0
-196z"/>
<path d="M3640 7638 c1 -32 18 -41 69 -36 28 3 54 1 57 -4 9 -14 -14 -70 -72
-174 -38 -70 -54 -108 -52 -129 l3 -30 100 0 100 0 3 28 c3 27 3 27 -58 27
-76 0 -83 13 -45 83 73 136 105 204 105 225 0 21 -3 22 -105 22 -77 0 -105 -3
-105 -12z"/>
<path d="M1536 7575 c-19 -20 -30 -76 -20 -107 14 -46 69 -62 109 -32 28 21
28 103 1 133 -22 25 -68 28 -90 6z"/>
<path d="M16088 7394 c-34 -25 -48 -43 -48 -60 0 -13 3 -24 6 -24 4 0 28 16
55 36 35 26 49 43 49 60 0 31 -6 30 -62 -12z"/>
<path d="M16539 7409 c-8 -16 -8 -28 0 -45 14 -31 38 -31 53 1 9 21 8 28 -7
45 -23 25 -32 25 -46 -1z"/>
<path d="M14190 7360 c0 -10 -4 -29 -9 -42 -5 -13 -21 -63 -36 -113 -15 -49
-31 -100 -36 -113 -5 -13 -9 -32 -9 -43 0 -10 -4 -27 -9 -37 -13 -26 -31 -86
-31 -104 0 -18 30 -33 40 -21 4 4 15 29 25 55 19 51 31 58 108 58 62 0 84 -12
92 -52 14 -60 45 -88 59 -52 6 16 1 47 -14 94 -4 14 -13 45 -20 70 -7 25 -23
77 -35 115 -12 39 -28 90 -35 115 -23 83 -27 90 -60 90 -23 0 -30 -4 -30 -20z
m68 -184 c12 -35 22 -78 22 -95 0 -31 0 -31 -55 -31 -58 0 -81 18 -56 43 6 6
11 23 11 38 0 15 5 31 10 34 6 3 10 19 10 34 0 15 3 31 7 34 17 18 31 2 51
-57z"/>
<path d="M14829 7368 c-1 -7 -3 -29 -5 -48 -1 -22 -10 -40 -23 -49 -26 -17
-27 -35 -1 -52 18 -13 21 -26 23 -139 2 -145 13 -172 73 -189 46 -13 54 -8 54
30 0 24 -4 29 -24 29 -41 0 -47 19 -44 146 l3 119 33 3 c26 3 32 8 32 27 0 19
-6 24 -32 27 -32 3 -33 5 -38 53 -4 42 -8 50 -27 53 -14 2 -24 -2 -24 -10z"/>
<path d="M16347 7373 c-4 -3 -7 -25 -7 -49 0 -28 -5 -44 -15 -48 -8 -3 -15
-16 -15 -30 0 -13 7 -26 15 -30 12 -4 15 -29 15 -134 0 -125 1 -128 28 -159
32 -37 88 -49 105 -22 15 24 1 49 -27 49 -43 0 -56 33 -56 145 0 55 4 105 8
112 4 6 23 13 42 15 27 2 36 8 38 26 3 20 -1 22 -36 22 -45 0 -52 10 -52 71 0
31 -4 39 -18 39 -10 0 -22 -3 -25 -7z"/>
<path d="M15118 7273 c-34 -5 -84 -53 -103 -100 -21 -49 -19 -139 4 -189 10
-22 36 -55 57 -72 132 -109 294 100 213 273 -33 69 -92 100 -171 88z m109 -91
c37 -44 35 -149 -4 -200 -23 -30 -29 -33 -71 -30 -40 3 -49 8 -69 37 -43 63
-24 199 31 221 34 15 88 1 113 -28z"/>
<path d="M15480 7264 c-31 -11 -45 -13 -48 -5 -2 6 -15 11 -28 11 l-24 0 0
-182 c0 -187 6 -222 33 -200 11 9 16 45 19 140 3 70 10 137 17 149 16 32 48
46 85 39 51 -10 60 -35 64 -181 4 -133 13 -165 38 -144 11 9 14 43 14 139 0
127 0 128 29 159 16 17 37 31 48 31 75 -1 93 -40 93 -204 0 -90 3 -125 13
-128 33 -13 37 2 37 144 0 125 -2 145 -21 178 -41 73 -128 88 -184 32 l-26
-25 -27 25 c-36 34 -77 41 -132 22z"/>
<path d="M16053 7273 c-45 -6 -100 -71 -109 -130 -9 -60 1 -143 20 -182 21
-39 82 -81 119 -81 16 0 42 11 59 25 35 30 58 32 58 6 0 -26 17 -36 36 -20 12
10 14 43 12 193 -3 179 -3 181 -25 184 -15 2 -23 -2 -23 -12 0 -24 -16 -27
-41 -7 -28 21 -62 29 -106 24z m103 -89 c67 -82 24 -234 -66 -234 -59 0 -100
56 -100 137 0 113 104 173 166 97z"/>
<path d="M16770 7273 c-35 -7 -88 -61 -100 -103 -13 -48 -11 -147 4 -190 16
-45 87 -100 128 -100 54 0 138 69 138 114 0 28 -45 19 -70 -14 -19 -25 -30
-30 -66 -30 -37 0 -47 5 -68 33 -36 46 -37 145 -3 194 35 52 111 56 137 7 15
-28 47 -41 63 -25 14 14 -16 74 -47 94 -25 17 -81 26 -116 20z"/>
<path d="M17117 7272 c-47 -12 -95 -58 -108 -105 -13 -48 -7 -174 11 -206 6
-12 29 -35 52 -51 50 -37 97 -39 141 -8 73 51 87 80 87 181 0 73 -3 88 -27
125 -35 53 -94 78 -156 64z m102 -88 c20 -22 23 -36 24 -100 0 -69 -2 -77 -28
-104 -43 -45 -93 -42 -134 7 -26 32 -31 46 -31 93 0 62 25 115 63 130 33 14
79 3 106 -26z"/>
<path d="M14460 7120 l0 -149 38 -40 c54 -57 93 -62 155 -19 18 13 29 5 40
-27 2 -6 11 -4 20 4 15 12 17 38 17 197 l0 184 -24 0 c-24 0 -24 -1 -28 -134
-3 -126 -5 -137 -28 -160 -29 -32 -88 -36 -113 -8 -23 25 -37 107 -37 213 0
82 -2 89 -20 89 -19 0 -20 -7 -20 -150z"/>
<path d="M16540 7081 c0 -191 5 -216 35 -191 12 10 15 48 15 196 l0 184 -25 0
-25 0 0 -189z"/>
<path d="M13873 7200 c-48 -20 -57 -85 -17 -137 29 -38 51 -42 82 -13 30 28
38 80 18 119 -9 17 -21 31 -25 31 -5 0 -15 2 -23 4 -7 3 -23 1 -35 -4z"/>
<path d="M7680 7020 c0 -5 5 -10 10 -10 6 0 10 5 10 10 0 6 -4 10 -10 10 -5 0
-10 -4 -10 -10z"/>
<path d="M1792 6970 c-67 -63 -52 -181 28 -216 109 -48 121 -55 131 -81 36
-95 -81 -154 -133 -68 -25 43 -68 50 -68 11 0 -77 132 -136 200 -89 51 35 55
44 55 119 0 67 -2 74 -27 96 -16 13 -48 30 -73 37 -81 24 -121 105 -75 151 11
11 31 20 44 20 28 0 76 -35 76 -56 0 -17 50 -19 51 -1 3 35 -5 55 -34 80 -26
23 -40 27 -88 27 -48 0 -60 -4 -87 -30z"/>
<path d="M2179 6902 c-31 -15 -67 -49 -85 -82 -29 -53 -27 -192 4 -241 32 -53
62 -69 126 -69 50 0 59 3 96 38 45 44 54 82 18 82 -14 0 -34 -13 -49 -31 -21
-26 -33 -32 -67 -33 -51 -1 -80 24 -84 74 l-3 35 115 5 c129 6 128 5 115 86
-9 63 -75 134 -130 140 -22 2 -47 0 -56 -4z m109 -99 c13 -14 22 -35 20 -47
-3 -19 -10 -21 -86 -24 -92 -3 -104 5 -80 55 27 57 101 65 146 16z"/>
<path d="M2530 6903 c-24 -9 -60 -45 -86 -85 -20 -31 -24 -51 -24 -113 0 -87
21 -140 69 -174 40 -28 109 -28 145 0 35 28 46 16 39 -43 -6 -55 -44 -104 -86
-114 -25 -6 -34 0 -72 41 -31 33 -50 45 -61 41 -24 -9 -10 -64 25 -100 25 -25
37 -29 88 -30 76 -1 107 15 135 73 21 42 23 62 26 250 2 112 1 214 -2 227 -7
26 -46 34 -46 10 0 -26 -18 -27 -56 -1 -36 24 -63 29 -94 18z m114 -106 c21
-27 26 -45 26 -91 0 -90 -33 -136 -96 -136 -37 0 -47 5 -68 33 -22 29 -26 44
-26 102 0 61 3 72 27 97 21 22 36 28 69 28 37 0 47 -5 68 -33z"/>
<path d="M3270 6888 c-31 -19 -35 -19 -46 -3 -7 9 -21 15 -31 13 -17 -3 -18
-19 -21 -196 l-2 -193 26 3 27 3 -2 102 c-1 56 3 120 9 141 10 40 44 72 75 72
10 0 15 10 15 34 0 45 -9 49 -50 24z"/>
<path d="M3461 6893 c-19 -9 -47 -37 -62 -62 -26 -40 -29 -54 -29 -129 0 -137
44 -192 153 -192 48 0 58 4 88 34 110 106 57 347 -79 362 -23 3 -50 -2 -71
-13z m120 -87 c32 -39 42 -93 28 -147 -16 -62 -46 -91 -94 -91 -47 0 -72 23
-90 85 -24 81 9 167 70 179 34 6 68 -4 86 -26z"/>
<path d="M2810 6769 c0 -154 11 -201 55 -235 37 -28 100 -32 131 -10 16 13 21
12 36 -1 9 -8 25 -13 35 -11 16 3 18 18 21 173 3 190 0 215 -27 215 -25 0 -31
-35 -31 -169 0 -82 -4 -112 -16 -129 -21 -30 -55 -43 -91 -33 -44 12 -62 71
-62 214 l-1 117 -25 0 -25 0 0 -131z"/>
<path d="M1550 6817 c-51 -26 -49 -118 5 -153 23 -15 27 -15 50 0 32 21 48 61
40 102 -9 50 -51 73 -95 51z"/>
<path d="M7730 6759 c0 -5 5 -7 10 -4 6 3 10 8 10 11 0 2 -4 4 -10 4 -5 0 -10
-5 -10 -11z"/>
<path d="M14724 6645 c-12 -18 -13 -28 -4 -44 23 -44 66 -13 53 38 -8 30 -31
33 -49 6z"/>
<path d="M16819 6651 c-15 -12 -30 -39 -38 -71 -7 -28 -19 -54 -27 -57 -19 -7
-18 -50 1 -60 12 -7 15 -40 17 -168 3 -157 3 -160 26 -163 22 -3 22 -3 22 150
0 84 4 158 8 165 4 6 20 15 35 18 20 5 27 13 27 31 0 20 -5 24 -29 24 -17 0
-31 6 -35 15 -8 22 12 59 37 70 30 13 30 59 1 63 -11 2 -31 -6 -45 -17z"/>
<path d="M8273 6642 c-36 -11 -91 -90 -98 -143 -11 -80 3 -138 45 -183 35 -37
42 -40 92 -40 82 -1 137 39 141 102 2 25 -1 27 -37 30 -29 3 -43 -2 -58 -17
-30 -33 -63 -27 -82 14 -17 36 -14 97 7 123 14 18 51 15 77 -8 24 -21 65 -26
88 -11 32 20 -33 115 -91 132 -35 10 -52 10 -84 1z"/>
<path d="M17570 6635 c-9 -11 -11 -35 -7 -80 2 -36 1 -68 -4 -71 -5 -3 -21 4
-35 15 -19 15 -41 21 -75 21 -42 0 -53 -5 -80 -33 -71 -74 -79 -200 -20 -307
23 -40 42 -49 107 -50 46 0 63 4 68 15 3 8 15 15 26 15 11 0 20 -7 20 -15 0
-9 9 -15 25 -15 l25 0 -2 257 c-3 226 -5 258 -19 261 -9 1 -22 -4 -29 -13z
m-36 -215 c44 -67 33 -171 -23 -217 -27 -23 -78 -16 -106 15 -52 55 -55 135
-8 205 23 33 30 37 68 37 38 0 45 -4 69 -40z"/>
<path d="M10163 6625 c-3 -11 9 -45 32 -87 36 -68 37 -71 24 -112 -7 -22 -23
-60 -36 -83 -30 -55 -29 -63 10 -63 40 0 53 8 66 43 14 37 35 34 55 -8 15 -31
21 -35 55 -35 21 0 40 3 44 6 3 3 -12 41 -34 83 -21 42 -39 81 -39 86 0 6 16
42 36 82 41 80 40 103 -6 103 -26 0 -33 -6 -52 -45 -12 -25 -26 -44 -31 -42
-5 1 -19 21 -32 42 -17 32 -28 41 -53 43 -23 2 -34 -2 -39 -13z"/>
<path d="M14168 6598 c-73 -51 -108 -123 -108 -223 0 -73 16 -122 59 -179 41
-55 66 -66 143 -66 72 0 116 26 148 91 37 72 -3 78 -67 11 -36 -38 -45 -42
-87 -42 -40 0 -51 5 -77 33 -89 95 -92 215 -6 305 27 28 37 32 83 32 47 0 55
-3 90 -40 38 -39 67 -50 79 -30 11 18 -37 81 -84 111 -62 40 -112 39 -173 -3z"/>
<path d="M15262 6608 c-7 -7 -12 -27 -12 -46 0 -25 -5 -35 -20 -39 -13 -3 -20
-14 -20 -29 0 -13 9 -28 20 -34 18 -10 20 -21 20 -136 0 -95 4 -134 16 -160
15 -32 19 -34 66 -34 48 0 49 1 46 27 -2 20 -10 29 -32 34 -16 5 -33 14 -37
21 -5 7 -9 63 -9 125 0 98 2 114 18 122 10 5 27 9 37 8 15 -2 21 5 23 25 3 24
0 27 -35 30 -35 3 -38 5 -44 41 -7 46 -20 62 -37 45z"/>
<path d="M14517 6513 c-4 -3 -7 -91 -7 -195 l0 -188 24 0 c24 0 24 1 28 134 4
146 9 161 70 192 19 10 28 22 28 39 0 30 -19 32 -57 8 -24 -16 -26 -16 -38 0
-12 17 -36 22 -48 10z"/>
<path d="M14725 6498 c-3 -13 -4 -99 -3 -193 3 -168 3 -170 26 -173 l22 -3 0
195 c0 189 -1 196 -20 196 -12 0 -22 -9 -25 -22z"/>
<path d="M14867 6513 c-4 -3 -7 -129 -7 -278 0 -224 3 -275 14 -284 25 -21 36
19 36 123 0 53 4 96 8 96 5 0 18 -9 30 -20 16 -15 35 -20 78 -20 53 0 60 3 90
35 17 19 35 50 39 68 27 131 12 199 -59 268 -27 26 -101 25 -145 -2 -27 -16
-36 -18 -42 -7 -5 7 -9 16 -9 21 0 9 -24 9 -33 0z m222 -107 c66 -136 -47
-285 -139 -184 -51 55 -51 137 0 208 39 54 107 43 139 -24z"/>
<path d="M15505 6507 c-30 -19 -39 -29 -57 -70 -26 -54 -24 -164 3 -227 27
-62 56 -81 124 -81 85 0 123 34 149 134 24 90 -9 203 -70 238 -34 20 -120 24
-149 6z m135 -80 c32 -38 45 -102 30 -146 -40 -123 -156 -122 -189 2 -12 46
-1 101 30 144 33 47 91 47 129 0z"/>
<path d="M15865 6508 c-88 -44 -110 -247 -37 -337 27 -33 34 -36 91 -39 57 -3
65 -1 85 23 27 31 36 24 35 -29 -1 -48 -24 -91 -60 -113 -34 -21 -69 -11 -106
27 -30 32 -73 41 -73 15 0 -23 42 -83 69 -97 13 -7 49 -13 79 -13 51 0 56 2
92 42 22 25 42 62 49 87 11 47 16 402 5 430 -9 24 -54 21 -54 -4 0 -11 -5 -20
-10 -20 -6 0 -20 9 -32 20 -24 22 -97 27 -133 8z m128 -76 c38 -42 52 -95 37
-148 -35 -125 -149 -127 -190 -3 -22 65 15 157 71 177 31 12 52 5 82 -26z"/>
<path d="M16180 6325 l0 -195 24 0 24 0 4 134 c3 127 4 136 28 161 14 15 35
31 48 36 15 6 22 17 22 34 0 30 -24 33 -59 8 -22 -15 -25 -15 -36 0 -7 10 -22
17 -34 17 -21 0 -21 -2 -21 -195z"/>
<path d="M16449 6505 c-36 -20 -59 -58 -75 -124 -16 -72 1 -157 44 -210 27
-33 34 -36 88 -39 49 -2 63 1 82 18 23 22 42 19 42 -6 0 -8 10 -14 25 -14 l25
0 0 179 c0 99 -3 186 -6 195 -9 24 -44 20 -44 -4 0 -11 -7 -20 -15 -20 -8 0
-15 3 -15 8 0 13 -53 32 -89 32 -20 -1 -48 -7 -62 -15z m141 -78 c32 -38 45
-102 30 -146 -41 -124 -155 -122 -190 3 -10 35 -10 52 0 83 31 95 108 125 160
60z"/>
<path d="M16997 6495 c-42 -43 -61 -94 -60 -165 0 -88 10 -121 45 -164 28 -34
33 -36 89 -36 46 0 65 5 81 20 12 11 25 20 30 20 4 0 8 -9 8 -20 0 -15 7 -20
25 -20 l25 0 -2 192 c-3 177 -4 193 -21 196 -12 3 -20 -4 -24 -17 -7 -26 -11
-26 -43 -1 -39 30 -120 27 -153 -5z m159 -75 c46 -69 41 -148 -11 -204 -33
-36 -85 -36 -119 0 -42 46 -45 163 -6 211 41 52 100 48 136 -7z"/>
<path d="M17774 6506 c-42 -23 -53 -38 -69 -91 -29 -102 -11 -206 45 -260 24
-23 36 -27 90 -27 56 0 65 3 94 31 87 84 86 248 -2 329 -31 28 -42 32 -86 31
-28 -1 -61 -6 -72 -13z m139 -88 c81 -126 -36 -302 -133 -198 -47 50 -48 147
-3 208 20 27 30 32 66 32 39 0 45 -4 70 -42z"/>
<path d="M13851 6421 c-29 -40 -27 -86 4 -116 29 -29 55 -32 84 -7 52 42 24
152 -38 152 -21 0 -36 -8 -50 -29z"/>
<path d="M3183 6413 c-7 -2 -13 -16 -13 -31 0 -14 -4 -39 -10 -56 -5 -17 -17
-67 -25 -111 -9 -44 -20 -98 -25 -120 -5 -22 -13 -65 -18 -95 -6 -30 -22 -118
-36 -195 -32 -166 -32 -175 -7 -175 22 0 30 16 42 90 12 75 22 123 54 275 15
72 31 148 35 170 5 22 14 67 21 100 15 75 17 147 4 151 -5 1 -16 0 -22 -3z"/>
<path d="M2200 6275 c-13 -14 -28 -25 -32 -25 -19 0 -38 -30 -38 -61 l0 -32
53 45 c52 45 67 72 50 89 -6 6 -19 -1 -33 -16z"/>
<path d="M3972 6259 c-67 -51 -73 -101 -9 -68 55 29 95 87 69 103 -4 2 -31
-13 -60 -35z"/>
<path d="M2774 6282 c-30 -20 -18 -82 15 -82 33 0 44 62 13 79 -10 5 -23 7
-28 3z"/>
<path d="M4417 6274 c-24 -25 7 -82 39 -70 24 9 15 70 -11 74 -12 2 -24 0 -28
-4z"/>
<path d="M2900 6009 l0 -260 23 3 22 3 3 258 2 257 -25 0 -25 0 0 -261z"/>
<path d="M1766 6234 c-3 -9 -6 -119 -6 -245 0 -199 2 -230 16 -236 29 -11 38
14 35 96 -4 107 4 119 77 123 53 3 57 5 57 28 0 24 -4 25 -60 28 -33 2 -63 9
-67 15 -11 18 -10 105 2 128 9 16 22 19 85 19 l75 0 0 30 0 30 -104 0 c-85 0
-105 -3 -110 -16z"/>
<path d="M3304 6237 c-2 -7 -3 -118 -2 -247 l3 -235 25 0 c25 0 25 1 28 96 l3
96 60 7 c33 3 69 11 80 17 59 31 80 155 37 219 -13 18 -39 39 -58 46 -48 17
-169 18 -176 1z m184 -82 c53 -61 13 -135 -74 -138 l-49 -2 -3 74 c-4 101 -2
105 56 97 33 -4 54 -14 70 -31z"/>
<path d="M4230 6194 c0 -37 -4 -47 -20 -51 -11 -3 -20 -9 -20 -13 0 -5 -3 -15
-6 -24 -4 -11 2 -19 20 -26 l26 -10 0 -131 c0 -116 2 -134 21 -160 17 -24 28
-29 60 -29 37 0 39 2 39 30 0 23 -5 30 -19 30 -44 0 -52 24 -49 149 l3 116 33
5 c18 3 33 8 32 13 0 4 0 16 0 28 0 15 -5 20 -22 18 -35 -5 -48 9 -48 51 0 36
-12 50 -41 50 -5 0 -9 -21 -9 -46z"/>
<path d="M2126 6133 c-3 -7 -12 -13 -20 -13 -8 0 -24 -12 -36 -27 -74 -94 -65
-237 20 -318 23 -22 37 -27 79 -27 43 0 55 4 72 26 26 33 37 33 45 0 5 -18 12
-24 28 -22 20 3 21 8 24 182 2 180 -2 206 -34 206 -8 0 -14 -6 -14 -12 0 -7
-4 -19 -9 -27 -7 -11 -15 -9 -42 12 -39 28 -106 40 -113 20z m118 -83 c46 -55
43 -172 -5 -216 -30 -27 -91 -25 -122 5 -34 31 -49 96 -36 147 25 92 111 126
163 64z"/>
<path d="M2483 6121 c-17 -11 -43 -40 -57 -64 -21 -36 -26 -56 -26 -115 0 -39
5 -74 10 -77 6 -3 10 -14 10 -24 0 -9 18 -34 39 -55 35 -34 45 -38 90 -38 65
0 116 37 135 100 7 19 4 22 -23 22 -20 0 -34 -7 -41 -20 -10 -19 -59 -50 -79
-50 -6 0 -26 16 -46 35 -33 34 -35 39 -35 107 0 61 4 76 26 105 21 28 31 33
67 33 36 0 45 -5 62 -30 40 -60 89 -48 60 14 -32 68 -128 96 -192 57z"/>
<path d="M2767 6133 c-4 -3 -7 -91 -7 -195 l0 -188 25 0 c14 0 25 6 25 13 5
200 -1 361 -12 368 -16 11 -23 11 -31 2z"/>
<path d="M3637 6127 c-16 -11 -17 -32 -15 -192 l3 -180 25 0 25 0 5 130 c5
142 13 166 60 187 23 10 30 19 30 40 0 33 -5 34 -48 8 -40 -24 -38 -24 -45 0
-6 23 -16 25 -40 7z"/>
<path d="M3887 6109 c-55 -45 -67 -76 -67 -167 0 -71 3 -83 30 -124 42 -64 53
-70 111 -71 42 -1 55 3 69 21 23 28 37 28 45 1 5 -14 14 -19 28 -17 22 3 22 7
25 184 2 159 0 183 -14 195 -15 12 -19 11 -32 -9 -14 -21 -42 -31 -42 -14 0
14 -48 32 -83 32 -21 0 -45 -11 -70 -31z m133 -42 c37 -29 50 -62 50 -125 0
-60 -2 -66 -35 -99 -32 -32 -40 -35 -73 -30 -59 10 -82 47 -82 131 0 59 4 74
26 103 20 27 32 33 62 33 20 0 44 -6 52 -13z"/>
<path d="M4424 6127 c-2 -7 -3 -94 -2 -192 3 -172 4 -180 23 -180 19 0 20 8
23 179 2 123 -1 183 -9 192 -14 17 -28 18 -35 1z"/>
<path d="M4596 6097 c-45 -45 -56 -76 -56 -156 0 -69 18 -120 56 -159 31 -32
38 -35 90 -34 51 0 61 4 90 34 18 18 36 45 39 61 6 24 4 27 -18 27 -15 0 -32
-9 -41 -21 -24 -36 -65 -52 -97 -38 -46 18 -61 53 -61 135 0 59 4 79 22 103
18 26 28 31 63 31 36 0 46 -5 73 -37 22 -26 36 -35 48 -30 14 6 17 14 11 35
-13 55 -68 92 -135 92 -34 0 -47 -6 -84 -43z"/>
<path d="M4964 6121 c-56 -34 -78 -77 -82 -158 -5 -90 8 -129 58 -178 36 -35
45 -39 89 -38 63 1 102 27 132 91 49 98 17 246 -61 284 -46 23 -98 22 -136 -1z
m135 -76 c28 -32 31 -43 31 -98 0 -54 -4 -67 -27 -95 -19 -22 -40 -35 -65 -39
-32 -5 -41 -1 -68 25 -28 28 -30 36 -30 103 0 62 4 77 26 106 21 27 32 33 63
33 32 0 45 -6 70 -35z"/>
<path d="M1537 6056 c-26 -20 -32 -75 -13 -119 14 -34 18 -37 54 -37 36 0 41
4 57 36 31 67 4 133 -55 133 -14 0 -33 -6 -43 -13z"/>
<path d="M7898 6053 c7 -3 16 -2 19 1 4 3 -2 6 -13 5 -11 0 -14 -3 -6 -6z"/>
<path d="M7836 5966 c-3 -13 -2 -35 3 -48 8 -19 10 -15 10 25 1 52 -4 60 -13
23z"/>
<path d="M8132 5940 c0 -14 2 -19 5 -12 2 6 2 18 0 25 -3 6 -5 1 -5 -13z"/>
<path d="M7745 5910 c-3 -5 -1 -10 4 -10 6 0 11 5 11 10 0 6 -2 10 -4 10 -3 0
-8 -4 -11 -10z"/>
<path d="M16630 5885 c-19 -23 -8 -50 20 -50 19 0 26 6 28 24 5 35 -26 53 -48
26z"/>
<path d="M8242 5865 c0 -16 2 -22 5 -12 2 9 2 23 0 30 -3 6 -5 -1 -5 -18z"/>
<path d="M14420 5636 c0 -243 1 -254 19 -259 11 -3 22 -2 25 1 3 3 6 119 6
259 l0 253 -25 0 -25 0 0 -254z"/>
<path d="M15267 5883 c-4 -3 -7 -118 -7 -254 0 -252 2 -264 38 -252 8 3 12 25
12 63 0 32 4 61 8 64 5 3 30 -24 56 -59 36 -47 56 -64 78 -67 42 -7 44 7 5 55
-19 23 -48 63 -65 88 l-32 47 22 28 c12 16 25 31 29 34 22 18 78 115 71 122
-23 23 -57 2 -102 -64 -25 -38 -51 -68 -57 -68 -10 0 -13 34 -13 135 0 124 -1
135 -18 135 -10 0 -22 -3 -25 -7z"/>
<path d="M15890 5635 l0 -255 25 0 25 0 0 124 c0 112 2 126 23 157 18 26 31
35 58 37 30 3 41 -2 63 -28 25 -30 26 -36 26 -160 0 -98 3 -129 13 -133 35
-13 39 7 35 149 -5 166 -18 201 -81 229 -40 18 -42 18 -80 -3 -22 -12 -43 -19
-48 -16 -5 3 -9 39 -9 80 0 72 -1 74 -25 74 l-25 0 0 -255z"/>
<path d="M7836 5864 c-10 -25 -7 -82 4 -89 6 -4 10 15 10 49 0 58 -3 68 -14
40z"/>
<path d="M14080 5621 l0 -241 103 0 c102 0 104 0 133 31 26 27 29 37 29 94 0
52 -4 68 -22 87 -28 30 -29 42 -3 68 15 15 20 33 20 78 0 51 -3 62 -30 87 -27
26 -36 28 -130 33 l-100 5 0 -242z m184 170 c10 -11 17 -36 18 -62 1 -59 -27
-81 -96 -77 l-51 3 -3 64 c-4 88 -2 91 61 91 40 0 58 -5 71 -19z m-17 -201
c47 -17 65 -72 42 -123 -14 -32 -49 -47 -103 -47 -52 0 -56 7 -56 90 0 32 3
65 6 74 7 19 65 22 111 6z"/>
<path d="M8061 5834 c0 -11 3 -14 6 -6 3 7 2 16 -1 19 -3 4 -6 -2 -5 -13z"/>
<path d="M14649 5757 c-70 -32 -99 -88 -99 -192 0 -118 28 -166 110 -191 73
-21 159 28 180 104 30 108 -3 225 -75 267 -45 27 -75 30 -116 12z m103 -84
c43 -48 53 -86 38 -149 -24 -98 -97 -130 -155 -68 -55 59 -51 170 8 220 38 32
77 31 109 -3z"/>
<path d="M14993 5750 c-18 -10 -44 -38 -59 -60 -25 -37 -27 -49 -26 -130 0
-105 17 -144 72 -173 39 -20 113 -18 148 4 26 16 65 85 57 99 -12 20 -43 9
-69 -25 -50 -65 -114 -55 -147 23 -32 74 -24 132 25 190 29 34 90 31 113 -5
22 -35 33 -43 61 -43 27 0 27 3 1 57 -14 30 -33 50 -60 63 -48 25 -76 25 -116
0z"/>
<path d="M15623 5750 c-18 -10 -45 -38 -60 -61 -25 -38 -28 -52 -28 -123 0
-136 55 -203 157 -192 73 8 118 48 118 106 0 31 -38 25 -57 -8 -16 -28 -54
-52 -82 -52 -63 1 -112 130 -79 207 22 51 48 73 89 73 32 0 42 -6 65 -35 29
-39 64 -47 64 -16 0 37 -39 89 -81 105 -51 21 -67 20 -106 -4z"/>
<path d="M16340 5763 c-25 -9 -52 -36 -82 -82 -47 -74 -37 -201 20 -271 27
-32 33 -34 90 -35 43 0 65 5 79 18 24 21 43 22 43 3 0 -20 18 -30 33 -18 19
16 11 382 -8 382 -8 0 -19 -9 -25 -20 -11 -20 -11 -20 -54 5 -42 24 -66 29
-96 18z m95 -87 c43 -33 59 -90 44 -150 -34 -134 -157 -136 -189 -3 -11 49
-11 60 4 99 31 78 83 98 141 54z"/>
<path d="M16863 5753 c-28 -14 -36 -15 -58 -3 -14 7 -28 11 -31 8 -6 -6 -8
-377 -2 -384 2 -2 14 -1 26 3 21 5 22 10 22 140 0 132 0 134 26 158 36 33 80
33 110 0 31 -33 34 -48 37 -185 2 -94 5 -115 17 -115 13 0 15 24 18 142 2 128
0 147 -18 184 -14 27 -33 45 -55 55 -42 17 -52 17 -92 -3z"/>
<path d="M16632 5568 c3 -164 5 -193 18 -193 13 0 15 28 15 190 0 174 -2 190
-18 193 -16 3 -17 -9 -15 -190z"/>
<path d="M13855 5664 c-30 -32 -32 -68 -5 -111 40 -67 115 -29 115 58 0 73
-63 103 -110 53z"/>
<path d="M2017 5499 c-32 -28 -47 -48 -47 -65 0 -29 11 -31 35 -4 10 11 23 20
30 20 30 0 60 69 37 84 -4 3 -29 -13 -55 -35z"/>
<path d="M2886 5515 c-20 -20 -21 -49 -1 -65 22 -19 45 -4 45 28 0 40 -22 58
-44 37z"/>
<path d="M3254 5485 c-3 -14 -4 -48 -2 -75 6 -61 -3 -81 -29 -58 -10 8 -34 21
-53 28 -143 49 -237 -228 -120 -351 20 -21 48 -41 64 -45 32 -8 106 13 113 33
8 19 21 16 28 -8 5 -14 14 -19 28 -17 22 3 22 4 22 258 l0 255 -22 3 c-17 3
-24 -3 -29 -23z m-54 -182 c58 -52 63 -172 9 -225 -68 -68 -152 -8 -152 107 1
67 16 101 55 125 43 26 52 25 88 -7z"/>
<path d="M1765 5458 c-3 -13 -4 -122 -3 -243 l3 -220 84 -3 c90 -3 107 4 96
37 -5 18 -14 21 -65 21 -45 0 -59 4 -64 17 -4 9 -6 101 -6 204 1 104 -1 193
-5 199 -11 18 -34 11 -40 -12z"/>
<path d="M2225 5378 c-30 -11 -59 -42 -82 -86 -8 -14 -13 -61 -13 -110 0 -73
4 -91 25 -128 41 -71 110 -92 173 -54 18 11 37 20 42 20 5 0 11 -48 12 -107 3
-100 4 -108 23 -108 19 0 20 8 23 283 2 255 1 283 -14 289 -10 4 -22 -1 -30
-12 -12 -16 -16 -17 -46 -2 -49 23 -80 27 -113 15z m91 -68 c44 -28 69 -92 60
-154 -9 -55 -52 -106 -90 -106 -73 0 -111 56 -104 153 4 54 8 63 41 93 43 40
49 41 93 14z"/>
<path d="M3500 5383 c-77 -28 -95 -51 -120 -152 -21 -82 33 -231 84 -231 8 0
18 -4 21 -10 3 -5 21 -10 38 -10 93 2 157 85 157 205 0 108 -34 169 -109 194
-36 12 -47 13 -71 4z m84 -88 c79 -78 40 -245 -57 -245 -29 0 -41 7 -66 37
-26 32 -31 46 -31 91 0 60 17 101 56 131 37 29 58 26 98 -14z"/>
<path d="M2012 5372 c-9 -7 -12 -52 -10 -193 3 -183 3 -184 26 -187 l22 -3 -2
192 c-3 189 -7 209 -36 191z"/>
<path d="M2523 5368 c-14 -19 -9 -247 6 -293 16 -48 38 -75 61 -75 9 0 21 -5
28 -12 9 -9 20 -9 50 1 20 8 40 19 45 25 5 8 12 6 21 -6 7 -10 23 -18 35 -18
21 0 21 1 19 193 -3 184 -4 192 -23 192 -19 0 -20 -9 -26 -125 -5 -127 -10
-151 -37 -182 -23 -28 -78 -23 -107 8 -24 26 -25 33 -25 159 0 112 -2 134 -16
139 -21 8 -20 8 -31 -6z"/>
<path d="M2884 5367 c-2 -7 -3 -94 -2 -192 3 -172 4 -180 23 -180 19 0 20 8
23 184 2 141 -1 186 -10 193 -18 11 -28 10 -34 -5z"/>
<path d="M1541 5296 c-12 -13 -25 -42 -28 -64 -10 -75 65 -117 117 -66 25 24
19 98 -9 128 -30 32 -51 33 -80 2z"/>
<path d="M7786 5095 c-3 -9 0 -15 9 -15 8 0 15 7 15 15 0 8 -4 15 -9 15 -5 0
-11 -7 -15 -15z"/>
<path d="M7801 4754 c0 -11 3 -14 6 -6 3 7 2 16 -1 19 -3 4 -6 -2 -5 -13z"/>
<path d="M7815 4530 c3 -5 13 -10 21 -10 8 0 12 5 9 10 -3 6 -13 10 -21 10 -8
0 -12 -4 -9 -10z"/>
<path d="M7816 4471 c-4 -7 -5 -15 -2 -18 9 -9 19 4 14 18 -4 11 -6 11 -12 0z"/>
<path d="M18503 1931 c-36 -16 -42 -39 -23 -90 10 -25 24 -66 31 -91 19 -65
52 -94 92 -85 18 4 50 10 72 14 l40 6 3 52 c3 59 -19 114 -69 165 -23 24 -39
32 -76 34 -27 2 -58 0 -70 -5z"/>
<path d="M16980 1841 c0 -6 5 -13 10 -16 6 -3 10 1 10 9 0 9 -4 16 -10 16 -5
0 -10 -4 -10 -9z"/>
<path d="M17237 1779 c3 -97 13 -101 13 -6 0 43 -3 77 -7 77 -5 0 -7 -32 -6
-71z"/>
<path d="M16980 1765 c-10 -12 -10 -15 4 -15 9 0 16 7 16 15 0 8 -2 15 -4 15
-2 0 -9 -7 -16 -15z"/>
</g>
</svg>
